<?xml version="1.0" encoding="UTF-8"?>
<svg width="340px" height="377px" viewBox="0 0 340 377" version="1.1" xmlns="http://www.w3.org/2000/svg" xmlns:xlink="http://www.w3.org/1999/xlink">
    <title>Group 5</title>
    <g id="Page-1" stroke="none" stroke-width="1" fill="none" fill-rule="evenodd">
        <g id="set_of_hand_drawn_avocado_characters_holding_heart_wearing_crown_holding_love_letter_being_afraid" transform="translate(-516.000000, -568.000000)">
            <g id="Group-5" transform="translate(516.116478, 568.893237)">
                <g id="Group-107" transform="translate(81.597558, 297.132252)" fill="#222D0D">
                    <path d="M28.0859648,61.4815111 C20.9229648,59.7755111 -0.949035222,62.9085111 0.0319647779,73.2725111 C0.915964778,82.6145111 33.7779648,78.5585111 37.9319648,74.6065111 C41.8089648,70.9165111 36.6239648,63.5135111 28.0859648,61.4815111" id="Fill-104"></path>
                    <path d="M34.6619648,73.9675111 C33.4929648,73.9675111 32.3969648,73.2425111 31.9809648,72.0785111 L19.6839648,37.6475111 C19.4729648,37.0565111 19.4629648,36.4125111 19.6559648,35.8155111 L30.5869648,1.97351114 C31.0699648,0.47851114 32.6729648,-0.34648886 34.1709648,0.13951114 C35.6679648,0.62451114 36.4879648,2.22751114 36.0049648,3.72351114 L25.3709648,36.6445111 L37.3429648,70.1635111 C37.8719648,71.6435111 37.0999648,73.2725111 35.6189648,73.8005111 C35.3029648,73.9145111 34.9799648,73.9675111 34.6619648,73.9675111" id="Fill-105"></path>
                    <path d="M155.525965,61.4815111 C162.688965,59.7755111 184.560965,62.9085111 183.579965,73.2725111 C182.695965,82.6145111 149.834965,78.5585111 145.679965,74.6065111 C141.801965,70.9165111 146.986965,63.5135111 155.525965,61.4815111" id="Fill-106"></path>
                </g>
                <path d="M230.258522,371.099763 C229.940522,371.099763 229.617522,371.046763 229.300522,370.932763 C227.820522,370.404763 227.048522,368.775763 227.577522,367.295763 L239.499522,333.917763 L225.411522,301.103763 C224.791522,299.660763 225.459522,297.985763 226.904522,297.366763 C228.352522,296.745763 230.023522,297.414763 230.643522,298.858763 L245.172522,332.699763 C245.456522,333.359763 245.479522,334.101763 245.237522,334.779763 L232.939522,369.210763 C232.523522,370.374763 231.427522,371.099763 230.258522,371.099763" id="Fill-108" fill="#222D0D"></path>
                <path d="M237.547522,81.0517632 C221.367522,54.9527632 222.187522,-0.527236812 164.247522,3.00676319 C124.230522,5.44776319 112.594522,64.5117632 96.3735223,90.0597632 C68.5075223,133.950763 39.3955223,174.546763 62.7615223,242.174763 C88.7885223,317.507763 167.000522,319.427763 186.123522,317.770763 C211.922522,315.536763 265.089522,299.605763 282.096522,238.876763 C299.844522,175.499763 265.496522,126.134763 237.547522,81.0517632" id="Fill-109" fill="#4E6725"></path>
                <path d="M164.421522,5.84676319 C136.772522,7.53476319 123.375522,38.2967632 111.556522,65.4357632 C102.537522,86.1427632 101.317522,87.6197632 94.9405223,97.6077632 C68.5415223,138.958763 43.6075223,178.014763 65.4525223,241.244763 C93.3505223,321.996763 182.112522,315.256763 185.877522,314.934763 C198.193522,313.867763 260.581522,305.150763 279.355522,238.109763 C295.740522,179.598763 266.140522,132.214763 240.023522,90.4087632 C238.377522,87.7747632 236.742522,85.1557632 235.128522,82.5517632 C230.826522,75.6117632 227.760522,66.9007632 224.514522,57.6767632 C217.915522,38.9287632 211.158522,19.7337632 193.547522,10.8197632 C188.218522,8.12176319 179.231522,4.94876319 164.421522,5.84676319 Z M178.432522,320.881763 C154.623522,320.881763 84.7695223,314.591763 60.0715223,243.103763 C37.3265223,177.273763 62.9815223,137.088763 90.1415223,94.5447632 C96.4125223,84.7237632 97.4815223,83.4967632 106.335522,63.1647632 C118.190522,35.9437632 132.944522,2.06376319 164.074522,0.166763188 C177.585522,-0.661236812 188.078522,1.64376319 196.395522,5.97676319 C215.937522,16.1607632 223.462522,37.5417632 229.884522,55.7867632 C233.024522,64.7097632 235.990522,73.1377632 239.967522,79.5507632 C241.578522,82.1507632 243.209522,84.7617632 244.852522,87.3897632 C271.593522,130.196763 301.901522,178.713763 284.837522,239.642763 C265.051522,310.298763 199.340522,319.483763 186.369522,320.606763 C185.746522,320.660763 182.897522,320.881763 178.432522,320.881763 L178.432522,320.881763 Z" id="Fill-110" fill="#222D0D"></path>
                <path d="M166.802522,10.8847632 C131.808522,12.6137632 123.281522,61.9037632 108.063522,91.2177632 C98.3785223,109.874763 47.5355223,161.792763 73.1895223,235.231763 C98.8435223,308.670763 168.403522,308.240763 182.248522,307.677763 C204.933522,306.757763 248.793522,297.967763 269.099522,239.837763 C289.255522,182.134763 256.416522,130.479763 231.357522,89.9127632 C214.332522,62.3527632 212.848522,8.61176319 166.802522,10.8847632" id="Fill-111" fill="#BEC763"></path>
                <path d="M228.807522,110.509763 C213.254522,89.2457632 213.296522,75.2617632 203.334522,52.2167632 C195.325522,33.6917632 180.754522,27.7427632 172.074522,28.1877632 C154.052522,29.1147632 141.357522,41.7487632 134.125522,61.1627632 C127.211522,79.7227632 121.248522,100.670763 110.321522,115.234763 C97.7475223,131.993763 72.9695223,172.711763 86.1035223,218.910763 C99.2365223,265.110763 137.915522,297.087763 178.966522,292.965763 C221.790522,288.668763 243.811522,270.443763 254.836522,232.524763 C265.861522,194.604763 254.515522,145.661763 228.807522,110.509763" id="Fill-112" fill="#D4D577"></path>
                <path d="M174.505522,289.104763 C150.520522,289.104763 134.108522,276.206763 133.399522,275.638763 C131.416522,274.052763 131.094522,271.159763 132.680522,269.175763 C134.265522,267.196763 137.152522,266.872763 139.135522,268.451763 C139.355522,268.624763 154.900522,280.694763 176.679522,279.868763 C196.984522,279.101763 208.401522,270.480763 208.516522,270.393763 C210.520522,268.849763 213.405522,269.210763 214.959522,271.209763 C216.513522,273.207763 216.167522,276.079763 214.176522,277.641763 C213.628522,278.072763 200.498522,288.172763 177.027522,289.057763 C176.178522,289.090763 175.335522,289.104763 174.505522,289.104763" id="Fill-117" fill="#E6E790"></path>
                <path d="M189.041522,39.0017632 C187.702522,39.0017632 186.374522,38.4197632 185.465522,37.2977632 C185.412522,37.2337632 179.175522,29.7337632 171.781522,29.4437632 C164.330522,29.1457632 156.975522,36.2127632 156.903522,36.2847632 C155.098522,38.0697632 152.185522,38.0517632 150.400522,36.2467632 C148.615522,34.4407632 148.632522,31.5287632 150.438522,29.7437632 C150.849522,29.3377632 160.642522,19.8197632 172.142522,20.2547632 C183.736522,20.7107632 192.255522,31.0697632 192.612522,31.5097632 C194.210522,33.4837632 193.906522,36.3797632 191.933522,37.9767632 C191.081522,38.6667632 190.058522,39.0017632 189.041522,39.0017632" id="Fill-118" fill="#E6E790"></path>
                <polyline id="Fill-119" fill="#251326" points="179.844522 310.587763 179.848522 310.589763 179.844522 310.587763"></polyline>
                <path d="M177.334522,272.257763 C165.255522,272.257763 153.770522,268.899763 145.632522,264.579763 C130.841522,256.727763 111.278522,232.856763 118.005522,199.274763 C124.716522,165.769763 151.697522,149.548763 174.879522,150.863763 C194.079522,151.943763 213.179522,163.586763 223.538522,180.524763 C231.690522,193.853763 238.704522,228.860763 218.924522,253.214763 C207.459522,267.330763 191.962522,272.257763 177.334522,272.257763 L177.334522,272.257763 Z" id="Fill-142" fill="#9FAD1E"></path>
                <g id="Group-2" transform="translate(70.191237, 175.327248) rotate(40.000000) translate(-70.191237, -175.327248) translate(13.883522, 133.233989)" fill="#222D0D">
                    <path d="M80.6893893,77.2485168 C80.6893893,77.2485168 96.2743893,60.1785168 106.665389,60.9205168 C117.055389,61.6625168 112.564389,69.8115168 102.954389,75.7635168 C91.6443893,82.7695168 82.9163893,83.1855168 82.9163893,83.1855168 L80.6893893,77.2485168" id="Fill-174"></path>
                    <path d="M64.5793893,84.186517 C43.7303893,84.1875168 11.6973893,80.7585168 2.96138929,60.6675168 C-10.0276107,30.7925168 23.8323893,1.94151681 25.2793893,0.728516815 C26.5983893,-0.377483185 28.5593893,-0.204483185 29.6643893,1.11351681 C30.7703893,2.43051681 30.5983893,4.39551681 29.2823893,5.50151681 C28.9633893,5.76951681 -2.45861071,32.5845168 8.67338929,58.1845168 C19.8363893,83.8575168 81.7673893,77.1575168 82.3903893,77.0885168 C84.1133893,76.9055168 85.6423893,78.1245168 85.8353893,79.8325168 C86.0283893,81.5415168 84.8003893,83.0845168 83.0913893,83.2765168 C82.1973893,83.3775168 74.7073893,84.186517 64.5793893,84.186517" id="Fill-175"></path>
                </g>
                <g id="Group-3" transform="translate(268.565103, 172.263635) rotate(-40.000000) translate(-268.565103, -172.263635) translate(212.428057, 129.106763)" fill="#222D0D">
                    <path d="M47.7438546,86.3137436 C37.6118546,86.3147426 30.1248546,85.5047426 29.2308546,85.4027426 C27.5218546,85.2107426 26.2948546,83.6677426 26.4868546,81.9597426 C26.6798546,80.2497426 28.2308546,79.0147426 29.9308546,79.2137426 C30.5558546,79.2857426 92.4968546,85.9617426 103.648855,60.3097426 C114.807855,34.6477426 82.6208546,5.73474264 82.2958546,5.44674264 C81.0088546,4.30774264 80.8878546,2.33974264 82.0268546,1.05174264 C83.1648546,-0.236257359 85.1318546,-0.358257359 86.4208546,0.779742641 C87.8928546,2.08274264 122.325855,32.9767426 109.361855,62.7937426 C100.625855,82.8827426 68.5918546,86.3137436 47.7438546,86.3137436" id="Fill-177"></path>
                    <path d="M31.7198546,79.3757426 C31.7198546,79.3757426 15.9738546,61.0847426 5.74385464,63.0477426 C-3.73114536,64.8657426 -0.330145362,72.8027426 7.60585464,78.0937426 C15.5968546,83.4207426 29.4928546,85.3127426 29.4928546,85.3127426 L31.7198546,79.3757426" id="Fill-178"></path>
                </g>
                <g id="Group" transform="translate(118.465503, 20.294116)">
                    <path d="M70.9690193,18.9546475 C69.6160193,18.9546475 68.2740193,18.3666475 67.3560193,17.2326475 C67.3030193,17.1676475 61.0010193,9.59164745 53.5320193,9.29764745 C46.0060193,8.99764745 38.5750193,16.1366475 38.5010193,16.2086475 C36.6770193,18.0126475 33.7350193,17.9946475 31.9320193,16.1696475 C30.1290193,14.3446475 30.1460193,11.4036475 31.9710193,9.60064745 C32.3860193,9.19064745 42.2800193,-0.425352546 53.8970193,0.0146474536 C65.6100193,0.474647454 74.2170193,10.9406475 74.5760193,11.3856475 C76.1910193,13.3796475 75.8840193,16.3046475 73.8900193,17.9186475 C73.0300193,18.6166475 71.9960193,18.9546475 70.9690193,18.9546475" id="Fill-60" fill="#E6E790"></path>
                    <path d="M19.1690193,56.2306475 C15.3350193,53.5626475 8.44901929,50.2376475 3.85301929,52.6756475 C-2.18198071,55.8766475 -0.353980712,63.6356475 4.04301929,67.1996475 C7.63501929,70.1096475 13.6590193,71.2136475 18.0280193,69.4486475 C23.9520193,67.0556475 24.3690193,59.8486475 19.1690193,56.2306475" id="Fill-61" fill="#E6E790"></path>
                    <path d="M97.5790193,50.8686475 C93.0300193,49.4576475 85.0970193,54.4106475 83.0920193,58.5176475 C80.5300193,63.7596475 84.3300193,69.1506475 89.9200193,69.1406613 C98.5530193,69.1246475 109.783019,54.6536475 97.5790193,50.8686475" id="Fill-62" fill="#E6E790"></path>
                    <path d="M33.3550193,60.8396475 C28.9030193,65.2916475 43.7760193,76.9926475 52.6350193,76.9926475 C61.4930193,76.9926475 72.3990193,65.5446475 70.8730193,61.8816475 C68.2670193,55.6286475 37.5240193,56.6716475 33.3550193,60.8396475" id="Fill-63" fill="#3E1E01"></path>
                    <path d="M43.2570193,67.0926475 C40.3780193,69.9706475 47.4260193,73.8666475 51.5930193,73.8666475 C55.7610193,73.8666475 63.0570193,70.2196475 62.0140193,67.6136475 C60.9720193,65.0086475 45.3410193,65.0086475 43.2570193,67.0926475" id="Fill-64" fill="#FF809E"></path>
                    <path d="M34.6210193,37.0026475 C34.6210193,29.4806475 28.5240193,23.3836475 21.0020193,23.3836475 C13.4810193,23.3836475 7.38401929,29.4806475 7.38401929,37.0026475 C7.38401929,44.5236475 13.4800193,50.6216475 21.0020193,50.6216475 C28.5240193,50.6216475 34.6210193,44.5236475 34.6210193,37.0026475" id="Fill-66" fill="#222D0D"></path>
                    <path d="M29.8890193,33.5166475 C29.8890193,31.5106475 28.2630193,29.8856475 26.2590193,29.8856475 C24.2520193,29.8856475 22.6260193,31.5116475 22.6260193,33.5166475 C22.6260193,35.5226475 24.2520193,37.1476475 26.2590193,37.1476475 C28.2630193,37.1476475 29.8890193,35.5226475 29.8890193,33.5166475" id="Fill-67" fill="#FFFFFF"></path>
                    <path d="M13.9900193,38.2126475 C12.8840193,35.7786475 11.2460193,34.1406475 10.3340193,34.5556475 C9.42201929,34.9706475 9.57801929,37.2806475 10.6840193,39.7146475 C11.7910193,42.1486475 13.4280193,43.7866475 14.3420193,43.3716475 C15.2550193,42.9566475 15.0970193,40.6466475 13.9900193,38.2126475" id="Fill-68" fill="#FFFFFF"></path>
                    <path d="M77.9100193,23.4796475 C85.3760193,22.5606475 92.1730193,27.8676475 93.0920193,35.3326475 C94.0100193,42.7976475 88.7040193,49.5946475 81.2390193,50.5136475 C73.7730193,51.4326475 66.9770193,46.1266475 66.0570193,38.6606475 C65.1380193,31.1956475 70.4450193,24.3996475 77.9100193,23.4796475" id="Fill-69" fill="#222D0D"></path>
                    <path d="M88.4610193,33.5166475 C88.4610193,31.5106475 86.8350193,29.8856475 84.8300193,29.8856475 C82.8240193,29.8856475 81.1990193,31.5116475 81.1990193,33.5166475 C81.1990193,35.5226475 82.8250193,37.1476475 84.8300193,37.1476475 C86.8350193,37.1476475 88.4610193,35.5226475 88.4610193,33.5166475" id="Fill-70" fill="#FFFFFF"></path>
                    <path d="M72.5620193,38.2126475 C71.4560193,35.7786475 69.8180193,34.1406475 68.9060193,34.5556475 C67.9930193,34.9706475 68.1500193,37.2806475 69.2580193,39.7146475 C70.3640193,42.1486475 72.0010193,43.7866475 72.9130193,43.3716475 C73.8260193,42.9566475 73.6690193,40.6466475 72.5620193,38.2126475" id="Fill-71" fill="#FFFFFF"></path>
                    <path d="M53.3500193,90.1636475 C44.0990193,90.1636475 36.8240193,82.3996475 36.5110193,82.0606475 C35.4340193,80.8936475 35.5070193,79.0746475 36.6740193,77.9966475 C37.8390193,76.9206475 39.6550193,76.9906475 40.7320193,78.1546475 C40.8000193,78.2266475 46.9340193,84.7136475 53.8510193,84.3996475 C57.4140193,84.2316475 60.7200193,82.1976475 63.6760193,78.3566475 C64.6420193,77.0976475 66.4470193,76.8616475 67.7080193,77.8306475 C68.9670193,78.7986475 69.2020193,80.6046475 68.2340193,81.8636475 C64.1910193,87.1206475 59.4300193,89.9066475 54.0850193,90.1466475 C53.8400193,90.1576475 53.5930193,90.1636475 53.3500193,90.1636475" id="Fill-77" fill="#BEC763"></path>
                </g>
            </g>
        </g>
    </g>
</svg>