<?xml version="1.0" encoding="UTF-8"?>
<svg width="116px" height="123px" viewBox="0 0 116 123" version="1.1" xmlns="http://www.w3.org/2000/svg" xmlns:xlink="http://www.w3.org/1999/xlink">
    <title>Group 6</title>
    <g id="Page-1" stroke="none" stroke-width="1" fill="none" fill-rule="evenodd">
        <g id="set_of_hand_drawn_avocado_characters_holding_heart_wearing_crown_holding_love_letter_being_afraid" transform="translate(-504.000000, -174.000000)">
            <g id="Group" transform="translate(504.757256, 174.683029)">
                <path d="M58.0577441,4.27097079 C37.6747441,3.12597079 12.2877441,17.2979708 5.97174415,48.8279708 C-0.344255851,80.3569708 17.9927441,101.902971 31.2507441,108.938971 C49.5327441,118.642971 80.4047441,121.085971 98.6217441,98.6569708 C116.838744,76.2259708 110.215744,43.6299708 102.866744,31.6129708 C93.4047441,16.1399708 75.8037441,5.26897079 58.0577441,4.27097079" id="Fill-113" fill="#B25321"></path>
                <path d="M102.124744,91.4879708 C83.9067441,113.917971 53.0337441,111.473971 34.7527441,101.769971 C21.4957441,94.7339708 3.15874415,73.1879708 9.47374415,41.6589708 C10.3137441,37.4669708 11.4997441,33.5909708 12.9577441,30.0079708 C9.83474415,35.4039708 7.40674415,41.6619708 5.97174415,48.8269708 C-0.344255851,80.3559708 17.9927441,101.901971 31.2507441,108.937971 C49.5327441,118.641971 80.4047441,121.084971 98.6217441,98.6559708 C101.958744,94.5479708 104.453744,90.0959708 106.271744,85.4959708 C105.057744,87.5539708 103.688744,89.5599708 102.124744,91.4879708" id="Fill-114" fill="#A74419"></path>
                <path d="M102.866744,31.6119708 C93.4047441,16.1399708 75.8037441,5.26797079 58.0577441,4.26997079 C44.7947441,3.52397079 29.4167441,9.27097079 18.5487441,22.0589708 C17.6757441,24.6439708 16.9377441,27.3689708 16.3627441,30.2409708 C10.0467441,61.7699708 28.2827441,83.4759708 41.6417441,90.3519708 C54.6667441,97.0559708 89.0137441,102.220971 107.607744,81.6859708 C113.694744,62.1349708 108.501744,40.8259708 102.866744,31.6119708" id="Fill-115" fill="#C86D30"></path>
                <path d="M65.9447441,15.2589708 C54.4067441,21.9159708 74.1937441,51.9809708 87.3077441,45.1249708 C100.421744,38.2669708 77.4767441,8.60597079 65.9447441,15.2589708" id="Fill-116" fill="#DD854A"></path>
                <path d="M55.6187441,5.69297079 C35.4337441,5.69297079 12.7977441,20.3909708 6.94674415,49.6009708 C0.830744149,80.1339708 18.3757441,101.708971 31.6607441,108.759971 C47.9917441,117.427971 79.0987441,121.937971 97.8647441,98.8349708 C115.631744,76.9599708 109.227744,44.4579708 102.041744,32.7059708 C92.6277441,17.3119708 75.3087441,6.73497079 57.9197441,5.75797079 C57.1567441,5.71397079 56.3887441,5.69297079 55.6187441,5.69297079 Z M60.6937441,121.467971 C48.6147441,121.467971 37.1297441,118.109971 28.9917441,113.789971 C14.2007441,105.937971 -5.36225585,82.0669708 1.36474415,48.4849708 C8.07574415,14.9799708 35.0567441,-1.24102921 58.2387441,0.0739707901 C77.4387441,1.15397079 96.5387441,12.7969708 106.897744,29.7349708 C115.049744,43.0639708 122.063744,78.0709708 102.283744,102.424971 C90.8187441,116.540971 75.3217441,121.467971 60.6937441,121.467971 L60.6937441,121.467971 Z" id="Fill-142" fill="#8E3516"></path>
            </g>
        </g>
    </g>
</svg>