<?xml version="1.0" encoding="UTF-8"?>
<svg width="239px" height="434px" viewBox="0 0 239 434" version="1.1" xmlns="http://www.w3.org/2000/svg" xmlns:xlink="http://www.w3.org/1999/xlink">
    <title>Group 4</title>
    <g id="Page-1" stroke="none" stroke-width="1" fill="none" fill-rule="evenodd">
        <g id="set_of_hand_drawn_avocado_characters_holding_heart_wearing_crown_holding_love_letter_being_afraid" transform="translate(-194.000000, -511.000000)">
            <g id="Group-4" transform="translate(194.426580, 511.030452)">
                <g id="Group-107" transform="translate(30.287456, 354.995037)" fill="#222D0D">
                    <path d="M28.0859648,61.4815111 C20.9229648,59.7755111 -0.949035222,62.9085111 0.0319647779,73.2725111 C0.915964778,82.6145111 33.7779648,78.5585111 37.9319648,74.6065111 C41.8089648,70.9165111 36.6239648,63.5135111 28.0859648,61.4815111" id="Fill-104"></path>
                    <path d="M34.6619648,73.9675111 C33.4929648,73.9675111 32.3969648,73.2425111 31.9809648,72.0785111 L19.6839648,37.6475111 C19.4729648,37.0565111 19.4629648,36.4125111 19.6559648,35.8155111 L30.5869648,1.97351114 C31.0699648,0.47851114 32.6729648,-0.34648886 34.1709648,0.13951114 C35.6679648,0.62451114 36.4879648,2.22751114 36.0049648,3.72351114 L25.3709648,36.6445111 L37.3429648,70.1635111 C37.8719648,71.6435111 37.0999648,73.2725111 35.6189648,73.8005111 C35.3029648,73.9145111 34.9799648,73.9675111 34.6619648,73.9675111" id="Fill-105"></path>
                    <path d="M155.525965,61.4815111 C162.688965,59.7755111 184.560965,62.9085111 183.579965,73.2725111 C182.695965,82.6145111 149.834965,78.5585111 145.679965,74.6065111 C141.801965,70.9165111 146.986965,63.5135111 155.525965,61.4815111" id="Fill-106"></path>
                </g>
                <path d="M178.94842,428.962548 C178.63042,428.962548 178.30742,428.909548 177.99042,428.795548 C176.51042,428.267548 175.73842,426.638548 176.26742,425.158548 L188.18942,391.780548 L174.10142,358.966548 C173.48142,357.523548 174.14942,355.848548 175.59442,355.229548 C177.04242,354.608548 178.71342,355.277548 179.33342,356.721548 L193.86242,390.562548 C194.14642,391.222548 194.16942,391.964548 193.92742,392.642548 L181.62942,427.073548 C181.21342,428.237548 180.11742,428.962548 178.94842,428.962548" id="Fill-108" fill="#222D0D"></path>
                <path d="M186.23742,138.914548 C170.05742,112.815548 170.87742,57.3355479 112.93742,60.8695479 C72.9204203,63.3105479 61.2844203,122.374548 45.0634203,147.922548 C17.1974203,191.813548 -11.9145797,232.409548 11.4514203,300.037548 C37.4784203,375.370548 115.69042,377.290548 134.81342,375.633548 C160.61242,373.399548 213.77942,357.468548 230.78642,296.739548 C248.53442,233.362548 214.18642,183.997548 186.23742,138.914548" id="Fill-109" fill="#4E6725"></path>
                <path d="M113.11142,63.7095479 C85.4624203,65.3975479 72.0654203,96.1595479 60.2464203,123.298548 C51.2274203,144.005548 50.0074203,145.482548 43.6304203,155.470548 C17.2314203,196.821548 -7.70257967,235.877548 14.1424203,299.107548 C42.0404203,379.859548 130.80242,373.119548 134.56742,372.797548 C146.88342,371.730548 209.27142,363.013548 228.04542,295.972548 C244.43042,237.461548 214.83042,190.077548 188.71342,148.271548 C187.06742,145.637548 185.43242,143.018548 183.81842,140.414548 C179.51642,133.474548 176.45042,124.763548 173.20442,115.539548 C166.60542,96.7915479 159.84842,77.5965479 142.23742,68.6825479 C136.90842,65.9845479 127.92142,62.8115479 113.11142,63.7095479 Z M127.12242,378.744548 C103.31342,378.744548 33.4594203,372.454548 8.76142033,300.966548 C-13.9835797,235.136548 11.6714203,194.951548 38.8314203,152.407548 C45.1024203,142.586548 46.1714203,141.359548 55.0254203,121.027548 C66.8804203,93.8065479 81.6344203,59.9265479 112.76442,58.0295479 C126.27542,57.2015479 136.76842,59.5065479 145.08542,63.8395479 C164.62742,74.0235479 172.15242,95.4045479 178.57442,113.649548 C181.71442,122.572548 184.68042,131.000548 188.65742,137.413548 C190.26842,140.013548 191.89942,142.624548 193.54242,145.252548 C220.28342,188.059548 250.59142,236.576548 233.52742,297.505548 C213.74142,368.161548 148.03042,377.346548 135.05942,378.469548 C134.43642,378.523548 131.58742,378.744548 127.12242,378.744548 L127.12242,378.744548 Z" id="Fill-110" fill="#222D0D"></path>
                <path d="M115.49242,68.7475479 C80.4984203,70.4765479 71.9714203,119.766548 56.7534203,149.080548 C47.0684203,167.737548 -3.77457967,219.655548 21.8794203,293.094548 C47.5334203,366.533548 117.09342,366.103548 130.93842,365.540548 C153.62342,364.620548 197.48342,355.830548 217.78942,297.700548 C237.94542,239.997548 205.10642,188.342548 180.04742,147.775548 C163.02242,120.215548 161.53842,66.4745479 115.49242,68.7475479" id="Fill-111" fill="#BEC763"></path>
                <path d="M177.49742,168.372548 C161.94442,147.108548 161.98642,133.124548 152.02442,110.079548 C144.01542,91.5545479 129.44442,85.6055479 120.76442,86.0505479 C102.74242,86.9775479 90.0474203,99.6115479 82.8154203,119.025548 C75.9014203,137.585548 69.9384203,158.533548 59.0114203,173.097548 C46.4374203,189.856548 21.6594203,230.574548 34.7934203,276.773548 C47.9264203,322.973548 86.6054203,354.950548 127.65642,350.828548 C170.48042,346.531548 192.50142,328.306548 203.52642,290.387548 C214.55142,252.467548 203.20542,203.524548 177.49742,168.372548" id="Fill-112" fill="#D4D577"></path>
                <path d="M123.19542,346.967548 C99.2104203,346.967548 82.7984203,334.069548 82.0894203,333.501548 C80.1064203,331.915548 79.7844203,329.022548 81.3704203,327.038548 C82.9554203,325.059548 85.8424203,324.735548 87.8254203,326.314548 C88.0454203,326.487548 103.59042,338.557548 125.36942,337.731548 C145.67442,336.964548 157.09142,328.343548 157.20642,328.256548 C159.21042,326.712548 162.09542,327.073548 163.64942,329.072548 C165.20342,331.070548 164.85742,333.942548 162.86642,335.504548 C162.31842,335.935548 149.18842,346.035548 125.71742,346.920548 C124.86842,346.953548 124.02542,346.967548 123.19542,346.967548" id="Fill-117" fill="#E6E790"></path>
                <path d="M137.73142,96.8645479 C136.39242,96.8645479 135.06442,96.2825479 134.15542,95.1605479 C134.10242,95.0965479 127.86542,87.5965479 120.47142,87.3065479 C113.02042,87.0085479 105.66542,94.0755479 105.59342,94.1475479 C103.78842,95.9325479 100.87542,95.9145479 99.0904203,94.1095479 C97.3054203,92.3035479 97.3224203,89.3915479 99.1284203,87.6065479 C99.5394203,87.2005479 109.33242,77.6825479 120.83242,78.1175479 C132.42642,78.5735479 140.94542,88.9325479 141.30242,89.3725479 C142.90042,91.3465479 142.59642,94.2425479 140.62342,95.8395479 C139.77142,96.5295479 138.74842,96.8645479 137.73142,96.8645479" id="Fill-118" fill="#E6E790"></path>
                <polyline id="Fill-119" fill="#251326" points="128.53442 368.450548 128.53842 368.452548 128.53442 368.450548"></polyline>
                <path d="M151.05642,147.673548 C145.82042,137.485548 128.92642,135.632548 117.69042,135.632548 C106.45542,135.632548 89.5604203,137.485548 84.3244203,147.673548 C79.0884203,157.862548 85.7424203,167.389548 92.1794203,167.389548 C98.6164203,167.389548 107.98142,157.994548 117.69042,157.994548 C127.39942,157.994548 136.76542,167.389548 143.20142,167.389548 C149.63742,167.389548 156.29242,157.863548 151.05642,147.673548" id="Fill-120" fill="#E8325F"></path>
                <path d="M117.69042,157.994548 C123.24042,157.994548 128.67642,161.063548 133.51842,163.693548 C131.67842,155.236548 127.35842,144.515548 117.25142,144.515548 C106.56742,144.515548 102.34842,156.033548 100.69242,164.324548 C105.82142,161.581548 111.68942,157.994548 117.69042,157.994548" id="Fill-121" fill="#FF5F8D"></path>
                <path d="M117.69042,155.149548 C123.76642,155.149548 129.39442,158.209548 134.35942,160.911548 C137.79342,162.779548 141.03842,164.543548 143.20142,164.543548 C145.07342,164.543548 147.16142,163.104548 148.52142,160.876548 C149.52042,159.240548 151.52042,154.805548 148.52442,148.976548 C143.83142,139.843548 127.19142,138.480548 117.69042,138.480548 C108.18942,138.480548 91.5494203,139.842548 86.8564203,148.976548 C83.8604203,154.805548 85.8604203,159.240548 86.8594203,160.876548 C88.2194203,163.104548 90.3074203,164.543548 92.1794203,164.543548 C94.3434203,164.543548 97.5874203,162.779548 101.02142,160.911548 C105.98542,158.209548 111.61442,155.149548 117.69042,155.149548 Z M143.20142,170.237548 C139.58842,170.237548 135.72742,168.136548 131.63842,165.912548 C127.26942,163.536548 122.31742,160.842548 117.68942,160.842548 C113.06142,160.842548 108.10942,163.536548 103.74042,165.912548 C99.6524203,168.137548 95.7914203,170.237548 92.1784203,170.237548 C88.3074203,170.237548 84.4064203,167.786548 81.9994203,163.842548 C78.8764203,158.727548 78.7994203,152.197548 81.7924203,146.372548 C87.5634203,135.144548 104.49942,132.786548 117.69042,132.786548 C130.88142,132.786548 147.81642,135.143548 153.58842,146.372548 C156.58142,152.196548 156.50342,158.727548 153.38142,163.842548 C150.97342,167.786548 147.07242,170.237548 143.20142,170.237548 L143.20142,170.237548 Z" id="Fill-122" fill="#222D0D"></path>
                <path d="M104.16742,177.458548 C103.33042,177.458548 102.49942,177.090548 101.93842,176.384548 C100.96142,175.157548 101.15942,173.372548 102.38442,172.393548 C102.66742,172.165548 109.40742,166.851548 117.68942,166.851548 C125.84442,166.851548 133.39742,171.884548 133.71542,172.099548 C135.01842,172.979548 135.36242,174.747548 134.48242,176.050548 C133.60242,177.354548 131.83342,177.697548 130.53042,176.818548 C130.47042,176.778548 124.07642,172.543548 117.68942,172.543548 C111.44242,172.543548 105.98942,176.799548 105.93542,176.842548 C105.41342,177.257548 104.78842,177.458548 104.16742,177.458548" id="Fill-123" fill="#BEC763"></path>
                <path d="M146.02042,100.503548 C153.41042,99.5945479 160.13842,104.847548 161.04742,112.237548 C161.95742,119.625548 156.70542,126.354548 149.31542,127.263548 C141.92542,128.173548 135.19842,122.920548 134.28842,115.531548 C133.37842,108.142548 138.63042,101.413548 146.02042,100.503548" id="Fill-124" fill="#222D0D"></path>
                <path d="M156.46442,110.440548 C156.46442,108.454548 154.85542,106.846548 152.86942,106.846548 C150.88342,106.846548 149.27442,108.454548 149.27442,110.440548 C149.27442,112.424548 150.88342,114.035548 152.86942,114.035548 C154.85542,114.035548 156.46442,112.424548 156.46442,110.440548" id="Fill-125" fill="#FFFFFF"></path>
                <path d="M140.72742,115.087548 C139.63242,112.678548 138.01142,111.058548 137.10842,111.467548 C136.20542,111.878548 136.36042,114.164548 137.45642,116.575548 C138.55042,118.985548 140.17142,120.605548 141.07542,120.195548 C141.97742,119.784548 141.82242,117.497548 140.72742,115.087548" id="Fill-126" fill="#FFFFFF"></path>
                <path d="M105.47042,113.890548 C105.47042,106.445548 99.4344203,100.409548 91.9894203,100.409548 C84.5444203,100.409548 78.5084203,106.445548 78.5084203,113.890548 C78.5084203,121.334548 84.5444203,127.370548 91.9894203,127.370548 C99.4354203,127.370548 105.47042,121.334548 105.47042,113.890548" id="Fill-127" fill="#222D0D"></path>
                <path d="M100.78642,110.440548 C100.78642,108.454548 99.1774203,106.846548 97.1914203,106.846548 C95.2064203,106.846548 93.5964203,108.454548 93.5964203,110.440548 C93.5964203,112.424548 95.2064203,114.035548 97.1914203,114.035548 C99.1774203,114.034548 100.78642,112.424548 100.78642,110.440548" id="Fill-128" fill="#FFFFFF"></path>
                <path d="M85.0494203,115.087548 C83.9554203,112.678548 82.3334203,111.058548 81.4304203,111.467548 C80.5264203,111.878548 80.6824203,114.164548 81.7774203,116.575548 C82.8724203,118.985548 84.4934203,120.605548 85.3974203,120.195548 C86.2994203,119.784548 86.1444203,117.497548 85.0494203,115.087548" id="Fill-129" fill="#FFFFFF"></path>
                <path d="M48.9324203,243.692548 C48.4824203,243.692548 48.0294203,243.675548 47.5704203,243.643548 C17.8144203,241.518548 12.7254203,203.503548 12.6764203,203.119548 C12.4814203,201.560548 13.5884203,200.138548 15.1484203,199.943548 C16.7234203,199.745548 18.1314203,200.855548 18.3264203,202.414548 C18.3684203,202.749548 22.8944203,236.171548 47.9764203,237.964548 C63.8014203,239.079548 75.3484203,210.269548 78.4584203,199.066548 C78.8784203,197.550548 80.4444203,196.665548 81.9624203,197.082548 C83.4774203,197.502548 84.3644203,199.071548 83.9454203,200.585548 C83.4484203,202.377548 71.7404203,243.692548 48.9324203,243.692548" id="Fill-130" fill="#222D0D"></path>
                <path d="M160.70642,202.727548 C160.70642,202.727548 162.80542,186.983548 159.65642,179.985548 C156.50742,172.988548 145.52942,173.667548 143.91342,179.634548 C141.68742,187.845548 155.10842,203.425548 155.10842,203.425548 L160.70642,202.727548" id="Fill-131" fill="#222D0D"></path>
                <path d="M77.4824203,203.595548 C77.4824203,203.595548 74.5334203,187.744548 77.6824203,180.746548 C80.8314203,173.749548 91.8094203,174.431548 93.4264203,180.397548 C95.6514203,188.607548 82.2304203,204.188548 82.2304203,204.188548 L77.4824203,203.595548" id="Fill-132" fill="#222D0D"></path>
                <path d="M192.12242,243.703548 C191.50042,243.703548 190.87242,243.684548 190.22842,243.645548 C166.83142,242.246548 154.96042,202.797548 154.46542,201.119548 C154.02142,199.612548 154.88442,198.030548 156.39142,197.585548 C157.90142,197.143548 159.48242,198.003548 159.92642,199.510548 C160.03642,199.884548 171.14942,236.801548 190.56742,237.962548 C215.60842,239.422548 219.53642,203.822548 219.57342,203.461548 C219.73142,201.897548 221.12042,200.755548 222.69242,200.916548 C224.25642,201.075548 225.39642,202.472548 225.23742,204.036548 C223.82342,217.994548 215.07642,243.703548 192.12242,243.703548" id="Fill-133" fill="#222D0D"></path>
                <path d="M173.07942,107.236548 C173.07942,107.236548 148.28242,163.504548 176.34142,166.693548 C204.40042,169.880548 173.07942,107.236548 173.07942,107.236548" id="Fill-134" fill="#2398D8"></path>
                <path d="M173.47642,114.176548 C168.61542,127.779548 162.04542,151.681548 168.24742,160.537548 C169.91442,162.918548 172.51842,164.006548 176.22442,163.848548 C180.05542,163.691548 182.60942,162.386548 184.03242,159.858548 C189.30442,150.491548 179.92742,127.257548 173.47642,114.176548 Z M175.57142,169.555548 C169.01842,169.555548 165.44342,166.462548 163.58142,163.801548 C153.25842,149.053548 168.65542,110.499548 170.44542,106.152548 C170.86242,105.140548 171.82342,104.455548 172.91642,104.394548 C173.99842,104.324548 175.04142,104.902548 175.57042,105.861548 C177.87242,110.027548 197.79042,147.023548 188.99342,162.652548 C187.31942,165.625548 183.78542,169.236548 176.45842,169.536548 C176.15742,169.548548 175.86142,169.555548 175.57142,169.555548 L175.57142,169.555548 Z" id="Fill-135" fill="#2C6AAF"></path>
                <path d="M173.86642,124.321548 C173.86642,124.321548 163.57042,152.268548 173.86642,151.286548 C186.22342,150.110548 173.86642,124.321548 173.86642,124.321548" id="Fill-136" fill="#3BE3EC"></path>
                <path d="M63.9084203,67.8775479 C63.2404203,67.8775479 62.5694203,67.6455479 62.0294203,67.1685479 L38.1124203,46.1215479 C36.9324203,45.0825479 36.8174203,43.2845479 37.8554203,42.1055479 C38.8934203,40.9235479 40.6924203,40.8085479 41.8724203,41.8485479 L65.7894203,62.8955479 C66.9694203,63.9345479 67.0854203,65.7335479 66.0464203,66.9115479 C65.4844203,67.5505479 64.6984203,67.8775479 63.9084203,67.8775479" id="Fill-137" fill="#D38700"></path>
                <path d="M88.7864203,46.8305479 C87.7944203,46.8305479 86.8314203,46.3135479 86.3064203,45.3885479 L70.0434203,16.6885479 C69.2674203,15.3205479 69.7484203,13.5825479 71.1164203,12.8085479 C72.4834203,12.0335479 74.2214203,12.5125479 74.9974203,13.8805479 L91.2604203,42.5805479 C92.0354203,43.9495479 91.5544203,45.6865479 90.1864203,46.4605479 C89.7434203,46.7115479 89.2614203,46.8305479 88.7864203,46.8305479" id="Fill-138" fill="#D38700"></path>
                <path d="M175.84042,67.8775479 C175.05042,67.8775479 174.26442,67.5505479 173.70242,66.9115479 C172.66442,65.7325479 172.77842,63.9335479 173.95942,62.8955479 L197.87642,41.8485479 C199.05542,40.8085479 200.85442,40.9235479 201.89342,42.1055479 C202.93242,43.2855479 202.81742,45.0835479 201.63642,46.1215479 L177.71942,67.1685479 C177.17942,67.6455479 176.50842,67.8775479 175.84042,67.8775479" id="Fill-139" fill="#D38700"></path>
                <path d="M150.96342,46.8305479 C150.48842,46.8305479 150.00642,46.7115479 149.56342,46.4605479 C148.19542,45.6865479 147.71542,43.9495479 148.48942,42.5805479 L164.75242,13.8805479 C165.52842,12.5125479 167.26442,12.0335479 168.63242,12.8085479 C170.00042,13.5825479 170.48042,15.3205479 169.70642,16.6885479 L153.44342,45.3885479 C152.91842,46.3135479 151.95642,46.8305479 150.96342,46.8305479" id="Fill-140" fill="#D38700"></path>
                <path d="M117.48142,40.1345479 C115.94542,40.1345479 114.68042,38.9115479 114.63742,37.3675479 L113.68042,2.92654795 C113.63642,1.35654795 114.87542,0.045547948 116.44742,0.00254794795 C118.00542,-0.064452052 119.32942,1.19854795 119.37242,2.77054795 L120.32942,37.2095479 C120.37242,38.7815479 119.13342,40.0905479 117.56142,40.1335479 L117.48142,40.1345479" id="Fill-141" fill="#D38700"></path>
                <path d="M126.02442,330.120548 C113.94542,330.120548 102.46042,326.762548 94.3224203,322.442548 C79.5314203,314.590548 59.9684203,290.719548 66.6954203,257.137548 C73.4064203,223.632548 100.38742,207.411548 123.56942,208.726548 C142.76942,209.806548 161.86942,221.449548 172.22842,238.387548 C180.38042,251.716548 187.39442,286.723548 167.61442,311.077548 C156.14942,325.193548 140.65242,330.120548 126.02442,330.120548 L126.02442,330.120548 Z" id="Fill-142" fill="#9FAD1E"></path>
            </g>
        </g>
    </g>
</svg>