<svg width="518" height="481" xmlns="http://www.w3.org/2000/svg"><title>Group 4</title><g fill="none" fill-rule="evenodd"><path d="M67.508 96.94C10.961 160.73-6.937 257.25 22.971 337.1 52.736 416.57 127.97 470.98 219.32 479.13c13.11 1.16 26.05 1.76 38.47 1.76h.01c53.33 0 99.99-10.75 138.68-31.95 109.47-59.97 151.48-194.06 97.73-311.9C457.49 56.52 376.2 8.45 276.77 8.45c-81.89 0-160.12 33.08-209.262 88.49" fill-opacity=".2" fill="#000"/><path d="M486.21 129.03C449.48 48.51 368.2.44 268.77.44c-81.9 0-160.13 33.08-209.266 88.49-56.547 63.8-74.445 160.31-44.537 240.16C44.732 408.56 119.96 462.98 211.31 471.12c13.11 1.17 26.05 1.76 38.48 1.76h.01c53.33 0 99.99-10.75 138.67-31.95 109.47-59.97 151.49-194.06 97.74-311.9" fill="#FFFFFE"/><path d="M457.09 142.31C392-.41 177.98 3.55 83.44 110.16c-49.069 55.36-64.405 138.6-38.524 207.7C71.69 389.34 139.87 432.63 214.15 439.24c62.99 5.62 116.74-3.25 158.95-26.37 95.78-52.48 130.76-168.02 83.99-270.56" fill="#0F1F25"/><path d="m146.1 230.7-.03.5c-.18 3.1 5 3.1 4.81 0-.01-.17-.02-.33-.02-.5-.19-3.06-4.58-3.06-4.76 0ZM415.79 163c.8.7 1.86-.36 1.16-1.16-.17-.2-.35-.39-.52-.6-.75-.85-2.09.49-1.24 1.24.2.18.4.35.6.52ZM227.14 393.67c-2.82 0-2.82 4.38 0 4.38s2.82-4.38 0-4.38Zm121.67-191.72c2.9 0 2.9-4.5 0-4.5s-2.9 4.5 0 4.5Zm22.52-13.04c.1-.01.2-.03.3-.04 1.17-.17 1.17-2.19 0-2.35-.1-.02-.2-.03-.3-.04-2.04-.29-2.04 2.72 0 2.43Zm31.83 16.83c2.62 0 2.62-4.06 0-4.06s-2.62 4.06 0 4.06Zm8.15-1.7c3.02 0 3.02-4.69 0-4.69s-3.02 4.69 0 4.69Zm-72.5 173.5c-3.43 0-3.43 5.31 0 5.31 3.42 0 3.42-5.31 0-5.31Zm-124.35 1.32c-2.58 0-2.58 4 0 4s2.58-4 0-4Zm59.85-289.57c2.7 0 2.7-4.19 0-4.19s-2.7 4.19 0 4.19Zm93.31 24.31c2.06 0 2.06-3.19 0-3.19s-2.06 3.19 0 3.19Zm-3.12 10.13c-.02-.11-.05-.22-.07-.33-.32-1.7-2.76-1.48-3.21 0-.03.11-.07.22-.1.33-.8 2.63 3.95 3 3.38 0Zm-12.69-3.22c4.92 0 4.92-7.63 0-7.63s-4.92 7.63 0 7.63Zm-95 270.12c-1.37 0-1.37 2.13 0 2.13s1.37-2.13 0-2.13Zm-6-12.53c-2.7 0-2.7 4.19 0 4.19s2.7-4.19 0-4.19Zm137.2-196.82c.11.04.21.09.32.13 1.83.73 2.14-3.01 0-2.39l-.32.09c-1.15.33-.98 1.77 0 2.17Zm-4.7 5.79c2.42 0 2.42-3.75 0-3.75s-2.42 3.75 0 3.75Zm-5.02-5.77c4.63 0 4.63-7.18 0-7.18s-4.63 7.18 0 7.18Zm-66.48-47.95c.12 0 .23-.01.35-.01 2.16-.04 2.03-3.01 0-3.26-.12-.01-.23-.03-.35-.04-2.08-.26-2.18 3.35 0 3.31Zm-.76 5.24c-.02.08-.05.16-.07.24-.64 2.21 3.3 2.21 2.65 0l-.06-.24c-.37-1.24-2.16-1.24-2.52 0Zm-8.42.11c4.29 0 4.29-6.65 0-6.65-4.28 0-4.28 6.65 0 6.65ZM88.52 275.94c-.11-.03-.22-.06-.32-.1-.45-.14-1.02.16-1.11.63-.09.43-.03.66.21 1.02.18.3.68.44.93.12.04-.05.35-.19.47-.24.67-.28.39-1.25-.18-1.43Zm3.04 5.51h-.25c-2.26 0-2.26 3.5 0 3.5h.25c2.26 0 2.26-3.5 0-3.5Zm3.25-10.91c-3.43 0-3.43 5.31 0 5.31 3.42 0 3.42-5.31 0-5.31Zm-20.15-20.52c-.12 0-.23-.01-.35-.01-4.11-.22-4.09 6.15 0 6.37.12.01.23.01.35.02 4.11.22 4.09-6.16 0-6.38Zm92.32-108.07c6.32 0 6.32-9.81 0-9.81-6.33 0-6.33 9.81 0 9.81Zm-67.54 74.38c2.92 0 2.92-4.53 0-4.53-2.93 0-2.93 4.53 0 4.53Zm8.5.06c3.62 0 3.62-5.62 0-5.62-3.63 0-3.63 5.62 0 5.62Zm-5.63 6.27c-6.49 0-6.49 10.07 0 10.07s6.49-10.07 0-10.07Zm183.5 124.54c-3.22 0-3.22 5 0 5s3.22-5 0-5Zm11.5 3.4c-6.57 0-6.57 10.19 0 10.19s6.57-10.19 0-10.19Zm47.52-.65c-.13.04-.26.09-.39.14-1.58.57-1.58 2.64 0 3.21.13.04.26.09.39.14 2.9 1.06 2.9-4.55 0-3.49Zm14.98-6.91c-6.65 0-6.65 10.31 0 10.31s6.65-10.31 0-10.31Zm11.37-117.74c2.91 0 2.91-4.51 0-4.51s-2.91 4.51 0 4.51Zm-8.39-1.05c2.8 0 2.8-4.34 0-4.34s-2.8 4.34 0 4.34Zm7.62 8.06c-2.98-1.75-6.73-.65-8.52 2.23-.07.12-.14.23-.21.34-1.8 2.92-.64 6.92 2.27 8.62 3.31 1.95 8.45.27 9.25-3.77.03-.13.05-.26.08-.39.55-2.77-.33-5.54-2.87-7.03Zm21.61 57.77c-.04.05-.07.1-.1.15-.56.94-.29 2.53.79 3.02.52.23 1.02.43 1.6.25.27-.09.54-.2.78-.34 3.18-1.91-1.17-6.26-3.07-3.08Zm-.98-3.01c1.93-.94 1.62-3.69 0-4.72-.09-.05-.18-.11-.26-.17-1.89-1.18-4.38.37-4.38 2.52 0 2.32 2.44 3.46 4.38 2.5.08-.04.17-.08.26-.13Zm-7.71 4.66c-3.6 0-6.59 3-6.59 6.59s2.99 6.59 6.59 6.59c3.59 0 6.59-3 6.59-6.59s-3-6.59-6.59-6.59Zm-175.89 56.16c-.56-1.71-3.08-2.3-4.01-.53l-.09.18c-2.13 4.04 5.45 4.44 4.17.55-.02-.07-.05-.14-.07-.2Zm-8.63-.16c-2.54 0-2.54 3.93 0 3.93s2.54-3.93 0-3.93Zm5.5-16.69c-6.01 0-6.01 9.31 0 9.31 6 0 6-9.31 0-9.31Zm-32.75-63.38c2.54 0 2.54-3.93 0-3.93h-.25c-2.54 0-2.54 3.93 0 3.93h.25Zm9.37 1.45c2.94-1.63.5-6.16-2.42-4.46-2.74 1.61-.34 5.99 2.42 4.46Zm-6.12 14.55c6.4 0 6.4-9.93 0-9.93-6.41 0-6.41 9.93 0 9.93Zm47-148.18c2.94 0 2.94-4.57 0-4.57s-2.94 4.57 0 4.57Zm-3.32-8.82c.08-.02.15-.04.23-.07 2.38-.71 2.38-4.08 0-4.8-.08-.02-.15-.04-.23-.07-4.12-1.24-4.12 6.19 0 4.94Zm-10.18 18.04c3.82 0 7-3.19 7-7 0-3.82-3.18-7-7-7s-7 3.18-7 7c0 3.81 3.18 7 7 7Zm213.42 84.19c.17-1.52.25-3.05.25-4.57 0-.79-.03-1.55-.08-2.28 0-.63-.09-1.1-.26-1.45-.05-.11-.16-.25-.34-.42l-.25-.17-.34-.5-.08-.26c-.11-.17-.2-.25-.25-.25l-.26-.17-.42-.25-.43-.43-.42-.51c-.28-.39-.56-.59-.84-.59h-.26l-.08-.08-.17-.08c-.06-.06-.12-.09-.17-.09-.12 0-.23.03-.34.09l-.42.16h-1.69l-.77-.08-1.27-.08c-.56 0-.98.02-1.27.08-.39.06-.78.08-1.18.08-.34 0-.65-.02-.93-.08-.51-.06-1.05-.12-1.61-.17l-.93-.09c-.79 0-1.38.12-1.78.34l-.59.34-.42.34c-.06.05-.11.12-.17.17l-.34.17c-.28.17-.45.28-.51.34v.08c-.56.11-.87.34-.93.68 0 .22-.03.36-.08.42-.06.06-.09.17-.09.34 0 .23.03.37.09.42 0 .06.03.09.08.09v.84c-.05.06-.08.18-.08.34v.43l-.09.5v.76c-.05 0-.08.04-.08.09-.12.34-.17.84-.17 1.52v.17c-.06.06-.09.2-.09.42 0 .23.03.38.09.43v1.02l-.09.25c0 .22.03.39.09.5v.6c0 .22.03.4.08.5v.68c0 .06.03.11.09.17v.34l.08.17v.25c0 .23.03.37.09.43l.08.42v.51l.09.34c0 .11.02.19.08.25v.09c.11.61.26 1.07.42 1.35v.08l.09.51v.09l.08.42c.06.45.09.96.09 1.52s-.03 1.19-.09 1.86l-.08 1.7-.09 1.86c0 .11.06.2.17.25l.09.09.08.16c-.06.79-.11 1.7-.17 2.71v2.63c0 2.09-.11 3.77-.33 5.07v.68c-.06 0-.09.05-.09.17l-.09.34c0 .11-.02.25-.08.42v1.86c-.06 0-.08.03-.08.08-.06.06-.09.23-.09.51v.77c-.11.11-.17.25-.17.42 0 .23.03.37.09.42v.34c0 .12-.03.26-.09.42v1.7l.09.25v.25c0 .23.03.4.08.51v.51l.09.51v.25l.08.51c0 .17.03.28.08.34v1.69l-.08 1.52c-.06 1.3-.08 2.32-.08 3.05v.25h-.09v.34c-.05.06-.08.2-.08.43v.67c-.17.91-.26 1.84-.26 2.8 0 .45.03.9.09 1.35v1.94c-.06.06-.09.18-.09.34v.51l-.08.26v.59c.05 0 .08-.06.08-.17.06.11.09.31.09.59v1.02c0 .11.03.17.08.17v.67c0 .17.03.29.09.34v.59c0 .17.03.31.08.43 0 .06.03.14.09.25v.25h.08v.59l.08.51v.51l-.08 1.61v.09c-.06.05-.11.19-.17.42l-.08.51v.42c-.06 0-.09.08-.09.25v.25c-.11.06-.17.2-.17.43l-.08.25v.25c-.12.18-.17.43-.17.77l-.09.25c-.11.63-.25 1.52-.42 2.71-.11.17-.17.48-.17.93l-.08.34-.09.42c-.05.34-.11.6-.17.76l-.08.18v.67l-.08.34.08.34c0 .22-.03.4-.08.51v.59c0 .05.02.11.08.17l-.08.59v1.95c-.06 0-.09.08-.09.25v.34c-.17.96-.25 1.92-.25 2.87v1.7c-.06 0-.09.05-.09.17v.25c-.05.17-.08.4-.08.68v1.44l-.09.25c0 .17.03.28.09.34v1.52l-.09.68v1.18h.09c0 .34.05.68.17 1.02v.08c-.06.12-.09.28-.09.51 0 .23.03.4.09.51v.59l-.09 1.35v.18c-.11.05-.17.22-.17.5v.85c-.11.22-.17.54-.17.93v.93l.09.08v.85c0 .17.02.43.08.76l.09.42v.85c0 .23.05.37.17.43l.08.51c.06.16.11.3.17.42v.08c.39.45.85.68 1.35.68h.09c.17.22.59.34 1.27.34l.51.16.5.09h.34c.11.06.2.09.26.09 0 .05.02.08.08.08.17.11.39.2.68.25h.17l.08.09c.06.06.2.08.42.08h.17l.26.09.59.17.59.25c.51.23.93.37 1.27.42.23.06.45.09.68.09.17 0 .34-.03.51-.09.28-.05.47-.14.59-.25.17-.11.39-.17.68-.17.16 0 .36.03.59.09l.25.08h.25l.43.17c.17.11.42.2.76.25h.08c.28.34.85.54 1.7.59h.33c.12 0 .18-.05.18-.16.16 0 .33-.12.5-.34.11-.12.17-.26.17-.43v-.08c.06-.51.12-.85.17-1.01.06 0 .09-.06.09-.17l.08-.18v-.08c.11-.17.17-.42.17-.76.05-.17.09-.31.09-.42 0-.17-.04-.28-.09-.34v-.68c.05 0 .09-.08.09-.26v-.25l.08-.17c.05-.11.08-.25.08-.42l.09-.51c.05-.05.08-.17.08-.33v-.18l.09-.25.08-.59.09-.59.08-.26.09-.08c.05-.06.08-.17.08-.34v-.68l.09-.08c.05-.05.08-.11.08-.17 0-.06-.03-.11-.08-.17.11-.06.16-.14.16-.25v-.43l.09-.25v-.25c.05-.06.09-.2.09-.43v-.25l.08-.25c.05-.12.08-.32.08-.6.06-.17.09-.28.09-.34 0-.11-.03-.2-.09-.25v-.17c.06-.06.12-.23.17-.51v-.25c0-.11-.03-.23-.08-.34v-.17c.11-.05.17-.17.17-.34v-.42c.05-.06.08-.17.08-.34 0-.23-.03-.34-.08-.34l.08-.17c0-.11-.03-.17-.08-.17v-.5c.05-.12.11-.31.17-.6 0-.28-.03-.48-.09-.59 0-.11-.03-.17-.08-.17l.08-.59c.06-.06.09-.2.09-.42 0-.29-.03-.45-.09-.51.06-.06.09-.11.09-.17h-.09c-.06-.06-.08-.14-.08-.25v-.43c.05 0 .08-.11.08-.34.06-.11.09-.2.09-.25 0-.11-.03-.17-.09-.17 0-.11-.03-.17-.08-.17v-.17l-.09-.17c.06-.05.11-.19.17-.42 0-.22-.03-.37-.08-.42 0-.23-.03-.46-.09-.68v-.17l.09-.25c0-.11-.03-.2-.09-.25v-.51l.09-.17c0-.06-.03-.09-.09-.09l-.08-.25v-.34c.05-.06.08-.14.08-.25v-.26c0-.22-.03-.37-.08-.42-.06-.06-.09-.2-.09-.43v-.33l.09-.34c0-.28-.03-.48-.09-.59v-.35l.09-.16c0-.06-.03-.09-.09-.09v-.76c.06-.11.12-.28.17-.51 0-.28-.03-.44-.08-.51v-.08c0-.17.03-.45.08-.85 0-.39-.03-.7-.08-.93v-.08c.05 0 .08-.03.08-.08.11-.96.2-2.09.26-3.39l.08-1.61.08-1.52v-.59c.06-.23.09-.54.09-.93v-1.1c.05-.96.11-1.66.17-2.12v-.17c.11-.05.17-.23.17-.51v-.59c.05-.22.11-.56.17-1.02l.08-.5.09-.51v-.08c.05-.17.11-.48.17-.94v-.08c.17-.34.25-.9.25-1.69l.08-.51c0-.17.03-.31.09-.42.11-.45.2-1.16.25-2.12v-.08c.06-.17.09-.43.09-.76v-1.02l.08-1.95.25-3.3.26-3.29c.06-1.7.08-3.19.08-4.49v-1.87l-.5-5.16-.43-5.16c-.17-3.16-.25-6.04-.25-8.63v-1.86c.06-1.01.22-2.31.51-3.89l.42-1.95c.11-.73.2-1.41.25-2.03l.09-.34v-.34c.06-.17.08-.28.08-.34 0-.11-.02-.16-.08-.16v-.09Zm-4.91 120.08-.34-.51c-.17-.23-.25-.48-.25-.76 0-.17.03-.34.08-.51.06-.17.17-.34.34-.51l.34-.5c.22-.29.34-.54.34-.77 0-.22-.12-.39-.34-.5-.11-.12-.31-.23-.59-.34l-.34-.09-.26-.08h-.33l-.34-.09-.42-.17-.43-.08c-.33-.11-.67-.2-1.01-.26h-.34l-.51-.08-.42-.08-.93-.09-.77-.08-.76-.17-2.54-.34c-.84-.05-1.55-.14-2.11-.25l-1.61-.26-.93-.08c-.79-.12-1.38-.2-1.78-.25h-1.52l-.42-.09h-.43l-.5.09c-.34.16-.51.42-.51.76.79.84 1.21 2 1.27 3.46l.08 1.45v1.51l.17 1.45.09 1.44c-.06.28-.14.67-.26 1.18l-.25 1.18v.34c0 .68.28 1.22.85 1.61l.16.09.17.08c.4.17.88.28 1.44.34h.09c.17.05.59.11 1.27.17l.5.08.51.08.34.09h.26l.08.09c.17 0 .39.02.68.08h.16l.17.09h.34l.42.08 1.27.25 1.27.18 1.19.16h.51c.33.06.76.12 1.26.17l.6.09.42.08.68.17.76.08c.34.06.62.09.85.09.28 0 .53-.03.76-.09 1.18-.22 1.77-1.01 1.77-2.36v-.34l-.08-.68-.08-.76v-.6c0-.33.02-.64.08-.92l.26-.94.16-.93c.06-.22.09-.45.09-.67 0-.46-.09-.88-.25-1.27l-.43-.51Zm-26.63-20.2v-.09c0-.05-.06-.14-.17-.25l-.26-.17-.84-.76-.85-.59c-.73-.46-1.27-.91-1.61-1.36-1.01-1.18-2.06-2.67-3.13-4.48l-1.27-2.37-1.35-2.37v-.09c-.45-.73-1.16-1.58-2.12-2.54l-2.54-2.36-.67-.77v-.08l-.34-.34c-.11-.11-.23-.17-.34-.17v-.08c-.34-.35-.62-.57-.84-.68l-.26-.17-.17-.17c-.28-.28-.54-.45-.76-.5h-.08c-.12-.18-.26-.26-.43-.26l-.42-.34-.51-.34-.08-.08-.09-.17a.628.628 0 0 0-.25-.09l-.09-.08c-.22-.11-.51-.37-.84-.76l-.34-.42-.42-.34c-.12-.06-.17-.12-.17-.17l-1.19-1.19c-.45-.45-.9-.82-1.35-1.1l-.09-.08c-.05-.12-.14-.23-.25-.34l-.34-.34h-.09c0-.05-.02-.14-.08-.26-.06-.05-.11-.08-.17-.08h-.08l-.34-.34.08-.08h-.08l-.17-.17c0-.06-.06-.14-.17-.26l-.08-.08-.17-.17-.09-.08v-.09c0-.11-.03-.19-.08-.25-.06-.12-.14-.17-.26-.17l-.08-.09-.08-.16v-.09l-.09-.08h-.08v-.09h-.09v-.08c0-.06-.03-.09-.08-.09l-.09-.08v-.09a.55.55 0 0 0-.25-.25c0-.06-.03-.14-.09-.26a.755.755 0 0 0-.25-.08v-.08l-.09-.09.09-.09h-.09c0-.05-.02-.14-.08-.25-.12-.05-.2-.08-.25-.08l-.09-.09-.08-.08 2.37-2.2 2.36-2.2v-.09c.85-.79 1.78-1.91 2.8-3.38l1.35-1.86 1.27-1.87.85-1.09.08-.09.34-.42c.17-.17.26-.31.26-.43l.08-.08c.34-.56.59-.99.76-1.27l.09-.25.25-.34c.34-.39.51-.73.51-1.02l.08-.08c.17-.22.26-.43.26-.59l.42-.68.25-.59.09-.09.25-.25c.06-.11.08-.2.08-.26v-.08l.09-.08c.11-.29.39-.68.85-1.19l.51-.59.33-.6c.12-.16.2-.28.26-.33l.68-.85.67-.84c.51-.73.96-1.39 1.35-1.95l-.08-.09.08-.08c.12-.06.26-.2.43-.42.17-.23.28-.4.33-.51h.09c.06 0 .14-.09.25-.26.06-.05.09-.14.09-.25v-.08l.34-.43h.08l.09-.08.08-.08.09-.09c.11-.06.22-.17.34-.34l.08-.17.17-.17c.05-.11.14-.16.25-.16.06 0 .14-.06.26-.18.11-.11.17-.22.17-.33l.08-.17.17-.09c.05 0 .11-.05.17-.17l.08-.08.09-.09.08-.08h.09l.08-.09.09-.17.08-.08c.11-.06.2-.14.26-.26.11-.05.22-.14.33-.25.06-.11.09-.2.09-.25l.08-.09.09-.08h.08l.09-.08c.05 0 .11-.06.16-.18.06-.05.09-.1.09-.16v-.09l.17-.17c.05-.05.11-.08.17-.08.06 0 .11-.03.17-.09.05 0 .14-.05.25-.17.06-.11.09-.2.09-.25v-.09l.25-.33h.08c.12-.06.23-.17.34-.34.12-.17.17-.28.17-.34l.26-.34h.08l.09-.08c.05 0 .13-.06.25-.17.06-.12.08-.2.08-.26l.17-.25c.06-.06.09-.14.09-.25l.08-.09c.12 0 .2-.09.26-.25.05-.12.08-.2.08-.26v-.08l.09-.17c.11 0 .22-.08.34-.26.11-.16.16-.28.16-.33l.17-.34c.11-.11.17-.2.17-.26l.09-.17v-.16l.17-.17c.05-.06.08-.12.08-.18v-.08l.09-.17.08-.17.08-.08.17-.17c.06-.11.09-.2.09-.25v-.17l.08-.08.26-.43.16-.34.18-.25.08-.09c0-.05-.03-.11-.08-.17l.16-.25.17-.34.17-.25c.06-.06.09-.12.09-.17l.08-.17.17-.17c.11-.05.23-.2.34-.42.17-.17.25-.34.25-.51l.09-.17.08-.09h-.08c0-.17.11-.39.34-.67.05-.06.08-.2.08-.43 0-.16-.06-.3-.17-.42 0-.06-.03-.11-.08-.16l-.26-.26c-.67-.45-1.18-.68-1.52-.68l-.09-.08c-.22-.12-.42-.2-.59-.26l-.42-.17-.42-.25c-.46-.23-.74-.51-.85-.84-.06-.12-.17-.26-.34-.43-.22-.28-.5-.53-.84-.76l-2.2-1.02-.17-.08-.17-.17c-.17-.11-.28-.17-.34-.17h-.08l-.17-.08c-.23-.17-.43-.26-.6-.26 0-.05-.02-.08-.08-.08v.08c-.06-.05-.14-.11-.26-.17h-.08l-.17-.17-.42-.25-.42-.26c-.51-.33-.88-.5-1.11-.5v-.09c-.39-.28-.84-.42-1.35-.42v.08h-.08a.82.82 0 0 0-.34.09l-.26.17c-.11 0-.2.03-.25.08l-.17.17-.08.09-.26.25-.17.17c-.22.12-.36.23-.42.34-.06 0-.14.06-.25.17l-.09.17-.08.08h-.09c-.11.11-.25.29-.42.51-.17.17-.28.34-.34.51l-.08.16-.26.34c-.11.12-.17.23-.17.34v.09l-.59.76-.25.34c-.12 0-.23.06-.34.17-.12.11-.17.22-.17.34-.28.11-.48.28-.6.5l-.08-.08c-.17.11-.34.34-.5.67l-.6.68-.08.18h-.09l-.08.08-.09.17-.08.08c-.06 0-.11.03-.17.09l-.08.16-.09.09-.25.34c-.12.06-.23.16-.34.34-.12.16-.17.31-.17.42l-.17.17v.17c-.11 0-.2.06-.25.17l-.09.08-.09.17c-.62.57-1.12 1.24-1.52 2.03l-.17.17v.17l-.08.09c-.12.11-.28.31-.51.59l-.25.34-.34.42h-.09l-.08.08-.08.17-.09.08c0 .06-.06.15-.17.26l-.17.17-.08.17c-.12.06-.2.14-.26.26l-.08.16v.17l-.26.51-.25.42c-.17.28-.25.51-.25.68-.45.62-.77 1.16-.93 1.61l-.09.17c-.11.11-.17.22-.17.33v.17h-.08l-.17.34v.34l-.17.17v.09l-.17.34-.17.25-.17.34-.68.84-.17.25-.08.09-.25.17-.26.25v.09l-.08-.09-.09.17-.16.18-.26.08-.25.25v.09l-.26.08-.16.17-.18.17-.08.09-.17.16-.17.17-.17.17c-.11.17-.2.28-.25.34v-.17l-.09.08-.16.17-.18.26-.16.25c-.06.06-.09.12-.09.17v.09c-.05 0-.11.06-.17.16l-.17.26-.08.08c-.06 0-.14.06-.26.17l-.08.17-.08.09v.08c-.74.68-1.33 1.44-1.78 2.29l-.09.08-.25.25c-.06.12-.09.23-.09.34l-.08.09v.08l-.08.17c-.4.34-.85.88-1.36 1.61l-.68.85-.59.84-.08.09-.26.17-.25.17-.17.16-.25.18-.26.25c-.05 0-.14.05-.25.17l-.17.25v-2.46c0-.95-.06-1.82-.17-2.62v-.93c.06-.16.09-.31.09-.42 0-.11-.03-.2-.09-.25v-.09c.06-.05.09-.19.09-.42 0-.23-.03-.37-.09-.43v-.67c.06 0 .09-.06.09-.17l-.09-.17v-.17c.06-.05.09-.23.09-.51v-.51c0-.22.02-.36.08-.42.05-.05.08-.17.08-.34 0-.16-.03-.31-.08-.42v-.25l.08-.17c.06-.06.09-.15.09-.25l-.09-.18v-.25c.06-.06.09-.14.09-.25v-.34c.06-.17.08-.34.08-.51.06-.06.09-.2.09-.42-.06-.17-.11-.29-.17-.34l.08-.17v-.08l.09-.09v-.09c.05-.05.08-.16.08-.33s-.03-.28-.08-.34v-.51c.05 0 .08-.06.08-.17.06-.05.09-.2.09-.42 0-.17-.03-.28-.09-.34v-.51h.09c0-.06-.03-.08-.09-.08.06-.12.09-.28.09-.51 0-.22-.03-.39-.09-.51V262c.06 0 .09-.09.09-.25 0-.17-.03-.29-.09-.34v-.34c0-.17-.03-.26-.08-.26v-.16c.05-.12.08-.29.08-.51-.05-.23-.11-.37-.17-.43v-.16c.06-.06.09-.12.09-.17 0-.06-.03-.15-.09-.25 0-.23-.02-.4-.08-.51v-.43c0-.22-.03-.36-.09-.42v-.17l-.08-.17v-.34c0-.17-.03-.25-.08-.25 0-.11-.03-.2-.09-.25l-.08-.26v-.42c0-.17-.03-.26-.09-.26v-.08l-.08-.09v-.68l-.17-.5v-.34c0-.17-.03-.25-.09-.25l-.08-.43-.08-.42-.09-.17.09-.17c0-.11-.06-.2-.18-.25v-.51c.06-.17.09-.39.09-.67-.06-.29-.11-.48-.17-.6 0-.05-.03-.08-.08-.08v-.18c0-.05-.04-.08-.09-.08-.06-.17-.11-.48-.17-.93v-.08c0-.12-.03-.23-.08-.34-.17-.17-.34-.25-.51-.25 0-.06-.06-.12-.17-.17l-.34.08c-.79 0-1.32.14-1.61.42h-.08c-.28.06-.51.12-.68.17l-.34.17-.5.08c-.23.06-.43.09-.6.09-.22 0-.45-.05-.67-.17-.12-.11-.29-.2-.51-.25-.17-.06-.34-.09-.51-.09-.17 0-.37.03-.59.09-.34.05-.73.17-1.19.33l-1.18.43h-.42c-.17 0-.29.03-.34.08l-.09.09h-.17c-.28.05-.5.14-.67.25h-.17l-.17.08h-.26l-.5.09-.43.09c-.68.05-1.07.17-1.18.33h-.09c-.5 0-.96.17-1.35.51v.17c-.06.06-.11.17-.17.34l-.08.42c-.12.06-.17.14-.17.26v.42l-.09.34v.34c-.05.17-.08.34-.08.51v.16c-.06.06-.09.17-.09.34v.17l.09.17c-.06 0-.09.03-.09.09-.06.16-.08.42-.08.76 0 .28.05.51.17.67v.77c0 .22.03.36.08.42v.08l.09 1.19v.51c-.12.05-.17.19-.17.42 0 .17.05.31.17.42-.12.23-.17.46-.17.68v.26h-.09c-.06.22-.08.53-.08.93l.08.59v.67c-.06.06-.08.15-.08.26v.34c-.06.05-.08.14-.08.25l.08.17v.68c-.06.11-.08.28-.08.5 0 .29.02.48.08.6l.08.08-.08.17c0 .06.02.12.08.17v.68a7.8 7.8 0 0 0-.08 1.18c0 .62.05 1.24.17 1.86v.34c0 .11.03.17.08.17-.05.23-.08.57-.08 1.02l.08.59v.5c-.05.06-.08.14-.08.26v.34c.05.05.08.12.08.17 0 .05-.03.14-.08.25v.93l.08.17v.17c.06.11.11.34.17.68v.34l.09.25c0 .34.05.62.17.85.05.95.17 1.69.33 2.2v.17c0 .33.03.56.09.67l.08.17v.26c.06.16.11.28.17.34v.25c0 .11.03.17.09.17v.42l.08.34c0 .17.03.28.09.34v1.86l-.09.42-.08.43v.16l-.09.09v.25c-.06.06-.08.17-.08.34l-.09.34v.09c-.05.05-.08.17-.08.33l-.09.26.09.25c-.06.06-.09.12-.09.17v.25l-.08.26v.33c0 .23-.03.4-.08.51v-.25l-.09.25v.94c0 .16.03.28.09.34v.84c-.06 0-.09.09-.09.25v.51c-.06.57-.08 1.13-.08 1.69 0 .57.02 1.14.08 1.7v.59c0 .17.03.28.09.34v.25c0 .06.02.08.08.08v.18c-.12.5-.17 1.15-.17 1.94v2.03l-.08.17.08.09-.08.16-.26.26-.17.34-.17.17c-.06.05-.08.11-.08.16v.09l-.34.42-.08.09c0-.06-.04-.09-.09-.09v.09l-.17.08-.08.09 1.1.84-.09.26h-.51l.51.42-.08.09c-.06.11-.09.28-.09.51l.09.25-.09.25v.25l.09.18v.59c-.06.05-.09.16-.09.34 0 .22.03.33.09.33v.43l-.09.25c0 .23.03.37.09.42 0 .06.03.09.08.09v2.2c0 .06.03.11.09.17v.5c.05.74.08 1.61.08 2.63v1.61l-.17 2.11v2.29l-.08.17h-.09c-.11.05-.16.14-.16.25v2.96a34.66 34.66 0 0 1-.26 2.8l-.08.33v.09l-.09.42c-.23.23-.39.59-.51 1.1v.09c-.05 0-.11.05-.17.16l-.08.35v.33l-.08.34c-.06.06-.09.2-.09.42v.17l-.09.17c-.05 0-.08.03-.08.09v.16c-.11.06-.17.15-.17.26l.09.25-.09.17v.09c-.05.05-.08.17-.08.33v.51c-.06.06-.09.2-.09.42v.18l-.08.25v.59c-.06.06-.09.17-.09.34v.51c0 .56.03.99.09 1.27 0 .05.02.08.08.08v1.19l-.08.25c0 .11.02.2.08.25v.68c-.06 0-.08.03-.08.09-.06.05-.12.17-.17.33 0 .17.03.26.08.26.06.05.09.17.09.34 0 .34.25.56.76.68l.08.08c0 .06.14.14.43.25l.25.26.17.08.42.34.51.34c.34.22.88.34 1.61.34l.93.08c.56 0 1.07-.02 1.52-.08h.34c.45 0 .99.08 1.61.25.28.06.67.09 1.18.09l1.27.08h1.44c.34 0 .62.03.85.08l.42.17h.59l.09-.08h.25c.28 0 .57-.11.85-.34l.42-.42.42-.34.34-.17.34-.08c.06-.06.11-.18.17-.34l.26-.34.5-.34c.17-.11.28-.2.34-.25.23-.34.37-.77.43-1.27.1-1.36.16-2.77.16-4.23v-1.53c.06-.11.09-.25.09-.42v-.59c-.06-.51-.12-1.1-.17-1.78l-.26-1.61c-.16-1.35-.25-2.45-.25-3.3.11-2.82.45-6.18 1.02-10.07.05 0 .14.06.25.17l.08.17.09.08c0 .06.03.12.08.17h.17l.09.09.34.17.34.17c.16.11.33.19.5.25.39.34.76.56 1.1.68l.09.08c.11.11.22.17.33.17h.09l.17.17h.25l.09.09h.17l.17.16.17.17.16.09h.09l.51.59.17.09.08.08.09.25.08.18h.08l-.08.08.08.08.09.17.08.17.09.17v.08l.08.18.09.16.08.09.09.17.08.08v.17l.17.08c.11.12.17.21.17.26h-.09v.09l.18.16.08.09.08.08.09.09c.06.05.11.08.17.08 0 .06.03.09.08.09l.17.16.09.09v.09l.08.08.09.17h.08c.34.56.79 1.07 1.35 1.52h.09l.09.17.08.09c.05.05.11.08.17.08l.08.09h.09l.08.08c.23.28.54.65.93 1.1l.59.59.43.51.08.09v.25l.09.17.08.08.08.25.18.26c0 .06.02.14.08.25l.08.09.09.08v.09c0 .05.03.11.08.16l.6.6.08.08v.09l.08.09.09.08h.09l.08.08.08.17.09.09c.05.11.14.17.25.17l.09-.09c0 .11.02.2.08.25l.34.26.17.17.17.17.08.08.17.09.17.16c.57.4 1.16 1 1.78 1.78l.76 1.02.85 1.02.08.08-.08.08v.17l.59.68.51.67c.45.46.79.91 1.01 1.36l.09.17v.08l.08.17v.34c0 .17.03.34.09.51v.17l.08.17.09.25.08.17c0 .06.03.14.08.25l.09.09v.25c0 .06.03.12.09.17l.16.17v.17l.09.08.17.26c0 .06.02.14.08.25l.17.17.25.34v.17l.09.09h.08l.09.08c.23.28.42.45.59.51h.08v.08l.18.26.25.16.08.17c.06.06.12.09.17.09l.17.25h.09v.34c.05.06.11.09.17.09.05 0 .11.02.16.08.06.06.14.08.26.08.17 0 .39-.08.68-.25v-.08l.08.08.43-.17.25-.08.17-.09.51-.08.5-.17c.34-.11.82-.4 1.44-.85l.68-.59 1.18-.93c.4-.34.93-.71 1.61-1.1l1.01-.68.94-.76.59-.42.59-.51.76-.51.34-.17.34-.25.09-.08.08-.09.08-.08c.23-.18.43-.43.6-.77l.17-.5.16-.43.26-.25.17-.25.08-.26v-.34l.25-.42c.06-.17.12-.28.18-.34 0-.28-.09-.56-.26-.84-.62-.96-1.38-1.87-2.28-2.71Zm-77.54-52.81-.08-1.01-.09-.93v-.17c-.06 0-.09-.03-.09-.09v-.08h-.08c-.06-.05-.08-.14-.08-.26v-.25l-.09-.08V273l-.42-1.18c-.17-.45-.29-.82-.34-1.1l-.08-.09-.09-.17v-.25l-.08-.08-.17-.26v-.17h-.09c-.05 0-.11-.03-.17-.08v-.17l-.08-.09-.08-.08-.18-.17v-.17l.09.08v-.08c0-.06-.06-.14-.17-.25l-.08-.09-.09-.17-.08-.17-.09-.17-.08-.08-.09-.17-.08-.25-.09-.09-.08-.17-.17-.25-.08-.09-.09-.17.09-.08h-.09l-.17-.26-.17-.25-.08-.08-.26-.09-.76-.59-.08-.09-.26-.08-.34-.09-.25-.16h-.08l-.18-.09h-.67v-.08h-.51l-.08-.09c-.29 0-.88-.11-1.78-.34h-1.19a.693.693 0 0 0-.25-.08c-.11 0-.2.03-.25.08h-.34c-.17 0-.28-.02-.34-.08h-.17l-.25-.08c-.06-.06-.11-.09-.17-.09-.06 0-.12.03-.17.09h-.25c-.17-.06-.26-.12-.26-.17h-.93c-.39-.06-.71-.12-.93-.17h-.08c0 .05-.06.08-.18.08h-.25c-.62.06-1.24.09-1.86.09h-1.69c0 .05-.03.08-.09.08h-.16v.09c.05.05.08.14.08.25v.17l.08.08.09.42.17.51v.17h.08c.06.06.09.14.09.26v.33l.08.26c.06.06.09.11.09.17.05 0 .08.08.08.25v.25l.09.18.08.16c.06.06.08.17.08.34v.17l.09.17c.05.06.08.2.08.42.06.06.09.15.09.26 0 .05-.03.11-.09.17v.08c.11.06.17.17.17.34.06.11.09.2.09.25 0 .06-.03.12-.09.18v.16c.06.06.09.14.09.26v.17l.08.08c.06.06.09.14.09.25 0 .17-.03.26-.09.26v.67c.06.06.11.2.17.43 0 .17-.03.31-.08.42.05 0 .08.03.08.08h-.08v.43c.05.06.11.17.16.34 0 .17-.02.28-.08.34 0 .05-.03.08-.08.08v.51c.05 0 .08.09.08.25.06.06.08.12.08.17 0 .06-.02.09-.08.09v.08l-.08.09v.08l-.09.17c.06 0 .11.09.17.25 0 .17-.03.29-.08.34.05.06.08.14.08.25 0 .07-.03.15-.08.26v.34c0 .06-.03.11-.09.17l.09.17v.16c0 .12-.03.18-.09.18v.42c.06.05.09.17.09.33 0 .18-.03.29-.09.35-.05.05-.08.16-.08.33v.18l.08.25c0 .22-.03.36-.08.42v.17l.08.09c0 .1-.03.19-.08.25l.08.5c.06.06.09.18.09.34 0 .23-.03.37-.09.43.06.17.09.37.09.59v.76l.08.09c.11.67.2 1.47.26 2.36l.08 1.19v1.1c0 .06.03.2.08.42l.09.68v.76c0 .74.06 1.27.17 1.61v.08c.05.06.08.17.08.34v.43c.06.17.11.42.17.76l.08.67.09.09c.06.11.11.33.17.68v.08c.11.23.2.62.25 1.18v.34l.09.34c.05.28.11.68.17 1.19l.34-.17c.05-.06.11-.09.16-.09.06 0 .09.03.09.09l.09-.09h.16c.12 0 .2-.02.26-.08l.17-.09h.17l.33-.17.26-.16.34-.09h.25l.59-.17.51-.08.42-.26.34-.17c1.19-.67 2.54-1.86 4.06-3.55l.09-.08c.05 0 .11.02.17.08h.08l.09-.08.67-.77.68-.76.59-.84.6-.77.51-.76.5-.76.34-.84c.11-.29.2-.57.25-.85l.18-.43v-.16l.08-.17.08-.34.17-.34.17-.51c0-.17.03-.28.09-.34v-.5l.08-.18.09-.16v-.51c.05-.17.11-.26.16-.26l.09-.16v-.51l.08-.25v-.18l.09-.25c0-.17.03-.28.08-.34l.09-.16.08-.18c0-.16.03-.28.09-.33v-.09l.08-.25.17-.34v-.25l.08-.26.18-.25v-.17c.05-.56.08-1.27.08-2.12Zm17.09-6.01c.62 2.77.93 5.39.93 7.87 0 3.16-.47 6.13-1.44 8.89v.09c-1.41 4.06-3.52 7.9-6.34 11.5-2.32 2.93-5.19 5.93-8.63 8.97-.62.51-1.44 1.25-2.46 2.2l-1.1 1.1-1.18 1.02.08.25 1.1 1.11 1.02 1.09c.79.85 1.38 1.64 1.78 2.37l1.01 2.2 1.02 2.2c.84 1.69 1.69 3.1 2.54 4.23.28.4.73.85 1.35 1.36l.85.59.76.67.17.18c.05.05.08.14.08.25v.08h.09c.79.96 1.4 1.87 1.86 2.71.05.17.08.37.08.6v.25c0 .06-.06.14-.17.25l-.25.43-.09.33-.08.26-.26.17-.25.25-.25.42-.17.43c-.23.34-.45.56-.68.68l-.17.08-.08.08-.09.09-.34.17-.42.17-.85.42-.59.34-.59.42-1.02.59-1.1.51c-.73.34-1.32.65-1.77.93l-1.27.85-.76.42c-.63.4-1.13.65-1.52.76l-.51.09-.43.08-.25.09-.26.08-.42.09v-.09l-.08.09c-.34.11-.59.17-.77.17h-.08l-.08-.09h-.09a.24.24 0 0 1-.17-.08v-.17l.09-.09-.09-.08-.08-.17c-.06 0-.12-.03-.17-.09v-.08l-.09-.08-.08-.18-.17-.16v-.09l-.08.09c-.18-.06-.32-.23-.43-.51h-.08c-.06 0-.11-.03-.17-.08v-.26l-.17-.25-.09-.17c-.05-.06-.08-.11-.08-.17l-.08-.17a.613.613 0 0 1-.09-.26l-.08-.16v-.17l-.09-.09h.09v-.17l-.09-.08v-.17l-.08-.17-.09-.17v-.59c0-.17.03-.31.09-.42l-.09-.09-.08-.17v-.25c-.17-.34-.42-.74-.76-1.19l-.43-.51-.5-.67.08-.09.08-.17-.76-.93-.59-.93c-.51-.67-.99-1.18-1.44-1.52l-.17-.26h-.17l-.08-.16-.17-.09-.08-.17-.26-.25c-.06-.06-.11-.12-.17-.17-.11 0-.2-.03-.25-.09l-.09-.17-.08-.08v-.08h-.08l-.09-.09a.223.223 0 0 1-.09-.17l-.08-.09-.17-.16-.08-.09-.17-.25-.09-.09v-.08l-.08-.17v-.09l-.09-.08v-.17l-.17-.17v-.17l-.08-.08-.08-.26v-.25l-.85-1.01c-.4-.4-.65-.74-.76-1.02l-.09-.08h-.08l-.09-.09h-.17v1.86c0 .63.09 1.42.26 2.37l.25 1.36c.12.56.17 1.07.17 1.52l.09.25v.26c0 .17-.03.28-.09.33v1.36c0 1.3-.05 2.51-.17 3.64-.06.45-.17.79-.34 1.01-.05.06-.17.14-.33.26l-.51.34-.26.25-.17.25-.33.09-.34.09-.42.33-.43.34c-.39.22-.73.34-1.02.34l-.08-.08-.17.08-.08.08-.43-.08-.42-.08c-.23-.06-.53-.12-.93-.18h-1.44l-1.18-.08c-.51 0-.91-.06-1.19-.17-.56-.11-1.07-.17-1.52-.17h-2.88c-.73-.05-1.3-.17-1.69-.33l-.42-.35-.43-.25c0-.05-.05-.08-.17-.08l-.33-.18-.34-.25v-.08h-.09c-.51-.11-.79-.31-.84-.6.05-.05.08-.1.08-.16s-.03-.09-.08-.09c-.06-.05-.09-.14-.09-.25 0-.11.03-.2.09-.25 0-.06.02-.09.08-.09v-.08l.09-.51c-.06 0-.09-.09-.09-.26v-1.09c-.06 0-.08-.04-.08-.09-.06-.23-.09-.56-.09-1.02l.09-.17c-.06-.05-.09-.14-.09-.25 0-.17.03-.28.09-.34v-.85c0-.16.05-.28.17-.33v-.42c0-.17.02-.29.08-.35v-.33c0-.17.03-.26.08-.26v-.16h.09l.09-.18v-.16c0-.17.02-.29.08-.34l.08-.25v-.35l.09-.25.17-.17v-.09c.11-.39.28-.67.5-.84v-.42l.09-.34c.17-.68.25-1.47.25-2.37v-2.54l.09-.08h.16v-2.03l.09-1.78v-1.02c0-1.01-.05-1.86-.17-2.54v-.42a.211.211 0 0 1-.08-.17v-.25c-.06-.06-.09-.14-.09-.26v-1.35c-.05-.05-.08-.17-.08-.34v-.59c-.06 0-.09-.09-.09-.26 0-.16.03-.25.09-.25v-.26c0-.05-.03-.16-.09-.33v-.76c0-.17.03-.28.09-.34v-.34c0-.17.03-.28.08-.34v-.42l.17-.34v-.17l.08-.34.09-.25v-4.49c-.05 0-.09-.02-.09-.08v-.17c-.05-.05-.08-.14-.08-.25v-.51c-.11-.56-.17-1.13-.17-1.69 0-.4.03-.79.09-1.19l-.09-.25v-.09c0-.17.03-.25.09-.25v-.76c-.06 0-.09-.09-.09-.26v-.34l-.08-.16V295c.05 0 .08.06.08.17.06-.05.09-.19.09-.42l-.09-.26.09-.25v-.17c0-.11.02-.17.08-.17v-.42c0-.11.03-.2.08-.25v-.43l.09-.25c0-.06.03-.11.09-.17v-.25h.08v-.43l.08-.25v-.43l-.08-1.09v-.09c-.06-.05-.08-.14-.08-.25l-.09-.34-.09-.34c-.05 0-.08-.03-.08-.09l.08-.16-.08-.09c-.06-.05-.11-.14-.17-.25v-.17l-.08-.17v-.09c-.11-.05-.17-.22-.17-.5v-.09c-.12-.45-.25-1.07-.43-1.86-.05-.17-.11-.39-.16-.67l-.09-.26-.08-.25c0-.28-.03-.46-.09-.51l-.08-.17-.08-.17v-.76c0-.17-.04-.28-.09-.34v-.26c0-.1.03-.19.09-.25l-.09-.42v-1.36c-.06 0-.09-.05-.09-.16v-.09l-.08-.08c-.12-.62-.17-1.28-.17-1.95v-.59l-.08-.17v-.17c0-.11.02-.2.08-.26v-.08c-.06 0-.08-.02-.08-.09l-.09-.25c-.06-.05-.08-.19-.08-.42v-1.01l-.09-.09c0-.17.03-.25.09-.25v-.68l-.09-.43v-1.27c0-.22.06-.47.17-.76a.573.573 0 0 1-.17-.42c0-.11.06-.2.17-.25l-.08-.51-.09-.93v-.09c-.11-.05-.17-.17-.17-.33v-.35l-.08-.25c-.06-.17-.12-.36-.17-.59 0-.28.02-.51.08-.68v-1.18l.09-.26v-.59c0-.11.03-.2.08-.25l-.25-.25c0-.12-.06-.2-.17-.26l-.09-.08-.08-.17h-.08c-.17-.06-.34-.2-.51-.43l-.09-.17-.08-.08c-.06 0-.14-.08-.25-.26l-.09-.16-.09-.17-.5-.42-.51-.34c-.4-.34-.68-.62-.85-.85-.28-.34-.48-.68-.59-1.02v-.75c0-.35-.14-.68-.42-1.02l-.34-.34-.34-.25a5.51 5.51 0 0 1-.59-.51v-.09c-.39-.05-.82-.42-1.27-1.1l-.17-.25v-.09c0-.05.03-.11.08-.17v-.17c0-.11.04-.25.09-.42.11-.22.25-.36.42-.42l.51-.34.42-.33c0-.06.03-.12.09-.18l.17-.08.08-.09v-.08c.17-.11.42-.28.76-.51.34-.17.62-.28.85-.34l.42-.25.34-.17c0-.05.12-.11.34-.17l.25-.17.17-.08c.11-.12.31-.23.59-.34l.68-.34c0-.06.09-.14.26-.25h.25l.17-.09.59-.34.77-.34.16-.08.09-.09h.08c0-.11.11-.19.34-.25l.25-.09.26-.08h.08l.09-.08.16-.09c.12-.05.23-.08.34-.08 0-.06.09-.11.26-.17l.25-.09.17-.08.25-.08.34-.09c.06-.11.2-.19.43-.25l.34-.09.25-.08c.11-.12.34-.2.68-.26.28-.05.48-.08.59-.08l.25-.09c.06-.05.23-.13.51-.25.28-.06.51-.09.68-.09h.25c.06-.11.17-.16.34-.16l.25-.09h.26c.05-.11.19-.17.42-.17.11-.05.2-.08.25-.08.12 0 .18.03.18.08l.16-.08c.06 0 .12.03.17.08l.6-.08c.11-.11.33-.2.67-.25.17-.06.31-.09.42-.09.12 0 .2.03.26.09.06-.06.11-.09.17-.09.05 0 .08.03.08.09l.59-.09c.12-.05.31-.09.6-.09.17-.05.28-.08.33-.08.12 0 .2.03.26.08l.08-.08c.06 0 .09.03.09.08.05.06.17.09.34.09l.42-.09c0-.05.14-.08.42-.08.12-.06.2-.08.26-.08.11 0 .17.02.17.08h.17l.08.08h.17l.17.09c.05-.11.22-.17.51-.17.28 0 .47.03.59.08.11-.05.22-.08.34-.08.11 0 .22.03.34.08h.5c.17 0 .29.04.34.09h.59c.17 0 .29.03.34.09h.34l.34.08c.05-.06.17-.08.34-.08h.25c.28 0 .45.05.51.16.06.06.22.09.51.09h.84c.34 0 .57.05.68.17h.42c.23 0 .34.05.34.17l.93.08c.06-.06.14-.08.26-.08.11 0 .25.02.42.08.28.06.48.11.59.17h.09c.22 0 .56.05 1.01.17.51.11.9.23 1.19.34h.25c2.76.51 5.47 1.49 8.12 2.96.06.12.29.26.68.42.62.29 1.41.79 2.37 1.52l1.19.94 1.18.84.17.17c.11 0 .28.14.51.42l.34.26.25.25.09.09c.28.22.61.53 1.01.93l.51.59.5.51.09.08c.28.17.59.49.93.93l.09.17c.45.34.95.99 1.52 1.95l.42.68.34.51c.51.79.99 1.69 1.44 2.7v.17c.17.17.34.51.51 1.02l.17.5.17.6.08.25.34 1.36.25 1.26Zm-75.25 42.89-.08-3.3v-.17c-.06-.17-.12-.45-.17-.85v-.5l-.09-.51v-1.02c-.05 0-.08-.11-.08-.33v-.6c-.11-.17-.17-.45-.17-.84v-.51l-.08-.51v-.17c-.12-.28-.18-.79-.18-1.52v-.42c-.16-1.53-.3-3.39-.42-5.59-.05-.45-.08-1.12-.08-2.03l-.09-.76-.08-.76c0-.79-.03-1.32-.09-1.61l-.08-.43v-2.7c.06-.28.08-.51.08-.68 0-.17-.02-.28-.08-.33v-.85c0-.4.03-.62.08-.68v-2.71c0-1.07.03-1.89.09-2.45v-.17c-.06-.06-.09-.23-.09-.51l.09-.34-.09-.25v-1.78l-.08-.51-.09-.08c0-.06.03-.08.09-.08l-.09-.09-.08.09v-.09h-.17c-.11 0-.17-.06-.17-.17h-.25v-.08h-.17l-.08-.09-.17-.08h-.43l-1.18-.09-1.19-.08c-1.01-.06-1.75-.11-2.2-.17v-.09c-.56 0-1.18-.08-1.86-.25h-.17c-.17.06-.48.08-.93.08-.45-.05-.73-.11-.84-.16h-1.19l-1.27.08h-1.27l-.25.08c-.17.06-.48.09-.93.09l-.51.08h-.51l-.59.09c-.4.06-.96.14-1.69.25-.68.06-1.22.09-1.61.09l-.34.67-.34.34c.06.57.09 1.3.09 2.2v.42c.05.12.08.4.08.85 0 .45-.03.74-.08.85v2.62c0 .45-.03.76-.09.93v1.27c0 .51-.03.85-.08 1.02v1.1c0 .4-.03.65-.09.76v.34c0 .11-.03.19-.08.25v.93c0 .45-.03.76-.09.94l-.08.84v.93l-.09.34v.42c-.05.29-.11.48-.17.59v.09c-.11 1.3-.25 2.2-.42 2.71l-.08.17v1.18l-.09.93c-.17 1.92-.28 4.29-.34 7.11v1.78l-.08 1.86-.09 1.78-.08 1.69v.17c0 .11-.03.19-.08.25l-.17.17v.25c0 3.11.14 6.46.42 10.07l.25 2.54c.06.91.14 1.66.26 2.29.22 1.46.53 2.54.93 3.21l.08.34.09.25.17.09.08.17.08.08.09.09.09.08.08.09.08.08.09-.08h.08l.09.08h.34l.17.09.25.08h.51l.33-.08.34.08h1.02c.23-.06.42-.08.59-.08.17 0 .28.02.34.08.11.06.25.08.42.08h.51c.28-.05.48-.08.59-.08.17 0 .28.03.34.08h1.1c.34 0 .65.04.93.09h1.36c.33 0 .59.03.76.09h.25c1.7-.12 3.67-.32 5.93-.6l1.52-.17.68-.08h.42c.28-.06.62-.14 1.01-.26l.17-.08v-.08h.09l.08-.09c0-.05.06-.11.17-.17l.17-.08.08-.17h.09l.17-.26.17-.17.08-.16.09-.09.17-.34.08-.34v-1.94l-.08-.42v-.77c-.06-.11-.12-.36-.17-.76v-.93c0-.11-.03-.31-.09-.59v-1.35c.06 0 .09.16.09.51.05-.06.08-.15.08-.26 0-.06-.03-.14-.08-.25v-4.49c0-.34.03-.56.08-.68v-2.03c0-.17.03-.36.09-.59v-.6h.08v-3.21Zm17.69 17.35c.05.45.08.9.08 1.35 0 1.87-.28 3.64-.84 5.34l-.17.59c-.12.67-.45 1.55-1.02 2.62l-.84 1.44-.51.67-.42.68-.51.6a19.37 19.37 0 0 1-5.33 4.65 21.87 21.87 0 0 1-5.33 2.37l-1.44.42-1.44.26-.59.08-.51.08-.85.09c-2.42.34-4.76.59-7.02.76-2.37.23-4.69.37-6.94.42h-3.55c-1.59-.05-3.08-.22-4.49-.5l-.25-.09c-.34-.05-.74-.14-1.19-.25l-1.18-.34c-.79-.28-1.58-.62-2.37-1.02-2.88-1.35-5.25-3.38-7.11-6.09-.29-.39-.68-1.04-1.18-1.94l-.51-1.02-.43-.93c-.28-.68-.51-1.3-.67-1.86l-.26-.85-.25-.84c-.4-1.75-.68-3.84-.85-6.27l-.08-1.44-.09-1.26-.08-2.46c-.12-3.32-.17-6.15-.17-8.46v-2.11l.09-2.8.16-2.54.17-2.37.09-2.45c0-2.03-.09-4.6-.26-7.7l-.34-3.89c-.05-1.53-.11-2.91-.16-4.15l-.09-.6v-.67c0-.51.03-.87.09-1.1v-.09c-.12-3.32-.17-6.71-.17-10.15v-3.47c0-1.24.08-2.23.25-2.96 0-.17.08-.42.26-.76l.25-.43.25-.5.08-.43.09-.42c.11-.39.17-.62.17-.68.05-.11.17-.22.34-.34l.17-.17.17-.25c.11-.17.22-.45.33-.84l.43-1.02v-.59c0-.12.05-.2.17-.26l.17-.16c.11-.23.34-.43.68-.6.39-.22.73-.36 1.01-.42 1.07-.28 1.81-.51 2.2-.68 0-.05.08-.11.25-.17h.26l.25-.08c0-.06.06-.09.17-.09.34-.17.88-.34 1.61-.5.73-.17 1.3-.26 1.69-.26l.76-.17.6-.08c.05-.06.28-.12.67-.17l.42-.09.43-.08c.22-.11.56-.2 1.01-.25l1.1-.26c.06-.06.28-.11.68-.17h.42l.43-.08c.34-.12.76-.2 1.27-.26l1.52-.25h.42l.09-.09h.25c.06-.11.31-.16.76-.16h.43l.5-.09h.42l.26-.08c.23-.06.45-.09.68-.09.11-.05.33-.08.67-.08h.51l.42-.09.43-.08h.59c.17-.06.51-.09 1.02-.09h1.18c.23-.11.65-.17 1.27-.17.56 0 .99.06 1.27.17h.42c.17-.11.54-.17 1.1-.17.57 0 .99.06 1.27.17h.43c.11-.05.39-.08.84-.08l.43.08h.5c.06-.05.14-.08.26-.08.11 0 .28.03.51.08.44 0 .7.06.76.17h.42c.11 0 .19.03.25.09l1.27.08h.26c.11 0 .31.03.59.09.45 0 .9.05 1.35.17.9.11 1.64.28 2.2.5.34.06.51.14.51.26.68.17 1.38.39 2.12.67.39.06.95.29 1.69.68.79.4 1.32.73 1.61 1.01.22.18.33.32.33.43.12.11.37.34.76.68l.51.42.51.51c.23.05.56.39 1.02 1.01.5.57.78.96.84 1.19.23.34.34.53.34.59v.08c.11.17.2.34.26.51l.08.26.09.25c.11.11.25.31.42.59.11.29.25.59.42.93.28.73.42 1.27.42 1.61.23.79.37 1.58.43 2.37l.16 1.52c.06.29.09.54.09.77 0 .16-.03.31-.09.42v1.01l.09.76c0 .4-.03.66-.09.77l-.08.5v.6c.06.17.08.47.08.93-.05.45-.11.73-.16.84-.06.12-.09.4-.09.85v1.35c0 .57-.03.97-.08 1.19v.67c0 .34-.03.54-.09.6v1.52c.06.17.09.48.09.93 0 .51-.03.85-.09 1.02v1.78c0 .79-.02 1.4-.08 1.86v.25c.06 0 .08.06.08.17.06 1.8.12 4.01.17 6.6l.09 3.3v3.04c0 .12.02.49.08 1.11 0 .5.03 1.15.08 1.94v2.2c.06 1.86.15 3.28.26 4.23v.26c.06.17.08.51.08 1.01v.6l.09.51v.16c.05.4.11 1.05.17 1.95l.08 1.01.09 1.02v.17c.11.34.2.93.25 1.78v.25c.17.62.31 1.75.43 3.39l.08.93c0 .39.03.67.08.84l.09.34v.51Zm-63.93-73.66-2.94-.78h-5.13v-.16h-2.38l-.1-5.7c-.1-.27-.19-.55-.26-.84l-.32-1.05-.39-1.01-.14-.67c-.11-.59-.24-1.56-.29-2.93l-.01-.39.04-.84-.08-1.94.05-.28-.05-.3-.06-1.47c-.01.06-.03.13-.03.18v.17l-.08.34c-.12.05-.2.23-.26.51v.25l-.08.34c-.11.06-.2.2-.26.42v.6l-.08.25v.17l-.17.76c-.11.17-.23.45-.34.85-.05.39-.08.67-.08.84v.26l-.17.76c-.12.11-.2.33-.26.67-.05.23-.08.43-.08.6v.76l-.17.51c-.06.05-.14.22-.25.5v.6l-.09.17.09.16v.18l-.09.25c-.06.05-.11.25-.17.59-.05.23-.08.4-.08.51v.17c-.11.34-.17.65-.17.93l-.08.25-.09.34v.42l-.09.09v.25l-.08.34c-.06.23-.08.37-.08.42v.43l-.09.42c-.11.11-.2.34-.25.68v.76c0 .11-.03.28-.09.51l-.08.42-.17.5c-.06.29-.09.51-.09.68v.17l-.08.26-.08.25v.43l-.26 1.09c-.11.12-.2.34-.25.68-.06.23-.09.42-.09.59v.26c-.11.28-.22.67-.34 1.18-.11.56-.19 1.02-.25 1.36v.16c-.06 0-.08.04-.08.09-.4 1.35-.82 2.93-1.27 4.74l-.51 2.37-.51 2.2c0 .11-.06.39-.17.85-.11.33-.25.79-.42 1.35l-.34 1.61c-.28 1.35-.54 2.36-.76 3.04v.17c-.11.12-.2.34-.25.68l-.09.42-.09.34v.17c-.16.28-.33.73-.5 1.35l-.17.76-.26.77v.08c-.11.23-.25.65-.42 1.27l-.08.17c-.23.45-.46 1.24-.68 2.37l-.17.68c-.06.28-.14.48-.26.59-.22.68-.47 1.69-.76 3.04l-.08.18c-.11.22-.2.56-.25 1.01l-.17.59-.09.59-.08.34-.59 2.71-1.19 4.74-1.1 4.74c-.85 3.67-1.44 6.68-1.78 9.05v.08l-.76 5.51-.68 5.5c-.56 4.28-1.13 7.98-1.69 11.08l-.08-.93v-.08c.05-.06.08-.14.08-.25a.73.73 0 0 0-.08-.26l-.09-.25v-.34c0-.23-.03-.54-.08-.93l-.09-.94v-.08c.06-.11.09-.22.09-.34 0-.17-.03-.36-.09-.59v-.51c0-.28-.03-.67-.08-1.18l-.09-.42v-.43c0-.45-.08-1.1-.25-1.95V330c0-.12-.03-.34-.09-.68l-.08-.42-.08-.34v-.17l-.34-1.78-.51-3.04-.51-3.13c-.39-2.38-.82-4.29-1.26-5.76v-.09l-1.53-4.57-1.52-4.65c-1.13-3.55-2.01-6.71-2.63-9.48-.16-.95-.28-2.19-.33-3.72l-.17-1.86c-.06-.68-.12-1.33-.17-1.95v-.25l-.09-.34c-.05-.22-.11-.39-.17-.5-.34-2.21-.79-4.29-1.35-6.27-.17-.56-.4-.98-.68-1.27-.06-.11-.17-.22-.34-.34l-.59-.25-.34-.34c-.11-.17-.2-.25-.25-.25l-.25-.09-.43-.08-.5-.34-.51-.42c-.29-.23-.54-.34-.76-.34-.12 0-.2.02-.26.08h-.25l-.17-.08c-.12 0-.26.06-.43.17l-.34.17c-.22.11-.5.22-.84.33l-.76.09-.68.17-1.18.25c-.51.06-.91.17-1.19.34-.62.29-1.15.45-1.61.51l-.25-.26c-.11-.11-.28-.25-.51-.42h-.08c-.17-.4-.62-.73-1.36-1.01l-.25-.17c-.11 0-.2.03-.25.08h-.17c-.12 0-.23.03-.34.09-.23.11-.34.25-.34.42-.22.45-.4.73-.51.84-.05 0-.08.03-.08.09l-.09.17v.08c0-.05-.02-.08-.08-.08v.08c-.17.12-.31.32-.43.6-.11.34-.16.59-.16.76l-.17.25-.09.26c-.06 0-.11.08-.17.25l-.08.17-.09.17-.17.25-.16.26c-.34.17-.51.42-.51.76v.17l-.34.42-.25.51-.09.25h-.08v.08c-.12 0-.2.09-.26.26v.17l-.08.17-.09.08-.08.17c-.11.11-.17.2-.17.25a.9.9 0 0 0-.17.26l-.09.17-.16.34-.17.25c-.06.06-.12.17-.17.34l-.09.25-.17.26c-.05.06-.14.2-.25.42-.06.17-.08.28-.08.34v.17l-.09.17c-.11.05-.23.2-.34.42-.11.22-.17.4-.17.51v.17c-.11 0-.2.08-.25.25v.25l-.09.18c-.11 0-.19.08-.25.25v.34l-.08.16v.09l-.18.51c-.11.11-.22.28-.33.51-.06.22-.09.39-.09.5v.18l-.17.5c-.11.06-.19.2-.25.43a.67.67 0 0 0-.08.33v.26c0 .05-.03.14-.09.25l-.08.34c-.06 0-.14.08-.26.25v.76l-.08.09c-.06.06-.12.2-.17.42-.06.12-.09.23-.09.34v.08a1.1 1.1 0 0 0-.16.6l-.09.17-.08.17v.33l-.17.34v.34l-.09.25-.08.26c-.12.06-.2.2-.26.42v.51c0 .06-.03.14-.08.25l-.08.34-.09.25c-.11.29-.17.49-.17.6v.08l-.08.17v.34l-.26.68a.54.54 0 0 0-.25.34c-.06.17-.09.28-.09.33v.26c-.11.17-.22.39-.33.67-.12.4-.18.68-.18.85l-.08.17c0-.06-.03-.08-.08-.08v.08c-.4.85-.79 1.84-1.19 2.96l-.51 1.44-.42 1.36c0 .05-.06.22-.17.5l-.34.85-.33 1.01c-.29.85-.51 1.47-.68 1.87l-.09.17c-.05.05-.11.17-.17.34l-.08.34-.09.16v.09c-.16.17-.3.45-.42.84l-.42.94v.08c-.17.11-.31.37-.43.76l-.08.09c-.22.22-.45.7-.68 1.43l-.08.51c-.06.11-.14.23-.25.34-.18.4-.4 1.01-.68 1.86l-.09.09c-.11.11-.19.34-.25.67l-.08.34-.17.34v.17l-.6 1.78-.93 2.96-1.01 2.96-.26.68c-.05-1.13-.14-2.46-.25-3.98v-1.78l-.17-1.35v-2.71c.06-.06.08-.14.08-.25 0-.12-.02-.23-.08-.34v-.76c.06-.28.08-.68.08-1.19v-1.35c.06-.17.09-.54.09-1.1v-.17c.05-.22.08-.59.08-1.1v-1.52c0-.17.03-.34.09-.51.05-.28.08-.63.08-1.02 0-.45-.03-.93-.08-1.43v-.18c.05-.11.08-.25.08-.42 0-.17-.03-.34-.08-.51v-1.18l-.09-2.37-.08-3.98-.09-3.97c-.05-3.1-.22-5.64-.5-7.62v-.09l-.85-6.18-.93-6.25c-.68-4.86-1.16-9.11-1.44-12.78-.06-.62-.08-1.33-.08-2.12 0-.85.02-1.74.08-2.71l.09-2.45c0-.96-.03-1.83-.09-2.62v-.77c-.06-.33-.11-.56-.17-.67v-.09c-.11-1.57-.22-2.96-.34-4.15-.22-1.69-.45-3.1-.67-4.23-.12-.73-.29-1.32-.51-1.77-.06-.11-.2-.26-.43-.42l-.25-.26-.25-.25-.17-.26-.17-.25c-.11-.23-.2-.34-.25-.34-.06-.06-.15-.11-.26-.17l-.42-.17-.51-.51-.51-.59c-.33-.34-.62-.51-.84-.51h-.26l-.17-.08c-.05 0-.11-.03-.17-.08-.11 0-.25.02-.42.08l-.34.25c-.22.12-.51.2-.84.26l-.76.08h-.68l-.59.08-.68.09c-.45.06-.85.14-1.19.26-.62.28-1.15.42-1.61.42h-1.77l-.93.17c-.74.06-1.27.25-1.61.59l-.42.51-.34.5c0 .06-.06.12-.17.18l-.26.25-.33.42v.09h-.09c-.45.28-.67.65-.67 1.09.05.12.08.21.08.26 0 .06-.03.11-.08.17v.42c0 .23.02.37.08.43 0 .11.03.17.08.17l.09.16.08.77v.42l.09.25v.85c.05.23.08.42.08.59l.09.26c-.06 0-.09.02-.09.08v.51c0 .39.03.84.09 1.35l.08.17c-.06.11-.08.29-.08.51.06.28.11.45.17.51l.08.93.09.25v.34c.05.28.11.45.16.51v.08l.09.34v.34c0 .28.06.45.17.51v.68c.05.22.11.36.17.42v.17l.08.08.09.26.08.33c0 .28.03.45.09.51l.17.51v.51l.17.42c.05.17.11.28.16.34v.08c.18.68.37 1.19.6 1.53v.08l.08.59v.09l.17.51c.22 1.12.4 2.48.51 4.06l.09 2.03.16 2.2c0 .11.03.2.09.25l.17.09v.17l.25 3.3.26 3.13c.11 1.97.16 3.61.16 4.91v1.94c-.05.06-.08.17-.08.34l.08.34c-.05.11-.08.28-.08.51l.08.67v1.02c0 .17.03.36.09.59-.06 0-.09.03-.09.09-.05.11-.08.31-.08.59l.08.34v.68c-.05.05-.08.22-.08.5 0 .23.06.37.17.43v.93l-.09.33.09.26v.76c0 .34.03.56.08.68l.09.25v.34c0 .34.02.54.08.59v.09l.09.59.17.59v.34l.08.51c.06.22.11.39.17.5v.17l.08 1.86.09 1.87c.05 1.58.14 2.79.25 3.64v.25c-.05 0-.08.05-.08.17v.25c-.06.12-.09.31-.09.6l.09.33v1.7a45 45 0 0 0 .17 3.8l.08.17v.6c0 .17.03.28.09.33v2.71l.08.51c.06.06.12.14.17.25v.51c0 .4.03.65.09.77v.33c0 .17.02.28.08.34v.34l.08.17v.25c.06.17.09.31.09.42l.08.17v.51c.06.23.12.4.17.51v.34l.09.08v.25h.08v.09l.09.59.08.6v.25l.09.42.08 1.95v.08c-.06.12-.08.29-.08.51v1.78c-.06.11-.09.28-.09.51v.33l-.08.26v.08c-.06.17-.09.51-.09 1.02v.25c-.06 1.02-.08 2.12-.08 3.3v1.19l-.09.51v1.43l-.08.26v.34c0 .28.03.45.08.5v.43l.09.34c.05.11.08.22.08.34 0 .11-.03.19-.08.25v.59c0 .17.05.28.17.34v.85l.08.75c.06.68.11 1.19.17 1.53v.76c0 1.52.14 3.05.42 4.57v.59c.06.23.12.37.17.43v.08c-.05 0-.08.08-.08.26l.08.16v1.02c.06.39.12.68.17.85l.09.67v.51c.05.22.11.36.17.42v.51c.05.17.11.29.17.34v.25l.08.77.08.84c.06.68.14 1.19.26 1.52l.08-.08c0 .4.12.82.34 1.27v.76c.06.28.14.48.26.59l.08.77.25 1.69v.76l.09.42v.34l.09.42c0 .29.02.65.08 1.1.05.46.14.82.25 1.1 0 .06.03.09.09.09v.25l.08.34c0 .23.06.37.17.43 0 .28.09.61.25 1.01l.09.42.17.51.08.25.09.34c.05.23.11.37.17.43l.25.59c.11.22.23.37.34.42v.17c.34.34.71.51 1.1.51h.42c.12.11.28.17.51.17.17 0 .39-.03.68-.09l.5.09.51-.09h.34l.09.09.33.5.34.6c.23.39.48.62.76.68h.17l.09.08.08.08c.11.06.26.09.43.09h.67c.23 0 .45.03.68.08l.68.17.67.17 1.19.26c.5.11.93.16 1.27.16.79 0 1.44.09 1.95.26.44.17.93.31 1.43.42l.85.26c.39.05.73.08 1.02.08.28 0 .53-.03.75-.08l.51-.26.51-.25.17-.09.34-.08.42-.17.09-.09c.56-.05.9-.22 1.01-.5 0-.23.03-.34.09-.34.11-.06.16-.17.16-.34.06-.12.09-.2.09-.26 0-.05-.03-.08-.09-.08 0-.06-.02-.08-.08-.08l.08-.17.09-.6c.06-.05.11-.16.17-.33v-.34l.17-.42c.06-.17.08-.34.08-.51l.09-.17.08-.09c.17-.28.29-.73.34-1.35l.09-.17c.05-.05.11-.17.16-.34.06-.11.09-.2.09-.25 0-.06-.03-.12-.09-.17l.09-.68.09-.17.08-.25c.06-.12.08-.2.08-.26 0-.11-.02-.16-.08-.16v-.34l.08-.25c.06-.12.09-.21.09-.26 0-.06-.03-.11-.09-.17v-.08l.09-.17v-.18c.05-.11.08-.19.08-.25 0-.11-.03-.17-.08-.17l.08-.08c0-.06-.03-.11-.08-.17v-.42c.05-.17.08-.31.08-.43v-.34l.09-.42v-.34c0-.11-.03-.2-.09-.25v-.09c0-.56-.05-.98-.17-1.26v-.09l.09-.51v-.42c.11-.9.31-1.92.59-3.05l.43-1.52.42-1.61v-.08c0-.06-.03-.11-.09-.17l-.08-.08v-.18l.59-2.45.59-2.28c.4-1.81.85-3.3 1.35-4.49l.18-.51c0-.05.02-.11.08-.16l.08-.34c.06-.06.12-.17.17-.34l.09-.51.25-.68c.06-.17.09-.31.09-.42.05 0 .08-.03.08-.09.11-.05.17-.19.17-.42l.08-.25.09-.26.09-.16c.05-.06.11-.17.16-.35.06-.11.09-.19.09-.25 0-.11-.03-.17-.09-.17l.09-.25c0-.12.05-.26.17-.42l.08-.17v-.26l.09-.25.08-.25c.06-.17.09-.29.09-.34v-.43l.08-.25c.06-.11.09-.2.09-.25 0-.12-.03-.18-.09-.18l.09-.08.08-.42v-.43l.08-.25v-.93l.43-1.35.42-1.36c.34-1.12.56-2 .68-2.62l.08-.17c.06 0 .09-.06.09-.17v-.08l.08-.09c.06-.05.11-.17.17-.33l.09-.26.08-.25v-.09c.51-1.24.9-2.45 1.18-3.64v-.08l.09-.17.09-.26c.05-.05.08-.11.08-.16 0-.06-.03-.12-.08-.17v-.17l.08-.17.08-.17.09-.34c.06-.06.11-.17.17-.34l.08-.17.09-.25.08-.26.09-.34v-.16l-.09.16v-.08c0-.11.06-.28.17-.51l.09-.25v-.25l.08-.26c.06-.05.08-.11.08-.17 0-.05-.02-.08-.08-.08l.08-.26.09-.34v-.42l.09-.42.08-.34v-.42l.08-.09h-.08v-.08l.08-.51.09-.42.08-.17.09-.25.42-1.44h.09c.05-.06.11-.17.16-.35l.34-.84c.06 0 .12-.05.17-.17v-.08l.09-.17c.05 0 .14-.09.25-.25l.08-.26.09-.17.09-.08c.11-.06.22-.26.33-.6l.09-.16c.22-.46.59-1.22 1.1-2.29.11-.11.25-.37.42-.76l.17-.34.25-.42c.12.79.2 1.55.26 2.28l.17.6c-.06.05-.09.14-.09.25l.09.25v.43l.08.5.17.77c0 .11.03.25.08.42v.5l.09.34v.25l.09.18v.42c.05.17.11.28.16.34v.25c.06.12.09.26.09.42v.26l.08.25v.26l.09.34c.05.22.11.36.17.42l.08.26.09.25c.05.22.11.36.17.42l.08.42.26.42v.26l.16.42.26.34v.09l.25 1.43.26 1.45c.22 1.18.42 2.08.59 2.7l.08.26c-.05 0-.08.02-.08.08l.08.08v.51l.09.26v.42c.11 1.29.36 2.57.76 3.81v.25l.08.25c0 .17.03.26.09.26l.08.25.08.43v.67l.09.26v.17l.09.25.08.34c.11.05.2.25.25.59v.34c.06.11.12.2.17.25v.26l.09.16.08.26.09.34c.05.17.11.28.17.33v.09l.16.42c0 .17.04.29.09.34 0 .06.03.15.09.26l.08.08v.17h.08l.17.51.17.42v.17l.09.34.25 1.44v.93l.09.42c-.06.06-.09.14-.09.26l.09.08v.17c-.06.06-.09.17-.09.34v1.27l.09.17v.67c0 .51.02 1.13.08 1.86v1.27l.08.43v.68l-.08.25v.25c0 .17.03.28.08.34l.09.34.09.25c.05.11.08.2.08.26 0 .05-.03.11-.08.17l.08.17v.25c0 .17.06.25.17.25l.08.59.09.6c.05.51.14.87.25 1.1v.08c-.06.06-.08.14-.08.26l.08.16v.09c.06 1.19.23 2.31.51 3.38l.09.26v.17c0 .22.02.34.08.34l.08.08c-.06 0-.08.03-.08.09v.42c0 .11.02.31.08.59 0 .28.06.48.17.59l.09.51v.43c0 .16.05.25.16.25v.34c0 .17.06.28.18.33v.17l.08.6.08.59c.06.51.15.88.26 1.1h.08c0 .28.11.59.34.93v.51c0 .22.06.37.17.42l.08.6.18 1.26v.59l.08.26v.25l.08.34v.85c.06.34.14.62.26.84l.08.26v.17c0 .17.06.28.17.34 0 .22.06.48.17.76l.09.33.08.35.08.25.09.17c0 .17.05.28.17.33l.17.43c.11.17.2.28.25.34l.09.16c.28.23.62.35 1.01.35h.42c.12.11.29.16.51.16.23 0 .45-.03.68-.08h1.69c.17.11.4.17.68.17h1.01l1.19.17c.51.11.93.17 1.27.17.39 0 .76-.08 1.1-.26.22-.11.39-.2.51-.25l.34-.25h2.11c.23.05.48.14.76.25.4.22.88.39 1.44.51l.85.25c.28.06.53.09.76.09.39 0 .73-.09 1.01-.26l.51-.42.59-.42c0-.06.06-.12.17-.18l.34-.25c.34-.17.51-.28.51-.34v-.08h.08c.57-.11.9-.42 1.02-.93.06-.34.11-.54.17-.59.11-.06.17-.23.17-.51.05-.17.08-.28.08-.34 0-.11-.03-.17-.08-.17.05-.06.08-.11.08-.17 0-.05-.03-.08-.08-.08l.08-.17.17-1.02c.06-.06.12-.2.17-.42V374l.09-.34.16-.68c.12-.28.18-.53.18-.75l.08-.35.08-.08c.17-.51.34-1.24.51-2.2l.09-.26c.05-.11.11-.3.17-.59.05-.16.08-.3.08-.42 0-.11-.03-.2-.08-.25l.25-1.1.09-.34.08-.43c.05-.16.08-.28.08-.33 0-.11-.03-.2-.08-.25v-.18l.08-.33.09-.43c.05-.22.08-.42.08-.59v-.26l.09-.25.08-.42c.06-.17.09-.28.09-.34 0-.11-.03-.17-.09-.17v-.25c.06-.06.09-.12.09-.17h-.09v-.34l.09-.34c.05-.17.08-.31.08-.42 0-.12-.03-.2-.08-.26l.08-.59c0-.28.03-.5.09-.67l.08-.51c0-.23-.03-.37-.08-.43v-.16c.05-.46.08-.85.08-1.19 0-.34-.03-.59-.08-.76v-.09l.08-.76v-.08l.08-.68c.17-1.41.45-3.05.85-4.91l.51-2.53c.22-1.02.42-1.89.59-2.63 0-.11-.03-.23-.08-.34l-.09-.17v-.25c.28-1.13.56-2.43.85-3.9l.68-3.8c.62-2.99 1.18-5.42 1.69-7.28l.25-.85c.06-.05.09-.17.09-.33l.08-.51c.11-.12.2-.31.25-.59l.17-.77.26-1.18c.05-.22.08-.48.08-.76h.09v-.09c.11-.11.19-.34.25-.67l.09-.43.08-.42.08-.34c.06-.05.12-.25.17-.59.06-.28.09-.48.09-.59l.08-.43c0-.16.06-.39.17-.67l.09-.34.08-.34.09-.42.08-.51c.11-.39.17-.65.17-.77v-.33l.09-.42c.05-.17.08-.32.08-.42 0-.12-.03-.2-.08-.26l.08-.08.08-.77c.06-.22.09-.45.09-.68l.08-.42v-.67c.06-.12.09-.23.09-.34 0-.11-.03-.2-.09-.25l.09-.18.42-2.2.51-2.28c.39-1.8.68-3.24.85-4.32l.08-.34h.08l.09-.16v-.26c.11-.11.19-.33.25-.68l.09-.33.08-.43v-.17c.56-1.97 1.02-3.97 1.36-6.01v-.16l.08-.34.08-.25c.06-.29.09-.46.09-.51v-.34l.08-.34.09-.34c.05-.17.08-.28.08-.34v-.16c.12-.06.2-.23.26-.51l.08-.35v-.33c.06-.11.11-.26.17-.42l.08-.6.09-.25v-.08l-.17.33c0-.11.06-.42.17-.93l.09-.5c.05-.18.08-.29.08-.34l.08-.51v-.34l.09-.42v-.25l.08-.26v-.51l.09-.17.08-.67v-.6c.06-.11.09-.25.09-.42v-.51l.17-.76v-.67l.08-.26.09-.51.59-2.28v-.09c.05-.11.14-.31.25-.59l.09-.34.08-.34.17-.67c.06 0 .11-.12.17-.34v-.17l.08-.17c.06-.11.14-.31.26-.6l.08-.33.17-.34v-.08c.17-.18.31-.54.43-1.11v-.25c.33-.85.73-2.11 1.18-3.81.17-.33.34-.79.51-1.35l.17-.51.17-.59c.17-.51.31-.88.42-1.1l.08-.25.17-.35c.06-.33.09-.56.09-.67l.08-.42.09-.43c.05-.39.14-.64.25-.76v-.25l.08-.34c.06-.17.09-.28.09-.34v-.17l.17-.84.25-1.02c.23-.73.34-1.3.34-1.69l.09-.09c.05-.05.08-.16.08-.34l.09-.25.08-.17c.3-.93.46-1.89.68-2.84l-1.6.07-.7.81Zm127.18-18.77.84.08.42.12.24.1c.11.01.17-.01.18-.06l.16.01.18-.06.51.04c.05.01.08-.02.09-.08l.34-.05.34.03c.28.02.48-.01.61-.12.05.07.1.1.16.1l.5.05c.51.04.99 0 1.46-.12l.25.02c.11.01.17-.02.18-.07l.08.01c0 .05.02.08.08.09l.18-.07c.04.06.15.1.32.11.11.02.2-.01.27-.06l.34-.05.17.01c.11.01.17-.01.17-.07l.17.02c.12.01.17-.01.18-.07l.08.01.69-.03c.28.03.48-.01.6-.11l.01-.09.08.01c.17.02.32-.06.44-.21.05.06.11.09.16.1l.09.01c.11.01.2-.04.27-.15l.34.03.68-.03 1.18.11c.22.02.39.01.51-.04l.01-.08.25.02c.06.01.12-.01.18-.07.11.01.22-.03.35-.13l.26-.07.18-.07.25.03c.06-.05.12-.1.18-.16l.27-.14c.06-.05.13-.13.19-.24l.09.01c.13-.27.22-.6.26-1l.03-.42c.07-.1.11-.24.13-.41.02-.23.01-.48-.02-.77l.14-1.6c.07-.16.13-.39.15-.67l.09-1.01.19-1.17.2-1.26c.03-.39.02-.76-.07-1.11-.04-.23-.08-.4-.12-.52-.1-.24-.13-.52-.1-.86l.12-1.26c.07-.16.12-.39.15-.67v-.08c.07-.17.13-.47.17-.92l.06-.68-.05-.34c.01-.11-.02-.17-.07-.18a.597.597 0 0 0-.13-.43c-.05-.06-.14-.1-.25-.11l-.08-.01c-.23-.02-.39-.06-.5-.13 0-.06-.02-.09-.08-.09l-.08-.01-.08-.09a.285.285 0 0 0-.16-.1c-.06 0-.14.02-.26.06-.17-.01-.28 0-.35.06l-.33-.03c.01-.06-.02-.09-.08-.1l-.09.08-.25-.02-.25-.11-.25-.02c0-.06-.05-.09-.16-.1l-.17-.01-.33-.12-.5-.04c-.05-.07-.14-.1-.25-.11l-.51-.05a.257.257 0 0 0-.16-.1l-.5-.05c0-.05-.05-.08-.16-.09l-.18.06-.17-.01a.34.34 0 0 0-.24-.11c-.17-.01-.29.01-.35.05h-.08c-.05-.06-.14-.1-.25-.11-.11-.01-.2.01-.26.06l-.17-.01.01-.09c-.05 0-.12.02-.17.07l-.26-.02c.01-.06-.05-.09-.16-.1-.11-.01-.17.01-.17.07l-.09-.01-.09.08-.26.06c-.06-.06-.16-.1-.33-.11-.12-.02-.2.03-.27.14 0-.05-.02-.09-.07-.09l-.01.09-.35.05c0-.06-.08-.09-.25-.11-.11-.01-.19.01-.25.06l-.01.09c-.06.05-.12.07-.18.06l-.18.07c-.04-.06-.13-.09-.24-.1-.05-.01-.12.02-.17.07l-.09-.01-.01.09-.09.07h-.08c0-.06-.08-.1-.25-.11-.12.04-.18.09-.18.15a.874.874 0 0 0-.35.05l-.17-.01c-.11-.01-.17.01-.18.06h-.07l-.1.07h-.08c-.12-.01-.18.01-.18.07l-.09.08-.17-.02c-.05-.06-.13-.1-.25-.11-.11.05-.2.1-.26.14-.01.06-.06.09-.18.08l-.18.06-.16-.01c-.17-.02-.29 0-.35.05l-.17-.01a.27.27 0 0 0-.17.07l-.35.05c-.05-.06-.13-.09-.24-.11l-.79.27-.26-.02-.51.04-.6.03c-.28.03-.54.04-.76.02l-.42-.04c0-.06-.02-.09-.08-.09-.06-.01-.11.01-.18.07l-1.43-.13a.34.34 0 0 0-.24-.11l-.34-.03c-.11-.06-.28-.11-.5-.13l-.84-.08c-.11-.06-.28-.11-.5-.13-.17-.01-.37 0-.6.03l-.42-.04-.26.07-.34-.03-.94.08-1.78.01-1.71.11c-1.36-.02-2.45.11-3.26.37l-.52.13.03-.33c.24-2.08.7-4.42 1.39-7.01l.99-3.4 1.07-3.39v-.08c.26-.94.45-2.12.58-3.52l.08.01c.06 0 .09-.03.09-.08l.17.01.1-.16.18-.07v-.08l.09.01.6-.03c.28.03.5.01.68-.03-.01.06.02.09.07.1 0 .05.02.08.08.09l.17.01c.11.07.22.11.33.12.17.01.34-.03.52-.12l.16.1.01-.09.17.02.09-.08-.01.09.42.03c.01-.05-.02-.09-.08-.09l.01-.09c.06.01.08.04.08.09l.09.01.09-.08.08.01.01-.08h.09l.09-.07.08-.07h.09l.1-.16.08.01.01-.09.18-.06.09-.08.42.04.08.09.16.1h.08v.09l.09-.08c-.01.12.01.17.07.18l.07.1c.05.11.1.17.16.17l.08.01c.1.13.29.23.57.31-.01.11.04.17.15.18l.16.1.17.1.07.09.17.02.09-.08c.06.01.08.04.08.1h.08l.01-.08.42.03c.06.01.12-.01.18-.07l-.01.09.09.01c.16.07.3.11.41.12.11.01.23-.01.34-.05l.08.09c.06 0 .08-.02.09-.08-.01.06.02.09.08.09l.08.01.08.09.17-.07.17.02c.06 0 .09-.02.09-.08l.09.01c.05 0 .08-.02.09-.08l.59.06.01-.09c.06.01.12-.07.19-.24l.08.1.08.01c.06 0 .09-.03.09-.08l.42.03c0 .06.02.09.08.1l.26.02c-.01.06.04.09.16.1l.17-.07.01-.08h.08c.06.01.09-.02.1-.07h.08l.09-.07.18-.07.17.01c0-.05.03-.1.09-.16l.1-.16.11-.16c.14-.38.27-.82.37-1.33l.01-.08c.07-.16.13-.55.19-1.17l.12-.42.08-.84.1-.24.01-.09c.02-.17.06-.36.14-.58l.03-.34c0-.05.04-.16.11-.33l.04-.42.27-1.16.2-1.18.18-1.09c.02-.21 0-.39-.04-.51.03-.33.1-.75.2-1.25l.04-.42.12-.42c.01-.16.06-.39.15-.66v-.09c.08-.27.19-.81.31-1.59l.05-.5c.01-.17 0-.34-.04-.52l.01-.08-.08-.01a.868.868 0 0 1-.24-.18l.01-.09-.09-.01c-.04-.11-.1-.18-.15-.18-.06-.01-.12.02-.18.07l-.17-.02c.01-.05-.02-.09-.07-.09l-.09-.01-.08-.09-.08-.01-.08-.09-.08-.01-.15-.18-.17-.02.01-.08-.09-.01c0-.05-.02-.09-.08-.09l-.08-.01-.08-.09-.08-.01v-.08l-.08-.01-.08-.09-.08-.01c.01-.06-.02-.08-.08-.09l-.08-.01a.257.257 0 0 0-.16-.1c-.06 0-.12.02-.18.07.01-.05-.02-.11-.06-.18-.06 0-.12.02-.18.07h-.09c.01-.06-.02-.09-.07-.1h-.09c0-.06-.02-.09-.07-.09l-.1.07-.01.09-.16-.02c0-.05-.05-.09-.16-.1-.06-.01-.09.02-.09.08l-.1.07h-.08c-.05-.06-.11-.1-.16-.1-.06-.01-.09.02-.1.08l-.01.08-.16-.01c0-.06-.02-.09-.08-.1-.05 0-.08.02-.09.08-.06-.01-.09.02-.09.08l-.01.08-.08-.01c0-.05-.02-.09-.08-.09-.06-.01-.09.02-.09.08l-.09-.01-.08.08-.09-.01c0-.06-.02-.09-.08-.1l-.01.09-.08-.01c-.06 0-.09.03-.09.08l-.1.08-.08-.01c.01-.05-.02-.09-.08-.09-.05-.01-.09.04-.1.16 0 .06-.03.08-.08.07l-.17-.09a.2.2 0 0 0-.17.06h-.09l-.09.07-.17-.02c.01-.05-.02-.08-.08-.09-.05 0-.08.02-.09.08l-.25-.02-.18.07-.08-.01.01-.08-.75-.16-1.94-.17.01-.08-.26-.02-.15-.19-.25-.11a.34.34 0 0 0-.24-.11c-.1-.17-.23-.27-.4-.29l-.25-.02c-.11-.12-.27-.19-.5-.21-.04-.06-.1-.1-.16-.1l-.16-.02-.52.04-1-.17-1.09-.19c.12-.67.2-1.28.25-1.84.06-.57.07-1.04.05-1.45l.01-.16c.07-.16.12-.36.14-.58l.06-.68c.06-.05.1-.16.12-.33 0-.11-.01-.22-.06-.34l.05-.51c.05 0 .09-.05.1-.16l.02-.26c.06-.04.1-.18.12-.41l.04-.42c.01-.17.05-.25.11-.25.12-.04.18-.15.2-.31a.741.741 0 0 0-.06-.35l.01-.17.11-.16c.06-.05.09-.13.11-.24l.02-.26c.06-.05.09-.13.1-.24l.02-.26c.07-.1.11-.24.13-.41.06-.05.1-.16.12-.33 0-.11-.02-.2-.07-.26l.1-.16.01-.09.08.01.01-.08c.06-.05.1-.13.11-.25.01-.16 0-.28-.06-.34l.02-.17c.01-.12.05-.19.11-.24.05 0 .08-.03.09-.08.06-.05.1-.16.11-.33.02-.17 0-.29-.05-.34l.03-.34c.06 0 .08-.02.09-.08.07-.11.11-.24.12-.42.02-.16 0-.3-.04-.42l.03-.34.09-.08.01-.17c.06.01.1-.04.1-.15.02-.18 0-.26-.06-.27l.03-.33c.06-.05.1-.11.1-.17h-.08l.01-.17a.99.99 0 0 0 .13-.42c-.05-.17-.09-.29-.14-.35v-.08c.07-.1.11-.25.13-.42.01-.16-.01-.28-.06-.34l.05-.5c0-.06-.02-.12-.07-.18l.05-.59c.02-.17 0-.25-.06-.26l.02-.17-.06-.26.03-.34c.06-.05.09-.1.09-.16l-.08-.01-.07-.09.03-.42 1.35.12c.56.05 1.02.07 1.36.04l.08.01c0 .05.02.08.08.09h.08c.05.07.13.1.25.11l.25.03c.22.08.47.12.75.15.34.03.71.01 1.12-.07l.25.02c.11.01.17-.01.17-.06l.42.03c.05.06.11.09.17.1l.67.06-.16-.1.17-.07.34.03.09-.07.17.01.09-.08.26.02.17-.06h.09l.17-.07.18-.06.17.01.09-.07.01-.09.25.02.26-.06.26-.06.67.06.25.11.16.1.25.02c0 .06.02.09.08.09l.08.01c.06.06.11.1.16.1l.25.11c.1.12.24.19.41.2l.08.01c.27.14.66.26 1.16.36.1.07.25.11.41.12l.33.12.33.2.24.1c.05.01.11-.01.17-.07l.17.1.09-.07.51.04c.05.01.08-.02.09-.08l.83.08c.12.01.21 0 .27-.06.05.06.1.09.16.1l.08.01c.28.08.56.13.84.16.28.02.56.02.85-.01l.17.01c.11.01.17 0 .17-.06l.09.01c-.01.05.02.08.08.09h.08c.05.07.16.1.33.12.11.01.2-.01.26-.07l.34-.05.08.09c.11.01.17 0 .18-.06l.17.01c.11.01.17-.01.17-.07l.68.06c.22.02.39.01.51-.03l.01-.09c.16.01.34-.06.53-.21.04.06.1.09.16.1l.08.01c.11.01.18-.04.18-.15l.93.08c.05.06.13.1.25.11l.42.04c.1.06.24.1.41.11.17.02.29.01.35-.05l.09-.08.17.02c.11.01.17-.01.17-.07.12.02.23-.01.35-.05l.18-.07.17-.07.25.02c.06-.05.13-.1.19-.15l.18-.15c.12-.05.21-.1.27-.15.2-.38.33-.82.37-1.33l.01-.08c.07-.1.11-.33.15-.67l.04-.5.13-.5.1-1.09c.07-.17.12-.39.15-.67l.01-.17.09-.08.07-.76.28-1.16.18-1.17c.08-.22.13-.45.15-.67.02-.17 0-.34-.04-.51-.04-.23-.08-.4-.12-.52-.04-.18-.05-.43-.02-.77l.09-.93.12-.41.07-.76c.13-.21.22-.58.26-1.08l.08-.84c.01-.12-.01-.18-.07-.18a.579.579 0 0 0-.13-.44l-.07-.17-.08-.01c-.23-.02-.39-.06-.5-.13.01-.06-.02-.09-.08-.09l-.08-.01.01-.08a.734.734 0 0 0-.34-.12c-.16-.01-.28.01-.34.06l-.34-.03.01-.09-.09.08-.17-.02-.24-.1-.17-.1c-.05-.07-.1-.1-.16-.1l-.16-.02-.25-.11-.42-.03.01-.09h-.09c.01-.06-.02-.09-.07-.09l-.34-.04-.16-.1v-.08c-.05-.01-.11.02-.17.07l-.17-.01-.07-.1-.09-.01c-.05-.06-.13-.1-.25-.11l-.16-.01c-.05-.06-.14-.1-.25-.11-.11 0-.2.01-.26.06l-.08-.01c-.05-.05-.13-.12-.24-.18-.12-.01-.2 0-.26.06l-.09-.01.01-.08c-.06 0-.11.01-.18.07l-.16-.02c0-.06-.05-.09-.16-.1-.06 0-.12.02-.18.07l-.08-.01-.01.08-.25-.02a.382.382 0 0 0-.25-.1c-.11-.01-.2.01-.26.06-.06-.01-.09.02-.09.07l-.25-.02c-.06-.06-.11-.1-.16-.1a.371.371 0 0 0-.26.06c-.06 0-.09.03-.1.08l-.09.08-.16-.1c.01-.06-.05-.09-.16-.1-.12.05-.18.1-.19.15h-.08l-.09.07-.09-.01c.01-.05-.04-.09-.16-.09-.11-.02-.17.01-.17.06a.741.741 0 0 0-.35.06l-.17-.02c-.05 0-.09.02-.09.08l-.25-.03c-.06 0-.09.03-.1.08l-.17.07-.08-.01a.446.446 0 0 0-.25-.11c-.11 0-.17.05-.18.16-.01.05-.07.08-.18.07l-.42-.04c-.06-.01-.12.02-.18.07l-.17-.01c.01-.06-.02-.09-.07-.1l-.01.09-.34.05a.446.446 0 0 0-.25-.11c-.11 0-.17.02-.18.07l-.08-.01c-.05-.06-.16-.09-.33-.11-.17.05-.32.08-.44.13l-.08-.01.01-.08-1.43-.21-1.44-.05-.25-.02-.41-.12-.52.03c-.39-.03-.7-.09-.92-.16l-.08-.01c0-.06-.05-.09-.16-.1l-.34-.03-.41-.12-.41-.13h-.09c-.05-.06-.16-.13-.32-.2l-.09.07c-.16-.18-.41-.29-.74-.32l-.25-.02-.17-.1c-.22-.07-.52-.13-.91-.16l-.09-.01c-.05-.06-.13-.1-.25-.11l-2.78-.25-1.42-.22-.84-.07c-.79-.07-1.44-.07-1.96-.01h-.08l-2.24.39-2.33.3c-1.77.23-3.33.29-4.69.17-.45-.04-.99-.23-1.64-.57l-.91-.34-.9-.34-.25-.1c-.11-.01-.2.01-.26.06a9.52 9.52 0 0 0-1.75-.33c-.4-.03-.82-.04-1.27-.03-.29-.02-.49.04-.61.2-.07.05-.14.16-.21.32l-.29.4-.38.48-.02.25-.12.33-.29.4-.2.41c-.21.31-.31.62-.34.9l-.02.25-.1.07-.03.43.04.43v.93l-.15.75-.16 1.86-.03 1.27c-.02.74-.04 1.38-.09 1.94l-.23 1.52-.07.84c-.08.78-.07 1.35.01 1.7l.13.52.12.44.08.17.05.34.05.43.08.01-.01.09c.02.46.11.72.27.79.11.01.17.04.16.09 0 .06.05.09.16.1.06.01.12-.01.18-.06l.01-.09.42.04c0 .06.05.09.16.1l.17.02.25.1.33.03-.01.09c.17.07.39.12.67.14l.09.01c.04.06.1.1.15.1l.17.01-.05.68c-.12-.01-.18.07-.2.23-.02.17 0 .29.05.35v.08c-.19.22-.3.43-.32.66l-.08-.01c-.08.22-.13.5-.16.84l-.09 1.01c-.06.04-.1.13-.11.24l-.02.25c-.06 0-.09.05-.1.17l-.06.66c-.07.12-.11.28-.13.5-.02.18 0 .32.04.43l-.01.17c-.01.12.01.18.07.18-.06.05-.1.1-.1.16l-.04.42c-.16.5-.26 1-.3 1.5-.03.34-.04.68-.01 1.02l-.02.17c0 .12.01.17.07.18l-.01.08c-.12.16-.21.44-.24.83l.05.43-.12.41c-.07.05-.1.14-.11.25l-.03.25c.06.01.08.04.08.09 0 .06-.04.14-.11.25l-.08.93.08.09c.04.11.06.31.03.59l-.02.26.05.26c-.02.28-.01.51.03.68-.01.73.02 1.36.09 1.88l-.01.08c-.03.28.01.45.12.52l-.09.08.07.18-.02.17c-.01.16.04.25.15.26l-.06.67.05.35c-.01.17.01.28.06.35l-.19 1.08-.04.42-.1.25-.11.33-.01.09c-.01.05-.04.1-.1.15l-.02.17-.19.24-.04.43c-.06.04-.09.13-.11.23l-.1.25-.02.17c-.06 0-.09.05-.1.16l-.01.17c-.06.05-.11.19-.13.41l-.02.26-.1.16c.02-.11-.01-.17-.07-.18l-.17 1.94c-.06.05-.1.14-.11.25l-.03.33a8.94 8.94 0 0 0-.32 1.67c-.03.4-.04.79-.02 1.19l-.08.93c-.01.06.01.09.07.09l-.01.08c-.1.51-.22 1.21-.35 2.09l-.09 1.01-.19 1.09-.01.09-.1.24-.11.25-.02.25-.2.33-.03.33c-.06.05-.1.17-.12.33l-.09.16-.02.17c-.06.05-.09.1-.1.16l-.01.17-.13.41-.01.18.07.17-.05.51c-.06.05-.1.16-.11.32-.02.11.01.2.06.26l-.03.34-.1.16c-.02.22-.01.37.05.43l.08.01-.03.34-.14.58-.03.34.06.34-.02.17c-.01.11.01.17.07.17l-.12.42c.06.57.06 1.22-.01 1.96-.04.45-.12.95-.22 1.5l-.25 1.76-.25 1.85-.01.17-.17-.02c-.06.06-.1.11-.1.17l-.2 1.25-.11 1.18c-.08.91-.2 1.66-.37 2.26l-.11.33-.12.33v.09c-.19.15-.38.42-.59.79v.09l-.1.16-.11.24-.11.33-.11.25c-.07.05-.1.13-.11.24l-.02.26-.52.12c-.3.08-.53.2-.71.36-.01.06-.05.19-.13.41l-.21.49-.19.24-.1.16-.06.68-.22.49-.21.4c-.07.28-.13.53-.15.76l-.02.25.08.09-.03.25.05.43.13.44.18.86.02.68.1.78.15 1.2.24 1.13c.15.75.26 1.41.33 1.98l.12 1.46.08.94c.11.75.26 1.3.45 1.66l.22.44.31.36c-.01.06.01.12.06.18l.14.35.23.36-.01.09c.18.47.36.71.52.73l.26.02c-.01.05.04.09.16.1.11.01.17-.04.18-.16l.01-.08.08.01.35-.05c.05.06.1.09.16.09l.26-.06.25.02.26-.05h.09l.08.09.16.02c.17.01.37 0 .6-.03l.08.01c.06.06.14.09.25.1.06-.05.12-.1.19-.15l.34-.06.25.03c.12-.05.21-.1.27-.15l.09-.08.17.02c.11.01.2-.01.26-.06l.09-.08.17.02c.11.01.17-.02.18-.07l.08.01.01-.09.09-.07.18-.07c.11 0 .17-.02.18-.07l.17-.07.26-.06.18-.16.1-.07h.08c.24-.14.42-.32.56-.54l.26-.06.08.01.19-.16c.46-.13 1.03-.21 1.72-.27l.86-.09.86-.09c.05.01.11-.02.17-.07l.02-.17.08.01 1.37-.13 1.3-.23c.8-.09 1.51-.12 2.13-.06l.42.04.26-.06.16.1.34.03.26-.07.42.04c.11.01.2-.01.26-.06l.08.09.25.03.26-.07.17.02c0 .06.05.09.16.1.12-.05.18-.1.18-.16l.68.07.17-.07.17.02c.11 0 .2-.02.26-.07l.09-.07.1-.08c.17.01.25-.01.26-.07l.26-.05.27-.15.08.01.26-.06.18-.16.09.01.77-.1.77-.01c.62-.06 1.11-.13 1.46-.22l.34.04c-.01.05.04.08.16.09l.26-.06.08.01c.73.07 1.45.02 2.14-.15l.25.03c.11.01.18-.01.18-.07l.09-.08.84.08.18-.07.17.02.17-.07-.16-.02c0-.05.09-.08.26-.06l.25.02.1-.16.17.01.09-.07.17.01.17-.06.18-.07.26-.07c.44.16.92.26 1.42.3Zm-84.26-34.26-.09.68.09.43v2.37l.08.42v1.27l.17.51v.5c.06.23.14.48.26.77l.08.34.08.42.09.42v.17c0 .11.03.31.09.59.11.34.19.54.25.59l.08.34.17.51.09.51c.11.39.22.65.34.76l.08.17c.06.23.14.48.26.76l.5 1.36.34.84c.17.34.31.56.42.68l.26.51c.05.22.14.37.25.42l.42 1.02 1.27 1.85.68 1.02.68.93.76.93.42.51.51.59c.68.79 1.41 1.52 2.2 2.2 1.69 1.47 3.47 2.57 5.33 3.3 1.86.68 3.67 1.02 5.42 1.02h1.01c.17 0 .34.03.51.08l.17.09c.11.05.22.08.34.08l.08-.08c2.6-.34 5.25-1.47 7.96-3.38l.84-.68.68-.51 1.1-.85 1.02-.84 1.09-.85.6-.51h.08l.59-.59.09-.08c.56-.23 1.18-.63 1.86-1.19l.09-.08c.05-.06.16-.14.34-.26l.5-.34c.12-.17.28-.36.51-.59l.51-.51c.11-.05.28-.22.51-.51l.25-.33.25-.17c.06 0 .11-.03.17-.09l.17-.25c.11 0 .25-.14.43-.42l.25-.34.25-.26v-.08c.17-.06.37-.25.59-.59l.26-.43.25-.33.09-.09c.11-.05.25-.23.42-.51l.25-.42.26-.34.68-1.1c.11 0 .25-.17.42-.5.17-.29.25-.48.25-.6l.17-.33c.51-.86.88-1.61 1.1-2.29l.08-.09h-.08l.17-.34c.11-.22.23-.47.34-.76l.17-.42.17-.34.08-.33.17-.34c.11-.23.17-.4.17-.51l.42-1.02.09-.25c.05 0 .11-.06.17-.17.05-.06.14-.23.25-.51.11-.22.17-.36.17-.42v-.43l.17-.33v-.43c0-.39-.14-.73-.42-1.01v-.17c0-.06-.09-.26-.26-.59l-.17-.34-.08-.26-.26-.76-.33-.59c-.29-.45-.8-.76-1.53-.93l-.84-.17c-.57-.11-1.07-.17-1.53-.17-.56 0-1.18-.22-1.86-.67-.28-.12-.68-.23-1.18-.34l-.59-.17-.6-.17-.67-.09-.76-.16c-.34-.06-.6-.18-.77-.35l-.42-.25c-.12-.05-.26-.08-.42-.08l-.09.08h-.25a.374.374 0 0 0-.25-.08c-.23 0-.51.14-.85.42l-.6.42-.5.34-.42.09-.34.08c-.06.06-.15.17-.26.34l-.17.17-.25.17-.59.25c-.23.11-.37.2-.43.25-.39.4-.7.85-.93 1.36-.9 1.86-2.06 3.92-3.46 6.18l-.09.08c-.11.06-.23.2-.34.42l-.25.26-.17.34-1.19 1.77-1.27 1.7c-.45.62-.87 1.15-1.26 1.61l-.77.75-.42.34-.34.34c-.28.23-.56.34-.85.34-.34 0-.62-.14-.84-.42l-.17-.34v-.17c-.06-.11-.17-.31-.34-.59-1.01-1.86-1.69-4.15-2.03-6.86v-.08c-.28-2.26-.51-4.46-.68-6.6-.17-1.75-.25-3.5-.25-5.25 0-.85.02-1.69.08-2.54v-1.18l.09-1.19v-.25l.08-.42v-.51c.06-.23.09-.4.09-.51 0-.17-.03-.28-.09-.34v-.16c.11-1.02.17-1.87.17-2.54v-.51l.09-.6c.05-.62.08-1.12.08-1.52v-.59c.06-.34.09-.62.09-.85v-.34l.08-.59.09-.68c.05-.5.08-.87.08-1.1v-.08l.08-.34.09-.34c.05-.17.09-.31.09-.42v-.34c.05-.56.25-1.35.58-2.37l.43-1.19c.17-.44.28-.81.34-1.09.05-.34.11-.54.17-.59l.67-1.7.68-1.69.76-1.69.76-1.7.09-.08h-.09l.09-.08c.17-.29.34-.57.51-.85.22-.39.39-.68.51-.85v-.08c.1 0 .22-.11.33-.34.17-.22.25-.4.25-.51l.51-.76h.09l.08-.17.17-.17.09-.17c.11-.05.25-.19.42-.42l.17-.34.25-.25c.12-.23.23-.34.34-.34.12 0 .26-.09.42-.25.18-.17.26-.31.26-.43l.17-.25.17-.17h.08c.06 0 .11-.03.17-.09l.26-.25V159h.08c.06 0 .11-.04.17-.09l.17-.25a1 1 0 0 0 .42-.26h.17l.08.09v-.09l.09.09h.09v.08h.08v.09h.08l.09-.17v.08h.25v-.08h.08l.09.08v.09l.09.08.08.17c.06.12.14.17.25.17v.08h.09l.08.17c.17.29.37.54.59.77v.17l.09.16c.06.12.11.18.17.18l.17.33.25.34v.08l.09.18c0 .11.02.19.08.25l.09.17.08.25v.51c.06.28.11.45.17.51l.08.08c0 .06.03.08.09.08l.09.26v.42c0 .06.02.11.08.17.11.06.28.12.51.17 0 .06.05.09.17.09l.25.08c.34.06.62.09.85.09.39 0 .64-.06.76-.17h.76l.51-.18h.76c.39 0 .67.09.85.26.11.11.28.23.5.34.28.17.59.25.93.25h.26c.34 0 .73-.08 1.18-.25l.59-.25.6-.26h.59c.11 0 .2-.03.25-.09l.09-.08.08-.08c.06 0 .09.02.09.08.28-.06.48-.17.59-.34.05 0 .09-.02.09-.08.11 0 .22-.03.33-.09l.09-.08h.17l.5-.08c.18 0 .31-.06.43-.18h.25c.51 0 .82-.16.93-.5h.08c.57 0 .99-.39 1.27-1.19v-.25c.06-.23.09-.51.09-.84v-.94c.05-.05.09-.14.09-.25 0-.17-.04-.34-.09-.51l-.09-.42-.08-.42-.17-.85-.08-.68c-.11-.56-.26-1.04-.43-1.43v-.09c0-.17-.05-.37-.17-.59l-.16-.43-.18-.34.09-.08c0-.06-.03-.08-.09-.08-.05-.4-.25-.91-.59-1.53-.33-.62-.62-1.1-.84-1.43l-.34-.6-.25-.42-.34-.43c-.23-.39-.46-.67-.68-.84l-.17-.34c-.23-.34-.59-.79-1.1-1.35l-.59-.6-.51-.67-1.1-1.02c-.06-.17-.31-.45-.76-.84-.45-.34-.79-.57-1.02-.68l-.17-.09c-.22-.22-.5-.45-.84-.67l-.51-.43c-.22-.11-.45-.2-.68-.25v-.09c-.39-.22-.76-.39-1.1-.51l-1.35-.5-1.61-.25-.84-.09-.85-.08h-.51c-.11-.06-.37-.09-.76-.09l-.42.09h-.68c-.12 0-.31.03-.59.08l-.6.09-.42.08-1.35.34c-.4.05-.91.23-1.53.51-.73.28-1.21.54-1.43.76l-.34.17-.34.17c-.29.11-.43.19-.43.25l-.08.08c-.17.06-.45.2-.85.43l-.5.34-.43.34a20.62 20.62 0 0 0-5.41 5.16l-.17.16-.17.26c-.11.11-.17.2-.17.25v.09l-.08.08c-.34.28-.76.77-1.27 1.44l-.6.85-.59.85c-.05.05-.17.19-.34.42l-.16.25-.26.34c0 .11-.12.31-.34.59l-.34.43-.25.42c-.06.05-.17.25-.34.59-.11.23-.22.45-.34.68l-.17.5-.25.6c-.28.5-.45.87-.51 1.1-.34.62-.54 1.1-.59 1.44-.79 1.92-1.27 3.21-1.44 3.89l-.08.34c-.23.51-.34.88-.34 1.1v.08l-.09.34-.17.43c-.05.28-.08.47-.08.59v.16l-.09.26c-.05.11-.08.2-.08.25v.09l-.26.68v.33l-.16.34c-.06.28-.09.51-.09.68v.08l-.68 2.29-.16.5-.09.26-.25.68-.26.67v.09h-.08l-.09.25v.17c-.11.12-.16.23-.16.34-.06.11-.15.31-.26.59l-.17.59v.26c-.05.06-.14.2-.25.42v.25l-.17.26-.09.42c-.05.06-.08.17-.08.34l-.08.42c-.12.12-.2.43-.26.93l-.08.51c-.06.17-.12.31-.17.43l.08-.35-.08.26-.17.6c0 .22-.03.36-.09.42v.33l-.08.34v.59c0 .12-.03.29-.08.51v.34l-.09.34v.34c-.06.06-.11.22-.17.5v.26l-.08.34v.17c-.34 1.97-.51 4-.51 6.09v1.86c0 .17.03.26.08.26v.25a37.9 37.9 0 0 0-.17 3.81c0 1.52.06 3.25.17 5.16v.25c-.05.12-.08.31-.08.59Zm-36.01 42.37c.05 0 .08-.06.07-.17l.09-.09 1.18-.04 1.18-.14.84-.03c.46-.02.88 0 1.28.04l.34-.01.08.08 1.1-.05.09.08c0 .06.06.09.17.08l.25-.09.09-.01c.05.06.12.09.17.08.11 0 .17-.03.17-.09l.33-.01.26.07.26-.01c.1 0 .19-.03.25-.1l.08-.08h.08c.11 0 .2-.04.25-.1l.17-.09.25-.1h.08l.25-.09.08-.17.08-.01.68-.11.68-.02c.5-.03.92-.07 1.26-.14l.25-.01c.06.06.12.08.18.08l.33-.01c.23.04.46.07.69.05.33-.01.7-.08 1.09-.21l.25-.01c.05 0 .09-.03.08-.09l.34-.01.17-.09c0 .06.03.08.09.08l.5-.02.17-.09-.17.01c.05-.06.13-.09.25-.1h.17l.08-.09.17-.01.08-.08.17-.01.08-.09.16-.1h.09l.16-.09.26-.09h.08l.17-.09-.01-.09.26-.01.16-.18 1.1-.04.26.07h.17c0 .06.02.08.08.08l.17-.09c0 .12.06.17.17.16l.18.08h.08c0 .06.09.08.26.07h.08c.29.1.68.14 1.19.12.06.12.21.16.43.15l.34.08.34.07.18.07c.11 0 .17-.03.16-.09l.26-.01c.05-.06.1-.09.16-.09s.09.03.09.08h.17c.05 0 .11-.03.16-.09l.51-.02c.23-.01.4-.07.5-.19h.09c0 .05.03.08.08.08l.17-.01a2.478 2.478 0 0 0 1.52-.14l.08-.09.18.07c.05 0 .08-.02.08-.08l.08-.09v.08h.17c.06.05.18.07.34.07.12-.01.2-.04.25-.1l.25-.09.17-.01c.06 0 .11-.03.17-.09h.17c.05-.01.11-.04.16-.1l.68-.02c.22-.01.4-.07.5-.19.11-.01.26-.1.42-.27.05.05.14.07.25.07.05-.06.11-.11.16-.17l.25-.1 1.27-.05c.12.05.26.08.43.07.11 0 .22-.06.33-.18v-.09l.34-.01-.01-.08c.12-.01.23-.04.33-.1l.17-.09.17-.09.08-.01.17-.09c.05 0 .08-.06.08-.17l.25-.09c.05-.07.1-.15.16-.27.15-.34.23-.68.21-1.02l-.02-.42c.05-.17.07-.57.04-1.19l-.06-1.6c.05-.18.07-.4.06-.68l-.01-.18.08-.09-.01-.33-.1-.25v-.17l.12-1.19.04-1.19-.02-.42c-.01-.29-.05-.53-.11-.76-.07-.22-.13-.39-.19-.5-.06-.17-.1-.42-.11-.76l-.06-1.35c.05-.17.07-.4.06-.68v-.08c.05-.18.06-.49.05-.94l-.05-1.01c0-.12-.03-.17-.09-.17a.77.77 0 0 0-.1-.42c-.06-.05-.11-.08-.17-.07h-.08c-.23.01-.37-.02-.43-.07 0-.05-.03-.09-.09-.08h-.08l-.09-.08a.338.338 0 0 0-.26-.07c-.16.06-.27.12-.33.18l-.25.01a.244.244 0 0 0-.18-.08h-.17l-.16-.07-.26.01c0-.06-.03-.08-.09-.08l-.16.09-.26-.08-.34-.07-.08.01a.26.26 0 0 0-.18-.08l-.34.01-.08-.08c-.01-.05-.04-.09-.09-.08l-.08.08-.17.01-.09-.08h-.08c-.01-.05-.04-.08-.09-.07-.06 0-.12.03-.17.08l-.17.01c-.05-.05-.14-.08-.25-.07-.12 0-.2.03-.25.09h-.09c0-.05-.06-.08-.17-.07-.12 0-.2.03-.25.09h-.09c0-.05-.06-.08-.17-.07h-.17c0-.06-.06-.08-.17-.07-.06.06-.08.11-.08.17h-.08l-.09.09h-.16a.351.351 0 0 0-.26-.07c-.11 0-.2.04-.25.09-.06.01-.08.04-.08.09l-.26.01c0-.05-.06-.08-.17-.08-.11.01-.17.07-.16.18 0-.05-.03-.08-.09-.08v.09l-.08.09h-.17c0-.06-.03-.08-.09-.08l-.08.09c-.11 0-.17.03-.16.09h-.09l.01.08h-.09l.01.09a.403.403 0 0 0-.26-.08c-.06.01-.11.04-.17.1-.05 0-.14.03-.25.09l-.17.01c-.05 0-.08.04-.08.09h-.17c-.11.01-.16.04-.16.09l-.09.09-.16.01c0-.06-.06-.08-.17-.08-.12.06-.17.12-.17.18 0 .05-.05.08-.16.09l-.26.01c-.11 0-.22.04-.33.09l-.17.01c-.06.01-.09.04-.08.09l-.33.1c-.07-.06-.13-.08-.18-.08-.11.01-.2.04-.25.1l-.34.01c-.17 0-.31.04-.42.1l-1.44.06-1.35.13-.17.01.09-.09-.01-.17c.05-.05.1-.14.16-.26l-.01-.34c.05-.05.08-.17.07-.33-.01-.18-.04-.29-.1-.34v-.17c.11-.06.16-.18.15-.35a.836.836 0 0 0-.1-.33v-.09c.11-.06.16-.15.16-.25l-.01-.26c.05 0 .08-.06.08-.17-.01-.17-.04-.25-.1-.25v-.09l-.09-.08-.02-.34c.06-.11.08-.26.07-.42l-.01-.34c0-.05-.03-.08-.09-.08l-.01-.35c.06-.05.08-.16.07-.33 0-.11-.03-.2-.09-.25-.01-.06-.03-.08-.09-.08l-.01-.43c.05-.05.07-.14.07-.25-.01-.11-.04-.2-.09-.25l.07-.09h-.08l-.09-.08v-.08c.05-.06.08-.18.07-.34 0-.12-.04-.2-.09-.26a.899.899 0 0 0-.11-.42l-.01-.25c0-.05-.03-.11-.08-.17l-.02-.25c.06-.11.08-.2.08-.26l-.09-.08-.01-.25c.06-.06.08-.14.08-.26-.07-.16-.13-.24-.18-.24a.382.382 0 0 1-.1-.25l-.01-.43c-.02-.22-.05-.36-.11-.41v-.09l.08-.09c-.01-.11-.03-.17-.09-.16l-.02-.51c.05-.06.08-.17.07-.35 0-.11-.04-.19-.09-.24v-.09c.05-.12.07-.28.06-.51l-.03-.68c.04-.62.06-1.33.09-2.12l-.04-1.01.05-.94-.06-1.6c-.03-.62-.02-1.07.03-1.36l-.01-.09c.06-.05.09-.11.08-.16l-.01-.51c.1-.18.18-.4.22-.69l.06-.6v-.08c.05-.11.07-.31.06-.59v-.09c.16-.12.23-.37.22-.77l-.02-.59.07-.26c.1-.28.17-.71.21-1.28l-.01-.08c.06-.06.08-.14.08-.26a.963.963 0 0 0-.1-.25l-.02-.59.04-1.19.08-2.12.01-2.03c.03-.79.03-1.52 0-2.2-.02-.62-.08-1.19-.15-1.69l-.01-.09-.71-3.1-.55-3.2c-.35-1.84-.56-3.56-.62-5.14l-.05-1.26c-.03-.68.08-1.5.33-2.48l.29-1.28.11-1.27.07-.43-.01-.34c.08-.85.1-1.7.07-2.54-.03-.56-.07-1.13-.15-1.69l-.01-.25.17.08.17.07c.11 0 .2-.04.25-.09l.26-.01.08-.09c.06 0 .09.03.09.08h.17c.11-.01.16-.04.16-.1l.25-.09.34-.02c.22 0 .39-.04.51-.1 0 .06.02.08.08.08l.59-.02c.34-.01.71-.08 1.1-.21l.25-.01c.06 0 .11-.03.16-.09.01.05.04.08.09.08l.17-.01c.06.06.15.08.26.08.11-.01.2-.07.25-.18l.42-.01c.11-.01.17-.04.17-.1l.16-.01c.06 0 .09-.03.09-.09l.67-.02c.23-.07.39-.12.51-.19l-.01-.08.09-.01c.1 0 .22-.06.33-.18l-.01-.09c.06.06.12.09.18.09l.08-.01c.11 0 .17-.06.16-.18l.85-.03.08-.09c.06.06.12.08.17.08l.85-.03c.17-.01.28-.04.34-.1l.07-.08.18-.01c.05 0 .1-.03.16-.09.05 0 .17-.04.34-.1l.16-.09.16-.09.09-.09h.09c.05-.01.13-.07.24-.18l.17-.09c.05-.12.1-.2.15-.27h.09c.04-.28.06-.57.05-.85l-.02-.59c.05-.17.06-.57.03-1.18l-.04-1.02.08-.26-.02-.42c.05-.11.08-.31.07-.6l-.05-1.1.04-1.18.12-1.19c-.01-.39-.08-.76-.21-1.1-.06-.22-.1-.38-.1-.5-.13-.28-.2-.67-.22-1.17l-.02-.51.07-.43c.05-.17.07-.4.06-.68v-.09c.04-.16.06-.47.04-.93l-.04-1.01c0-.12-.03-.17-.08-.17a.542.542 0 0 0-.2-.41c-.05-.06-.11-.09-.16-.09l-.09.01c-.17-.05-.31-.1-.43-.15 0-.06-.03-.08-.09-.08l-.08.08v-.08a.717.717 0 0 0-.34-.07c-.17 0-.29.04-.34.1l-.17.08-.08.01c0-.06-.06-.08-.17-.08l-.09.01-.25-.08-.17.01c-.06-.05-.12-.08-.17-.08l-.17.01-.26-.08-.42.01-.01-.16c-.06 0-.11.03-.17.09l-.17.01-.17-.08h-.08c-.01-.05-.06-.08-.17-.07l-.17.09-.09-.08h-.08c-.06-.05-.12-.08-.18-.08l-.25.1c-.05-.06-.14-.08-.25-.08-.12 0-.17.04-.17.09l-.08.01c-.06-.06-.15-.11-.27-.17-.1.01-.19.07-.24.19h-.09c0-.05-.03-.09-.08-.09l-.26.02c0-.06-.03-.09-.08-.09-.12.01-.17.04-.17.09l-.08.01v.08l-.26.02c0-.06-.02-.09-.08-.09s-.12.04-.17.09c-.11.01-.2.04-.25.1-.06 0-.08.03-.08.09h-.17c-.06-.05-.14-.07-.26-.07-.11 0-.16.03-.16.09-.06 0-.08.03-.08.08l-.08.09-.17.01c-.01-.05-.06-.08-.18-.08-.06 0-.11.04-.16.09v.09h-.08v.09h-.08c-.06-.05-.12-.08-.18-.08-.11.06-.16.12-.16.18h-.08c-.06 0-.12.03-.17.09l-.17.01c-.11 0-.17.03-.16.09h-.17c-.06 0-.12.04-.17.1l-.08.08-.09.01a.374.374 0 0 0-.25-.08c-.06 0-.11.07-.16.18 0 .05-.06.09-.17.09l-.26.01c-.11 0-.19.04-.25.09l-.16.01c-.06 0-.09.03-.09.09l-.33.01-.01-.08c-.05 0-.11.03-.16.09-.12 0-.2.04-.25.09 0-.05-.04-.08-.09-.08-.06 0-.14.04-.25.1-.17 0-.29.04-.34.1h-.08l-.09-.08-1.35.05-1.35.22-2.02.08c-.07-.05-.13-.08-.18-.08l-.25.1-.43-.15-.51.02c-.06-.11-.2-.16-.42-.16-.18-.1-.44-.15-.77-.14l-.34.02a1.85 1.85 0 0 0-.6-.06l-.33.01c-.07-.05-.18-.08-.35-.07l-.42.01-.76.12-1.44.05-1.35-.03c-1.07.04-1.94.16-2.61.35l-2.09.76-2.18.68c-1.62.47-3.07.72-4.37.77-.39.01-.93-.08-1.62-.28l-.85-.22-.86-.22-.26-.07c-.11 0-.19.03-.25.09-.45-.04-.9-.05-1.35-.03-.51.02-1.02.07-1.52.14-.23.01-.42.1-.58.28-.06.05-.11.17-.16.34l-.15.43-.16.26-.08.18-.07.34-.16.34-.15.43-.24.44c-.1.34-.14.65-.13.93l-.08.17.01.08-.09.09.02.43.1.42.12.93-.06.67.04.77-.05 1.18.05 1.27c.07.33.12.67.13 1.01.01.34 0 .65-.05.94l-.02 1.52.06 1.61c.02.39.06.7.12.93l.19.5.1.41.09.17.1.33.1.42h.08c.08.51.2.79.38.83.11 0 .17.02.17.08v.08h.08c.06 0 .14-.03.26-.09l-.01-.09.34-.01c.06.06.12.08.17.08l.76-.03-.08.09c.17.11.4.15.69.14h.08c0 .05.06.08.17.08.12-.01.17-.07.17-.18l.67-.03.08-.08.34-.02c.11 0 .2-.03.25-.09l.26-.01.08-.09.17-.01.08-.08.08-.01c.11 0 .17-.03.17-.09l.16-.09.26-.01.08-.09.16-.17c.28-.13.47-.28.58-.45l.25-.1.16-.08c.39-.13.87-.21 1.43-.23l.77.06.76-.03c.05-.01.11-.06.16-.18v-.09l.08-.09 1.1-.04 1.09-.12.76-.03c.51-.02.94-.01 1.28.03l.05 1.27c-.01-.06-.03-.09-.09-.08v.08c-.1.23-.15.55-.13.94l.01.17c-.06 0-.08.09-.08.25.01.12.04.21.1.26l.1.41.01.34c-.05.07-.08.12-.08.18 0 .05.04.08.09.08l.02.42c0 .17.03.28.09.33l.02.26c0 .11.03.2.08.25l.01.08.09.08.09.09.02.5.09.25.01.26.1.25.17.16c.13.39.28.64.46.74l.01.43.1.34c.07.39.12.81.13 1.26l.03.76v2.2c0 .06.03.11.09.17l.18.07.07 1.78.14 1.6c.05 1.24-.02 2.29-.21 3.14l.01.34-.08.18.02.5-.07.26.03.85c-.06 0-.08.03-.08.09-.05.05-.08.14-.07.25l.09.25.01.25c-.06.07-.08.15-.08.26l.04.76-.08.18.02.51c0 .16.04.27.09.33l.09.17.02.5.1.25.1.34v.16l.1.26.18.24v.09l-.05.93.12 2.96c-.06 0-.09.03-.09.09l.09.08c-.05.06-.08.12-.07.17v.17l-.06.43c-.04.56-.04 1.13-.03 1.69l.05 1.19c.01.11.04.19.1.24l.02.6c-.06.06-.08.14-.08.25l.1.17-.08.09.02.59c.05 0 .08-.06.08-.17l.01.42c.01.22.05.34.1.34l.01.25.09.08.01.25.09.17.02.59.18.25.01.17.09.08-.08.09.08-.01.09.34.1.25.01.34-.04 1.02v.08l-.07.26.02.59c-.05 0-.08.03-.08.09l-.08.17c-.11.06-.16.15-.16.26l.01.17-.08.17c-.05.06-.07.15-.07.26l.01.34c-.09.45-.21 1.02-.36 1.71-.05.16-.06.36-.06.59l-.07.25.01.26c-.11.23-.19.4-.24.52l.01.08-.08.17c0 .12.04.2.09.26l-.08.16.1.26.01.25-.07.26c0 .11.03.19.09.25l.01.34-.07.42c.02.34.06.59.12.76v.08c-.05 0-.08.04-.08.09l.01.26c-.1.45-.13.9-.12 1.36.02.28.05.56.12.84l.01.17-.08.17c0 .11.04.2.1.25-.06 0-.09.06-.08.17v.17c-.05.06-.07.17-.07.34.01.23.05.37.1.42l.05 1.1c0 .11.03.17.09.16l.06 1.7c.01.17.1.36.28.58l.01.08c-.06.07-.09.18-.08.35.01.11.06.19.18.24l-.12 1.36c-.05.06-.07.15-.07.26l.02.42c-1.34.39-2.61.61-3.79.66-.39.01-.93-.11-1.62-.36l-.86-.22-.85-.22-.26.01c-.05-.05-.11-.09-.17-.08l-.08.09v.08c-.57-.09-1.13-.12-1.69-.1-.4.01-.79.06-1.18.13-.23.01-.42.1-.59.27-.05.07-.11.18-.15.35l-.15.51-.25.27-.16.18.01.25-.07.34-.15.43-.24.43c-.16.29-.23.55-.22.78l.01.33-.08.09.02.59.11.42.03.84-.06.77-.06.68.1 2.45c.07.4.11.76.13 1.1.01.28-.01.56-.06.85l.06 1.52-.05.85c.03.79.09 1.35.15 1.69l.19.5.19.41v.17l.1.34.19.42v.08c.07.5.2.78.37.83l.08-.09c.06 0 .09.03.09.09 0 .05.06.08.17.07.06 0 .09-.03.09-.09.05 0 .08-.03.08-.09l.33-.01c.06.05.12.08.18.08l.17-.01.25.08.34-.01c.12.1.35.15.69.14h.08c0 .05.06.07.17.07.12 0 .17-.04.17-.09l.59-.02c.06 0 .11-.03.17-.09l.25-.01c.11-.01.16-.04.16-.09l.26-.01c.11-.01.16-.04.16-.1h.09l-.01-.08.09-.09.16-.01c.06 0 .12-.03.17-.09l.17-.09.16-.01.17-.09.08-.17h.09c.27-.13.46-.28.57-.45h.08l.17-.1h.25c.39-.13.87-.21 1.43-.23l1.53-.06ZM114.95 105.02l-.13-3.38c-.01-.23.02-.4.07-.51l.06-.6c-.01-.23.04-.4.15-.52l-.01-.17c.26-.57.64-.87 1.15-.89h.09c.15-.29.54-.48 1.16-.56l.42-.18.5-.19.25-.01c.11-.06.22-.09.34-.1l-.01-.08c.17-.18.36-.29.58-.36l.17-.09.16-.09c0-.06.11-.09.34-.1l.16-.09.26-.01.5-.28.57-.35c.44-.31.8-.52 1.08-.64.22-.12.42-.19.58-.19.23-.02.43.04.61.14.22.05.39.13.51.23.23.16.49.24.78.23.16-.01.33-.04.5-.1l.25-.19h.16c.17-.06.3-.15.41-.27.17-.18.39-.29.67-.37h.08c.21-.4.71-.65 1.5-.73l.17-.1h.17c.11-.01.16.05.17.16.17.05.34.19.52.41.12.16.19.32.2.5v.16c.13.62.27 1.07.39 1.34h.09l.01.42h.09v.08c.06.11.1.28.1.51.27-.24.52-.42.75-.54.27-.18.52-.28.75-.28.16-.01.3.01.42.06.23.05.43.13.6.23.18.17.38.25.6.23.18 0 .37-.06.59-.19l.25-.17.25-.1.32-.35c.11-.17.3-.32.58-.45h.08c.16-.45.62-.81 1.4-1.07l.43-.02c.05 0 .08.03.09.08.16.06.37.19.6.4.18.28.27.53.28.76.26.66.44 1.13.56 1.41.06 0 .12.05.18.16l.02.34c.05 0 .11.03.17.08.12.23.24.58.38 1.09.13.44.2.81.21 1.09l.1.5.1.34c.12.05.21.19.27.41l.02.34.09.25c.06.11.16.3.28.58l.28.75c.06.06.12.2.19.42l.01.26.09.33.37.74.29.93.1.33h.08l.01.17c.12.05.21.19.27.41l.02.34.09.33.09.08.01.17.09.17c.06.11.12.25.18.42.06.05.12.19.19.41l.01.26.1.33.18.24c.06.12.09.26.1.43.11.05.2.24.27.57l.1.35.1.42c.12.1.21.36.28.74.13.4.2.67.21.84l.01.26c.11.11.23.33.36.66.13.33.2.59.2.75l.02.34c.11.06.2.2.27.42l.01.33.1.34c.11 0 .2.13.27.41.06.11.09.23.09.34.01.05-.02.11-.07.17l.09.25.01.17.2.84c.12.1.21.36.28.75.13.39.2.7.21.93l.01.16.2.76c.05.11.15.33.27.66.07.4.12.65.12.76l.09.08c0 .06-.03.09-.09.09l.02.42.11.51c.11.05.2.22.27.5.06.33.1.53.11.58l.03.76c.05.05.15.25.27.59.07.33.11.55.12.67.06.28.13.58.2.92l.01.25.09.26c.07.22.1.36.1.42l.01.16.1.25.09.25c.06.12.09.2.1.26 0 .11-.02.19-.08.25l.02.34.18.42c.06.11.13.33.2.67.06.33.1.56.1.67l.03.59.18.42.11.5c.13.4.19.67.2.84l.01.25.1.25c.06.17.09.29.09.34v.09l.3 1.08c.06.06.15.28.28.67.07.34.11.56.11.68v.08c.13.28.26.66.39 1.17.14.56.24 1 .31 1.34v.17l.09-.01.09.09c.45 1.34.93 2.87 1.45 4.6l.59 2.26.68 2.18c.01.11.07.39.2.83.13.34.29.79.48 1.34l.4 1.51c.39 1.34.71 2.32.96 2.93l.09.25c.06.05.15.28.28.67l.1.33.1.42.01.09c.18.27.36.71.55 1.32l.29.76.19.67.09.08c.12.28.28.7.47 1.26l.1.24c.24.39.55 1.14.93 2.26l.2.66c.07.29.13.48.19.59.31.61.65 1.55 1.04 2.84l.1.25c.12.16.24.47.37.91l.19.59.11.59.09.25.87 2.68 1.54 4.51 1.53 4.59c1.21 3.58 2.08 6.47 2.62 8.71l.01.09c1.54 6.32 2.75 11.12 3.61 14.42l1.46 4.94.06-2.8c.01-1.13.03-2.11.06-2.96-.01-.11.04-.23.15-.35l.09-.09.07-.25c-.05-1.19-.02-2.51.09-3.98l.2-3.83c.17-2.82.21-5.28.13-7.37l.05-.93c-.06-.05-.09-.17-.1-.34l.07-.51-.03-.59.06-.76.03-1.27c-.01-.23.01-.46.06-.68-.06 0-.08-.03-.09-.09l-.02-.75.06-.43-.05-1.36c-.01-.33.03-.53.15-.59l-.02-.43a.7.7 0 0 0-.03-.67l-.01-.34.07-.34-.02-.51.07-.43c-.01-.39 0-.65.05-.76l.08-.34.07-.43c-.02-.34.03-.56.14-.68l-.01-.09.06-.67.14-.69-.01-.42.14-.69c.05-.22.1-.39.15-.51l-.01-.17.17-2.21.08-2.29c.1-1.86.18-3.31.25-4.32l.08-.26c-.06 0-.09-.08-.1-.25l-.03-.93.07-.43-.02-.51c-.03-2.08.03-4.09.19-6.02l.07-.17-.02-.59c-.01-.28.01-.45.07-.51l.07-.26-.03-.68c-.01-.22.02-.39.07-.51-.06-.1-.1-.3-.11-.59l.07-.33-.03-.77.07-.51.07-.34.01.34c.05-.11.07-.4.05-.85l-.02-.51c.05-.22.1-.37.16-.43l-.02-.42c-.01-.17.02-.28.07-.34l-.01-.42.07-.26-.01-.25c.05-.23.1-.37.15-.44l-.01-.25.06-.59c-.01-.28.01-.48.06-.6 0-.11.02-.23.08-.34l-.01-.17.07-.25v-.09l.06-.77.14-.59-.01-.34.06-.51v-2.37c-.07-.11-.1-.31-.11-.59l-.05-1.35c-.06 0-.09-.08-.1-.26l-.02-.42c-.06-.11-.09-.3-.1-.59l-.04-.84c-.11-.17-.19-.5-.21-1.01l-.01-.33c-.08-.57-.13-1.19-.16-1.87l-.03-.93-.13-1.01a9.6 9.6 0 0 1-.13-1.34l-.11-.6-.02-.5c-.08-.51-.12-.87-.13-1.1l-.09-.24-.1-.43c-.01-.28.01-.48.06-.59l-.04-.85c.06-.17.08-.31.07-.43 0-.11-.03-.19-.09-.24l-.03-.6c-.01-.28.02-.45.07-.51l-.14-3.64c-.06.01-.09-.1-.1-.33l-.02-.42c-.16-1.29-.27-2.59-.32-3.88l-.1-2.54c-.05 0-.09-.08-.09-.25l-.02-.42c-.06-.17-.13-.45-.2-.84-.02-.45 0-.77.05-.94l-.11-.75-.02-.34-.09-.25c-.02-.29.01-.45.06-.52l-.01-.25-.09-.25c-.01-.22.01-.37.06-.42l-.01-.34-.12-.84-.12-.93c-.08-.73-.13-1.29-.15-1.69h.09l-.02-.42c-.01-.34 0-.68.04-1.02v-.09c-.12-.16-.18-.41-.2-.75-.01-.34.01-.54.07-.6l-.13-.92-.32-1.85-.01-.17c-.12-.11-.18-.34-.19-.68l-.11-.41-.01-.34-.1-.51c-.13-.27-.23-.66-.3-1.17l-.07-1.69-.09-.34-.02-.5c-.13-.28-.2-.64-.21-1.09l-.05-1.11-.1-.33-.02-.59c-.01-.11.02-.2.08-.26l-.03-.67c-.01-.29.01-.49.06-.6l-.01-.26c.25-.63.64-.98 1.14-1.05l.09-.01c.1-.28.46-.49 1.07-.63.12-.06.25-.15.42-.27l.5-.11.17-.09.08-.09c.05-.05.13-.08.25-.09-.01-.05.02-.09.08-.09.1-.17.27-.32.49-.44l.17-.09.08-.09c.05-.06.16-.12.33-.18l.25-.02.17-.08.58-.37.49-.44c.38-.35.71-.59.98-.72.28-.17.56-.27.84-.28.12 0 .23.02.35.07.22.11.43.21.6.32.18.16.37.23.6.23.17-.01.37-.07.58-.19l.25-.18.25-.1c.17-.06.28-.15.33-.26.16-.18.38-.33.66-.45l.09-.01c.14-.45.61-.79 1.39-.99l.17-.08.17-.01c.11 0 .17.05.18.16.17.05.37.21.61.48.17.22.27.48.28.76.14.73.28 1.23.4 1.51l.08-.01.09.17.02.34.09-.01v.09c.12.22.25.58.38 1.09.07.5.12.89.13 1.17l.1.51.1.42c.06.05.12.19.19.41l.01.34.1.25c.06.17.13.4.19.67l.29.75c.05.06.09.2.1.42l.09.34.02.25c.12.22.21.5.28.84l.21 1.01.01.33.09.09.01.08c.11.05.17.22.18.5l.02.34.09.33.02.26.09.24c.06.12.09.26.1.43.06.05.12.19.19.41l.02.59.1.34c.05.11.09.23.1.34.06.1.12.33.19.67l.02.42.1.42c.06.11.12.36.19.75.07.22.11.39.11.5.01.17-.02.29-.07.35l.1.33c.11.11.21.36.28.75.01.34 0 .62-.05.85l.1.25c.05.11.09.28.1.51l.02.67c.06.06.13.22.2.5 0 .28-.02.45-.07.51l.01.26.09.08c0 .06-.03.08-.08.09l.03.84c.12.16.18.48.2.93.07.16.1.33.11.5 0 .11-.02.23-.08.34.01.12-.01.2-.07.26l.12.84c.06.11.12.33.2.67.01.39-.01.65-.06.76l.09.09c0 .05-.03.09-.08.09-.05.11-.08.25-.07.42l.11.59c.05.05.09.22.1.5.01.34-.01.54-.06.6l.01.25-.08.09.01.42c.07.11.1.34.11.67.02.34 0 .57-.06.68.07.17.1.34.11.51 0 .11-.02.25-.07.42l.02.6c.01.22-.01.36-.06.42l.02.68c.07.11.1.22.1.33 0 .06-.02.12-.07.18l-.08.33.02.51c.06.12.1.34.12.68.01.33-.02.56-.07.68-.05.06-.07.26-.06.6l.02.5.11.5c.01.4 0 .68-.05.86l.01.5c.01.23-.01.37-.06.43l.04 1.1c.06.16.1.42.11.75.02.34 0 .6-.05.77l.05 1.35c-.03.57-.04.99-.03 1.27l.01.34c.08.68.14 1.44.18 2.28.03.79.03 1.66.01 2.63l.01 2.36v2.29l.04.85c.02.62.03 1.63.03 3.05-.06 1.35-.07 2.4-.04 3.13v.17c.06.11.1.34.11.67l-.07.43.02.5c.07.18.1.37.11.59.01.29 0 .6-.04.94l.06 1.61c.06.22.1.67.13 1.34l.01.18c.07.22.11.53.12.92.02.4.01.91-.03 1.53l-.05.68c.01.28.05.5.11.67.03.68.04 1.69.03 3.04l.05 1.28-.06.6-.06.59.01.25-.14 2.8-.07 4.75-.16 4.74c-.14 3.68-.33 6.68-.57 9.01l-.08.17-.91 7.23-.9 7.31c-.58 5.5-.92 10.46-1.03 14.87l.05 1.18c.05 1.24.16 2.68.33 4.31l.28 2.7c.1 1.12.17 2.1.2 2.95l.02.42.1.51c.02.34-.01.59-.05.76l.18 4.74.02 2.54.08 2.28c.04.85-.02 1.53-.17 2.04-.05.12-.16.29-.32.52l-.24.35-.15.34-.16.35-.07.26c-.11.28-.16.45-.15.51-.06.06-.17.12-.34.19l-.32.34c-.1.18-.27.47-.48.87l-.23.43-.24.44-.06.59.03.67.11.59c.06.29.09.45.1.51l-.07.34-.08.17-.08.18.03.76.12.84c.02.62-.08.99-.3 1.11l-.17.09.01.18-.07.16a.57.57 0 0 1-.33.27l-.17.01-.25.1c-.22.11-.47.27-.74.44l-.58.54-.49.52-.4.35-.5.45c-.38.29-.71.51-.99.63-.78.31-1.33.67-1.65 1.08-.32.41-.68.79-1.05 1.15l-.66.62c-.43.4-.88.62-1.33.64l-.25.01-.77-.14-.69-.23c-.05 0-.14-.02-.25-.08l-.43-.06c-.4-.04-.63-.09-.68-.15l-.09-.08v.09h-.17c-.5.02-.93-.16-1.29-.54-.18-.27-.32-.44-.44-.49-.06-.05-.18-.19-.36-.41-.18-.27-.27-.47-.27-.58a.223.223 0 0 1-.09-.17l-.1-.25-.63-.9c-.11-.05-.23-.19-.35-.41l-.19-.34-.17-.24-.54-.66c-.18-.27-.33-.52-.45-.74l-.18-.34-.09.01c-.41-.44-.89-1.12-1.43-2.06l-.18-.34c-.06-.05-.18-.21-.36-.49-.18-.33-.28-.55-.28-.66l-.55-1.08-.18-.34-.27-.41c-.19-.27-.28-.5-.28-.66l-.01-.09-.19-.41-.27-.42c-.18-.33-.27-.56-.28-.67v-.08l-.36-.66c-.13-.28-.19-.48-.2-.58l-.09-.26v-.17l-.1-.33-.18-.33c-.19-.34-.28-.56-.29-.67l-.19-.67c-.13-.22-.24-.44-.36-.66l-.11-.51c-.06-.22-.1-.39-.11-.5v-.09c-.32-.89-.48-1.56-.5-2.01v-.09l-.29-.83-.28-.75c-.39-1.23-1.02-2.84-1.89-4.84l-.94-2.42c-.43-.95-.77-1.83-1.03-2.67l-.01-.34.07-.17-.09-.25c-.44-1.17-.92-2.47-1.43-3.93l-1.24-3.68c-1.03-3.06-1.88-5.42-2.56-7.09l-.29-.84c-.06-.05-.12-.16-.18-.33l-.19-.5c-.06-.11-.15-.31-.28-.58l-.2-.75-.38-1.17c-.12-.23-.22-.45-.28-.67l-.09-.08c-.06-.11-.15-.34-.28-.67l-.1-.5-.19-.33-.09-.34c-.06-.06-.16-.25-.28-.58-.07-.28-.1-.48-.11-.59l-.1-.42c-.06-.16-.16-.39-.28-.66l-.09-.26-.11-.42-.18-.41-.1-.42c-.13-.28-.19-.5-.2-.67l-.02-.51-.18-.33c-.07-.28-.1-.48-.11-.59l-.01-.25-.19-.67c-.07-.28-.11-.54-.12-.76l-.18-.33-.11-.67-.02-.59-.1-.26-.68-2.17-.67-2.18c-.58-1.78-1-3.2-1.27-4.27l-.1-.25c-.05.01-.08-.05-.08-.17l-.1-.16-.01-.17c-.11-.11-.21-.3-.27-.58l-.1-.42-.18-.33-.02-.26a45.89 45.89 0 0 1-1.83-5.85l-.01-.18-.09-.33-.11-.33c-.05-.17-.09-.28-.09-.34l-.01-.08-.09-.34-.1-.33-.1-.34c-.12-.21-.18-.38-.19-.5-.06-.05-.12-.21-.18-.5l-.1-.34-.1-.33c-.06-.11-.12-.25-.19-.41l-.1-.59-.1-.25v-.09c.05 0 .12.11.18.33 0-.11-.04-.25-.1-.41l-.1-.51c-.13-.33-.2-.58-.2-.75l-.01-.09-.19-.5-.01-.34-.1-.41-.1-.25v-.26c-.07-.23-.1-.39-.11-.5l-.01-.17-.19-.67-.03-.6a.99.99 0 0 1-.1-.41v-.18l-.09-.16.08-.09-.01-.08-.2-.76a4.8 4.8 0 0 1-.11-.67l-.09-.25-.1-.51-.69-2.25-.08-.09c-.07-.1-.16-.3-.28-.58l-.1-.33-.1-.34-.19-.66c-.06 0-.12-.09-.18-.26l-.1-.24v-.18c-.12-.1-.24-.29-.36-.57l-.1-.34-.18-.33-.01-.08c-.11-.17-.27-.53-.46-1.09l-.1-.25c-.37-.94-.82-2.19-1.33-3.76-.12-.16-.24-.38-.37-.66l.07 1.78c.03.61.08 1.15.15 1.6l.01.17c.06.11.1.3.11.59l.03.84c.07.28.14.71.22 1.27l.02.67.12.67v.09c.06.23.13.62.22 1.18v.16c.13.4.21 1.1.25 2.11l.03.68c.01.23.04.39.1.51.08.61.15 1.51.2 2.69v.18c.06.16.1.47.12.92l.05 1.35.02 2.46.16 4.23.08 4.23c.07 3.28.04 5.96-.11 8.05l-.08.08-.67 6.56-.76 6.55c-.59 5.21-.98 9.69-1.17 13.42-.07 1.25-.06 2.91.02 4.99l.18 2.45c.04 1.02.04 1.93.02 2.71l.02.43-.07.42c.02.34-.01.56-.06.69l-.08.09c-.09 3.44-.32 6.32-.68 8.66-.08.79-.25 1.42-.52 1.88-.05.11-.16.26-.32.44l-.24.26-.33.27-.16.25-.07.26c-.11.23-.19.38-.24.44a1.5 1.5 0 0 1-.33.18l-.34.18-.48.53-.49.61c-.32.41-.62.62-.9.63h-.09l-.17-.08-.08.09-.17.09h-.08a.648.648 0 0 1-.35-.07l-.42-.15c-.24-.1-.52-.18-.86-.22l-.76-.06-.68.03-.59-.06-.6-.06c-.51-.04-.91-.11-1.19-.21-.75-.25-1.4-.37-1.97-.34l-1.52.05-.93-.04c-.74-.03-1.28-.21-1.63-.53l-.44-.5-.36-.58-.18-.15-.26-.25c-.24-.27-.36-.44-.36-.5v-.08h-.09c-.46-.21-.7-.53-.71-.99.04-.16.07-.28.07-.34a.382.382 0 0 0-.1-.25l-.01-.42c.04-.22.09-.37.15-.43 0-.05.02-.11.08-.17l-.01-.17.14-.85c-.07-.06-.1-.2-.11-.42l.08-.25-.01-.26.06-.6c-.01-.28.01-.5.06-.68l-.04-.93c-.01-.39 0-.84.03-1.35l.08-.26c-.06-.05-.09-.22-.11-.5.05-.29.1-.46.15-.52l.14-.93-.01-.34.06-.35c-.01-.28.01-.45.07-.51v-.08l.07-.34-.02-.42c.05-.29.09-.46.15-.52l-.01-.08.08-.34-.01-.26c.04-.23.1-.4.15-.51l-.01-.17c0-.06.03-.11.08-.17l.07-.18.08-.34c-.01-.28.03-.48.14-.6l.07-.51c.05-.17.07-.37.06-.59l.07-.34c.05-.18.1-.29.16-.34l.08-.18c.14-.74.31-1.25.53-1.54l-.01-.09.07-.68.07-.08.07-.52c.17-1.25.32-2.66.43-4.25l.08-2.12c.02-.96.05-1.72.08-2.29 0-.17.05-.28.16-.34l.08-.09.08-.18.12-3.39.21-3.31c.08-2.26.09-4.07.04-5.42l-.14-3.64.04-1.01-.02-.68c-.06-.11-.1-.34-.12-.67l.08-.34-.03-.68c-.05-.06-.09-.22-.1-.5.04-.29.09-.46.15-.52l-.1-2.36c-.01-.34.01-.57.06-.69l.08-.25.07-.35c-.01-.33 0-.53.06-.59l-.03-.67.15-.61-.01-.33.06-.6c.05-.23.1-.4.15-.51l-.01-.17.02-3.81c-.06-1.64-.06-2.91.02-3.81l-.01-.26c-.06.01-.08-.05-.09-.17l-.06-1.69c-.09-.67-.14-1.37-.17-2.1-.04-1.02-.03-2.04.05-3.06l-.03-.67c-.01-.23.02-.37.07-.43l-.05-1.35c-.06-.05-.1-.2-.11-.42l-.06-1.78c.05 0 .09.12.09.34.05-.12.07-.4.06-.85l-.02-.42c0-.18.02-.28.07-.34l-.09-.34c.04-.17.07-.29.06-.34l-.01-.34.07-.26v-.25c-.01-.17.01-.28.07-.34l-.03-.76c.04-.23.07-.4.06-.51 0-.12.02-.23.07-.35l-.01-.34h.09l-.03-.76.14-.51-.02-.77-.17-1.93V147c-.06-.11-.1-.3-.1-.59l-.01-.25-.1-.34-.03-.59c-.05 0-.09-.08-.09-.25l-.02-.34c-.05-.1-.12-.27-.18-.5l-.02-.34-.09-.25-.01-.08c-.12-.17-.18-.5-.2-1.01l-.01-.25c-.14-.56-.3-1.69-.47-3.37-.12-.22-.23-.62-.3-1.18l-.1-.41-.02-.51c-.08-.45-.15-.76-.21-.92l-.09-.26-.1-.33c-.01-.28.01-.48.06-.6l-.1-.33-.01-.42c.04-.17.07-.29.07-.35-.01-.11-.04-.19-.1-.24l-.01-.26-.09-.25c-.01-.23.01-.37.07-.43l-.04-.85-.11-.75-.06-1.61c-.06-.05-.09-.16-.1-.33l-.01-.34c-.23-1.23-.35-2.47-.4-3.71l-.04-.93-.09-.25-.02-.26c0-.28.02-.44.07-.51v-.08c-.11.01-.18-.08-.18-.25l-.02-.34c-.06-.16-.13-.44-.2-.83-.01-.35.01-.6.06-.77l-.12-.75-.08-2.03-.12-.85-.11-.75-.05-1.53h.07l-.01-.42c-.01-.34.01-.65.05-.93v-.09c-.12-.11-.18-.31-.2-.59-.01-.33.01-.53.06-.59l-.11-.76-.15-1.77-.1-.17c-.06-.11-.09-.3-.1-.58l-.01-.34-.1-.34-.02-.42c-.12-.28-.22-.64-.3-1.09l-.04-1.18c-.01-.06.02-.09.08-.09l-.1-.25Z" fill="#E05849"/></g></svg>
