<svg width="448" height="741" xmlns="http://www.w3.org/2000/svg"><title>Group 2</title><g fill="none" fill-rule="evenodd"><path d="M374.54 360.62c24.63-14.6 44.69-38.58 59.64-71.27 14.73-32.23 16.85-63.62 5.98-88.37-12.3-28.02-39.37-46.85-67.38-46.85-4.53 0-9.09.48-13.55 1.42-4.53.96-8.7 2.26-12.56 3.84-.06-3.86-.18-7.74-.35-11.62-2.52-58.55-20.44-99.24-53.26-120.96-18.86-12.47-38.01-18.8-56.92-18.8-57.13 0-95.84 55.78-114.26 121.87-12.62-11.87-28.26-20.08-46.38-20.08-13.97 0-27.71 5.09-39.73 14.72C5.71 148.63 6.55 184.77 9.8 209.88c6.63 51.03 45.68 111.67 99.58 124.83 1.4.34 2.81.66 4.21.95 1.92 20.52 4.42 40.55 7.43 59.57-32.11 7.37-64.01 21.95-73 53.94-6.84 24.44-5.74 65.63 2.52 93.76 3.3 11.27 10.74 19.09 18.41 24.46.88 17.48 2.02 35.31 3.13 45.31 3.59 32.55 8.51 77.13 49.94 105.4 28.99 19.77 79.41 21.9 99.75 21.91h.01c27.86 0 120.51-4.24 144.35-58.74 11.53-26.31 12.92-55.36 12.85-77.74l-.01-4.92c-.02-9.22-.06-22.97-.26-38.81 4.35-3.51 8.01-7.33 11.04-11.51 24.37-33.58 6.23-98.97 5.45-101.74-7.53-26.59-33.21-43.8-79.94-53.09.93-3.94 1.83-7.83 2.71-11.66 19.89-3.67 39.11-10.84 56.57-21.18" fill-opacity=".2" fill="#000"/><path d="M366.53 352.61c24.63-14.6 44.7-38.58 59.64-71.27 14.73-32.23 16.85-63.62 5.98-88.37-12.3-28.02-39.37-46.84-67.38-46.84-4.53 0-9.09.47-13.55 1.42-4.52.95-8.7 2.25-12.56 3.83-.06-3.86-.18-7.74-.35-11.62-2.52-58.55-20.43-99.24-53.26-120.96C266.2 6.33 247.04 0 228.13 0 171 0 132.29 55.79 113.87 121.87 101.25 110 85.61 101.79 67.5 101.79c-13.98 0-27.72 5.09-39.73 14.73-30.07 24.1-29.22 60.25-25.97 85.35 6.62 51.03 45.67 111.68 99.57 124.83 1.4.34 2.81.66 4.21.95 1.92 20.52 4.42 40.56 7.43 59.58-32.11 7.36-64.01 21.94-72.99 53.93-6.85 24.44-5.75 65.63 2.51 93.77 3.3 11.27 10.74 19.08 18.41 24.45.88 17.48 2.02 35.31 3.13 45.31 3.59 32.55 8.51 77.13 49.94 105.4C143 729.86 193.43 732 213.76 732h.01c27.86 0 120.51-4.24 144.36-58.74 11.52-26.31 12.92-55.36 12.85-77.74l-.02-4.92c-.02-9.22-.06-22.97-.26-38.81 4.35-3.5 8.01-7.33 11.04-11.5 24.37-33.58 6.24-98.98 5.45-101.75-7.53-26.59-33.21-43.8-79.94-53.09.93-3.93 1.83-7.82 2.71-11.66 19.9-3.67 39.11-10.83 56.57-21.18" fill="#FFFFFE"/><path d="M159.58 227.32c-3.07-.69-6.2-1.12-9.38-1.63-8.99-1.45-15.13-7.15-20.37-14.15-7.3-9.79-12.11-22.38-16.54-33.72-10.25-26.22-36.95-59.23-65.5-36.34-14.71 11.79-17.63 30.27-14.26 56.27 4.91 37.84 34.4 87.85 75.42 97.86 19.39 4.73 43.77 4.27 58.72-10.68 6.41-6.4 9.57-16.36 9.78-26.36.39-18.04-8.98-29.25-17.87-31.25" fill="#66A57D"/><path d="M140.53 263.36c-18.44-2.81-33.75-13.6-45.42-27.61-23.27-27.94-33.42-65.42-32.44-101.48-1.48.27-2.98.66-4.49 1.21-.78 38.55 11.2 77.52 36.73 106.91 22.16 25.5 52.22 29.16 81.86 23.32.23-1.35.39-2.71.51-4.07-12 2.65-24.29 3.61-36.75 1.72" fill="#AFD7B7"/><path d="M169.22 283.17c1.43-1.71 2.67-3.6 3.73-5.67-29.66 8.93-61.76 4.27-87.71-16.98-31.47-25.76-42.81-73.18-42.63-114.05-1.7 1.97-3.15 4.09-4.4 6.34 1.04 41.77 14.36 86.7 46.59 113.1 24.52 20.08 55.58 24.55 84.42 17.26" fill="#AFD7B7"/><path d="M148.34 242.62c-17.4-3.63-31.73-14.39-41.58-28.92-14.01-20.61-18.37-46.8-18.91-72.11a46.192 46.192 0 0 0-4.45-3.05c.37 28.67 5.47 58.2 22.33 81.45 10.12 13.94 24.87 22.85 41.43 26.94 9.87 2.44 19.59 2.3 29.15.68-.38-1.61-.83-3.11-1.38-4.54-8.63 1.34-17.44 1.47-26.59-.45" fill="#AFD7B7"/><path d="M336.89 489.04c-.66-12.68-.82-12.66-29.27-14.21-49.25-2.66-149.03.2-196.41 3.71-17.96 1.34-20.16 13.57-20.18 17.13-.2 26.44 2.69 85.96 4.85 105.51 3.37 30.55 6.93 62.53 36.16 82.47 38.09 25.98 176.57 22.94 196.77-23.23 8.6-19.64 10.24-42.27 10.172-64.78-.072-16.63 0-66.29-2.092-106.6" fill="#BA8665"/><path d="M356.4 447.26c-8.95-31.62-97.49-37.75-136.99-37.56-74.02.35-139.97 9.44-148.58 40.1-4.97 17.73-4.33 53.17 2.4 76.12 9.97 33.97 251.02 39.12 282.61-4.43 12.48-17.19 4.03-61.98.56-74.23" fill="#A26A4D"/><path d="M256.37 426.41c-22.68-1.14-64.87-1.84-106.28 2.5-82.67 8.66-87.22 45.31-1.89 50.04 23.51 1.29 72.73 2.01 95.75.91 119.24-5.72 134.17-47.33 12.42-53.45" fill="#E05849"/><path d="M102.46 470.95c10.28 3.93 25.44 6.87 45.74 8 23.51 1.29 72.73 2.01 95.75.91 37.53-1.81 64.7-7.16 80.56-13.85-6.82-8.96-30.45-16.71-72.81-18.93-20.16-1.06-57.65-1.62-94.47 2.87-30.29 3.68-48.78 12.09-54.77 21" fill="#D9372A"/><path d="M235.06 529.22c30.7 6.79 72.78 3.04 99.03-15.28 7.46-5.2 5.73-19.47-5.06-18.67-14.31 1.05-27.98 4.51-42.03 7.22-17.25 3.33-35 3.82-51.94 8.62-8.64 2.43-9.32 16.05 0 18.11M191.34 528.22c3.27 5.94 11.66 9 18.06 6.52 5.06-1.97 8.82-5.83 8.82-11.6s-3.76-9.63-8.82-11.6c-9.66-3.75-24.08 5.77-18.06 16.68" fill="#BA8665"/><path d="M307.89 616.25c-3.19 1.91-7.21 5.66-10.01 8.04-13.16 11.16-25.9 7.24-39.2-.49-13.18-7.65-24.09-12.8-39.37-14.24-12.74-1.19-24.76 6.17-35.43 12.03-12.09 6.63-21.7 12.6-35.81 9.19-8.52-2.07-16.58-8.1-25.04-10.97-8.09-2.72-16.99-2.82-24.93-.55.76 5.28 1.68 10.51 2.88 15.65 6.12-.97 12.66-.02 20.8 3.99 9.41 4.64 18.97 10.85 29.75 11.65 32.68 2.49 55.7-34.28 88.68-19.89 20.11 8.78 34.74 20.66 56.81 10.65 11.78-5.34 19-16.06 31.92-20.52 2.96-1.02 6.08-1.63 9.27-2.06.3-3.93.49-7.87.6-11.85-10.74.65-21.28 3.58-30.92 9.37M94.69 587.48c12.52-9.85 23.69-5.53 34.4 5.11 6.92 6.88 13.14 12.25 22.24 15.81 9 3.51 19.35-.56 27.32-4.51 20.77-10.33 29.37-25.8 56.17-19.14 24.91 6.18 39.88 30 66.58 13.3 12.92-8.07 20.38-15.94 36.45-17.09.36-.02.71.02 1.08 0-.02-5.59-.05-12.07-.13-19.18-3.01.07-5.89.33-8.52.77-14.26 2.38-24.07 9.59-34.05 19.7-18.63 18.84-45.04-10.5-66.08-13.16-17.56-2.21-30.94 2.2-45 12.77-8.36 6.27-14.66 12.47-25.8 13.57-10.77 1.07-20.64-12.5-27.98-18.75-10.98-9.36-26.46-9.43-37.58-2.69.3 4.86.6 9.39.9 13.49" fill="#F8CA54"/><path d="M168.19 479.74c25.06.74 58.1.98 75.76.12 1.94-.1 3.76-.22 5.66-.34 3.03-8.82 33.87-120 45.32-194.24 7.3-47.48 13.48-96.07 11.41-144.14-1.43-33.23-8.89-75.76-38.95-95.65-76.28-50.47-121.63 51.4-131.44 128.57-7.25 57.05-2.47 209.26 32.24 305.68" fill="#7EBC94"/><path d="M183.21 480.1c-4.71-17.46-9.03-35.03-12.65-52.74-11.51-56.25-16.56-113.69-15.66-171.09.74-47.41 3.88-96.17 17.52-141.82 9.26-31 25.13-58.72 47.02-81.63-2.57.44-5.1 1.06-7.56 1.87-17.44 19.51-30.86 42.05-40.08 67.4-16.35 45.02-19.32 94.46-21.05 141.88-2.1 57.72 2.7 115.54 13.12 172.3 3.94 21.46 8.95 42.67 14.6 63.74l4.74.09M282.13 152.41c-2.66 51.72-8.8 103.24-16.38 154.44-8.59 58.08-19.25 115.89-31.55 173.34 1.59-.04 3.12-.09 4.59-.13 10.23-48.12 19.3-96.51 27.11-145.07 14.16-88.13 26.5-179.44 21.16-269.06-1.52-2.38-3.11-4.69-4.87-6.86 2.14 31.06 1.52 62.36-.06 93.34" fill="#66A57D"/><path d="M191.42 280.52c-.85-47.66-.59-96.8 8.78-143.71 7.5-37.56 23.64-71.45 45.83-101.85a69.56 69.56 0 0 0-4.57-1.26c-20.23 28.04-35.33 58.94-43.64 93.21-11.25 46.4-11.13 95.61-10.98 143.07.23 70.13 6.73 140.6 16.93 210.4 1.57 0 3.12.01 4.68.01-9.6-66.29-15.84-133.12-17.03-199.87" fill="#66A57D"/><path d="M260.19 41.13c-1.39-.77-2.76-1.4-4.13-2.06-16.34 79.68-25.76 160.61-31.65 241.7-4.82 66.34-8.02 133.02-7.7 199.63 1.52-.01 3.02-.02 4.5-.02-.26-65.17 2.85-130.4 7.36-195.35 5.7-81.82 15.17-163.51 31.62-243.9" fill="#66A57D"/><path d="M402.84 205.83c-7.45-17-25.42-31.12-44.99-26.98-23.01 4.87-30.23 26-37 45.92-9.39 27.62-30.87 50.52-60.58 52.79-10.34.78-17.84 9.67-19.99 25.08-.96 6.81-.23 13.83 2.58 20.4 7.59 17.7 23.07 22.12 41.03 21.5 23.24-.83 46.34-7.61 66.32-19.46 21.79-12.92 36.5-34.4 46.85-57.04 8.44-18.47 14.36-42.68 5.78-62.21" fill="#AFD7B7"/><path d="M334.72 289.57c29.08-23.96 46.34-68.72 44.81-108.09-1.47-.68-2.96-1.27-4.51-1.75 2.07 36.79-13.7 77.55-38.77 102.45-22.03 21.86-64.45 36.8-96.33 26.31.01 1.57.08 3.14.28 4.71 31.45 9.4 70.73-4.02 94.52-23.63" fill="#66A57D"/><path d="M243.88 290.14c-.62 1.31-1.18 2.7-1.66 4.18 31.08 7.77 69.02-12.59 88.05-35.46 18.32-22.04 24.13-50.68 23.22-78.82-1.55.51-2.99 1.13-4.39 1.8.49 24.7-4.65 49.19-19.11 70.05-16.59 23.94-55.45 45.53-86.11 38.25" fill="#66A57D"/><path d="M360.99 299.65c25.76-25.85 38.49-60.69 40.65-96.33a50.506 50.506 0 0 0-4.1-6.72c-.87 34.28-12 67.57-34.83 94.58-30.36 35.9-77.35 46.78-119.85 31.86.9 2.08 1.9 3.96 3 5.69 40.66 12.6 83.59 2.57 115.13-29.08" fill="#66A57D"/></g></svg>
