<svg width="609" height="392" xmlns="http://www.w3.org/2000/svg"><title>Group 3</title><g fill="none" fill-rule="evenodd"><path d="M219.066 11.29c-25.839 4.37-47.005 13.53-62.906 27.21-28.451 24.47-37.59 53.7-45.814 89.67-8.233 1.86-16.016 4.55-23.287 8.06-14.768 7.13-27.471 17.78-37.76 31.66-13.264 17.9-34.008 70.95-36.858 79.88-9.48 29.68-1.996 48.96 5.952 59.92 7.748 10.67 23.087 23.44 52.16 23.61h.482c1.326 0 3.967-.03 7.526-.1 4.15 11.09 10.214 21.25 17.957 29.87 14.394 16.03 34.914 24.86 57.777 24.86 22.377 0 46.101-8.23 65.094-22.56 11.992-9.05 21.632-20.28 28.564-33.15 14.563-.09 29.125-.21 43.684-.36l50.787-.53c5.051 17.06 14.767 31.81 28.439 42.56 15.672 12.33 36.1 19.12 57.522 19.12 5.465 0 11.021-.44 16.517-1.3 36.233-5.68 63.229-33.18 77.024-61.41 8.781-.19 20.041-.58 30.426-1.53 9.558-.89 31.945-2.95 45.615-21.19 12.896-17.2 10.859-38.29 7.646-54.74-22.709-116.23-132.437-117.42-173.744-117.87-3.724-.04-7.449-.07-11.174-.08-6.588-22.03-15.164-43.35-23.726-63.51-13.602-32.03-25.344-51.87-73.625-57.27-17.791-2-41.371-3.18-63.078-3.18-18.071 0-31.93.79-41.2 2.36" fill-opacity=".2" fill="#000"/><path d="M597.609 242.83C574.9 126.6 465.172 125.41 423.865 124.96c-3.724-.04-7.449-.07-11.174-.08-6.587-22.03-15.164-43.34-23.726-63.51C375.363 29.34 363.621 9.5 315.34 4.1 297.549 2.11 273.969.92 252.262.92c-18.071 0-31.93.79-41.199 2.36-25.84 4.38-47.006 13.53-62.907 27.21-28.451 24.47-37.59 53.7-45.814 89.67-8.233 1.86-16.016 4.55-23.287 8.07-14.768 7.12-27.471 17.77-37.76 31.65-13.264 17.91-34.008 70.96-36.858 79.89-9.48 29.68-1.996 48.96 5.952 59.91 7.748 10.68 23.088 23.44 52.16 23.62h.482c1.326 0 3.967-.04 7.526-.11 4.15 11.1 10.214 21.26 17.957 29.88 14.394 16.02 34.914 24.85 57.777 24.85 22.377 0 46.102-8.22 65.094-22.56 11.992-9.05 21.633-20.28 28.564-33.15 14.563-.08 29.125-.21 43.684-.36l50.787-.53c5.051 17.06 14.768 31.81 28.439 42.56 15.672 12.33 36.1 19.12 57.522 19.12 5.465 0 11.021-.44 16.517-1.3 36.233-5.68 63.229-33.18 77.024-61.4 8.781-.2 20.041-.59 30.426-1.54 9.558-.88 31.945-2.94 45.615-21.19 12.896-17.2 10.859-38.29 7.646-54.74" fill="#FFFFFE"/><path d="M423.518 156.96c-11.856-.13-23.704-.15-35.526.27-6.074-28.73-17.504-57.5-28.482-83.35-10.768-25.36-14.881-34.3-47.727-37.98-30.345-3.4-77.574-4.08-95.379-1.07-17.927 3.04-34.699 9.01-47.381 19.92-25.595 22.02-30.589 50.39-40.32 94.34-12.404.28-24.703 2.63-35.746 7.96-11.021 5.31-19.311 12.92-25.951 21.88-9.352 12.62-28.779 60.21-32.086 70.57-8.99 28.15 3.391 41.65 27.828 41.8 6.309.04 57.451-1.39 76.291-1.19 48.07.48 96.188.25 144.258-.26 50.391-.53 100.783-1.08 151.176-1.56 21.607-.21 44.431.85 66.951.25 6.33-.16 24.801-.25 39.992-1.65 21.744-2 30.736-7.48 24.787-37.93-14.713-75.3-72.637-91.24-142.685-92" fill="#7C6CA3"/><path d="M566.203 248.96c-1.898-9.71-4.531-18.43-7.803-26.26.606 9.43-.418 19.39-3.961 27.58-5.207 12.03-17.923 15.06-29.515 17.49-29.34 6.14-60.252 5.67-90.074 6.42-35.815.9-71.6 2.5-107.422 3.15-67.973 1.22-135.879.16-203.865 1.82-24.512.59-67.301 4.84-77.317-24.25-3.982-11.57-2.68-23.61.617-35.59-5.658 13.22-10.449 25.5-11.943 30.18-8.99 28.15 3.391 41.65 27.828 41.8 6.309.04 57.451-1.39 76.291-1.19 48.07.48 96.188.25 144.258-.26 50.391-.53 100.783-1.08 151.176-1.56 21.607-.21 44.431.85 66.951.25 6.33-.16 24.801-.25 39.992-1.65 21.744-2 30.736-7.48 24.787-37.93" fill="#635593"/><path d="M151.268 216.84c-55.897 11.98-70.225 80.02-38.948 114.84 20.94 23.32 58.004 14.58 79.785-1.86 51.358-38.76 29.833-128.11-40.837-112.98" fill="#E05849"/><path d="M218.771 258.16c-.005 1.76-.048 3.55-.15 5.4-1.543 28.14-22.557 56.92-48.666 66.96-29.867 11.48-58.805-10.76-66.635-38.87-2.933-10.53-3.398-21.11-2.3-31.58-9.174 24.16-5.639 52.75 11.3 71.61 20.94 23.32 58.004 14.58 79.785-1.86 24-18.11 32.077-47.27 26.666-71.66" fill="#D9372A"/><path d="M185.09 254.7c-12.699-13.76-34.94-7.37-45.824 5.58-9.276 11.02-13.17 27.06-3.416 39.91 11.531 15.19 40.396 6.28 49.453-7.8 7.867-12.22 7.726-29.08-.213-37.69" fill="#153841"/><path d="M184.686 254.32c3.043 13.54 1.968 26.28-13.793 35.86-9.477 5.76-26.963 6.62-34.075-3.32-3.675-5.15-3.834-11.57-3-18.23-4.88 9.92-5.468 21.67 2.032 31.56 11.531 15.19 40.396 6.28 49.453-7.8 7.867-12.22 7.726-29.08-.213-37.69-.129-.14-.274-.24-.404-.38" fill="#0F1F25"/><path d="M157.176 282.29c3.258.25 7.633-2.37 8.232-5.68.559-3.1-1.336-6.32-4.785-6.28-3.482.04-6.869 3.35-7.357 6.83-.383 2.72 1.043 4.91 3.91 5.13" fill="#FCECD5"/><path d="M453.07 218.56c-79.023-20.75-116.972 83.57-70.427 120.17 12.783 10.06 30.586 14.29 49.3 11.36 28.086-4.41 50.766-30.59 58.287-56.84 8.463-29.54-2.496-65.58-37.16-74.69" fill="#E05849"/><path d="M488.504 259.62c1.525 28.88-18.508 56.71-41.691 71.74-27.688 17.95-65.278 7.21-77.825-23.86-4.718-11.7-5.125-23.84-3.564-36.02-6.879 24.86-2.223 51.96 17.219 67.25 12.783 10.06 30.586 14.29 49.3 11.36 28.086-4.41 50.766-30.59 58.287-56.84 4.637-16.18 3.399-34.29-4.326-48.88 1.401 4.92 2.323 9.99 2.6 15.25" fill="#D9372A"/><path d="M459.018 270.36c-1.362-8.22-5.495-14.04-10.995-17.49-17.449-10.97-42.332 2.38-50.019 24.81-1.82 5.3-2.531 10.68-1.791 15.16 2.855 17.29 18.85 21.7 34.086 18.07 17.428-4.14 31.74-22.3 28.719-40.55" fill="#153841"/><path d="M459.018 270.36c-1.362-8.22-5.495-14.04-10.995-17.49-2.507-1.58-5.177-2.6-7.919-3.21 5.531 3.97 9.947 9.24 12.238 17.21 5.133 17.85-13.434 34.72-29.631 35.9-12.699.93-21.305-8.75-24.756-19.89-.297-.95-.447-1.89-.635-2.84-1.263 4.52-1.738 8.98-1.107 12.8 2.855 17.29 18.85 21.7 34.086 18.07 17.428-4.14 31.74-22.3 28.719-40.55" fill="#0F1F25"/><path d="M425.041 285.27c2.215.35 3.975.14 5.859-1.14 2.612-1.76 3.752-5.06 2.079-7.92-1.909-3.26-6.42-3.77-9.094-1.17-1.561 1.51-2.49 3.21-2.498 5.42-.008 2.04 1.508 4.46 3.654 4.81" fill="#FCECD5"/><path d="M91.918 255.36c10.66-26.32 33.082-43.5 61.287-46.86 2.529-.3 2.559-4.31 0-4-30.18 3.59-53.74 21.64-65.142 49.8-.969 2.39 2.9 3.42 3.855 1.06M160.99 207.5c1.104-.01 2.133-.11 3.199-.41 2.485-.68 1.428-4.54-1.062-3.86-.736.21-1.375.26-2.137.27-2.578.02-2.58 4.02 0 4M359.586 262.7c6.453-28.2 33.135-51.74 61.801-54.2 2.549-.22 2.57-4.23 0-4-30.424 2.61-58.783 27.09-65.657 57.13-.576 2.51 3.282 3.58 3.856 1.07M428.521 207.76c.834-.25 1.729-.53 2.606-.33 2.512.55 3.58-3.3 1.062-3.86-1.599-.36-3.175-.14-4.73.33-2.461.75-1.412 4.62 1.062 3.86" fill="#635593"/><path d="M365.598 140.83c-11.887-41.13-19.848-79.51-41.295-88.72-2.592-1.11-33.137-6.29-51.309-7.07-6.113-.26-9.228 1.65-9.998 8.79-.826 7.66-4.324 69.99-2.457 97.16.846 12.27 3.477 12.43 15.127 14.05 8.174 1.13 62.645 1.85 81.992-.8 13.389-1.83 10.178-15.66 7.94-23.41ZM251.709 57.49c.127 25.05-1.582 91.06-1.91 93.69-.758 6.04-3.485 11.99-13.809 12.33-16.021.52-45.91.68-54.763-.24-6.483-.68-12.928-.83-19.401-1.18-9.033-.47-16.287-5.13-13.572-23.91 2.559-17.68 8.648-37.64 16.889-53.41 7.23-15.06 18.205-28.34 34.984-33.2 7.695-2.23 25.361-5.52 38.031-5.74 11.557-.2 13.508 2.74 13.551 11.66Z" fill="#FCECD5"/><path d="M365.598 140.83c-2.744-9.5-5.28-18.83-7.821-27.7 2.539 10.46 8.61 28.98-1.757 36.38-6.885 4.92-18.174 3.26-26.124 3.08-12.72-.27-25.287.46-37.908-1.66-14.875-2.5-20.933-11.41-22.004-25.73-.908-12.15-.529-24.7-.121-36.86.485-14.48.717-36.95 18.877-39.35 5.108-.67 10.465-.74 15.86-.53-10.254-1.53-22.487-3.03-31.606-3.42-6.113-.26-9.228 1.65-9.998 8.79-.826 7.66-4.324 69.99-2.457 97.16.846 12.27 3.477 12.43 15.127 14.05 8.174 1.13 62.645 1.85 81.992-.8 13.389-1.83 10.178-15.66 7.94-23.41M238.158 45.83c-4.324.07-9.23.51-14.123 1.14.59.05 1.182.06 1.77.12 16.138 1.63 19.734 12.23 19.019 26.82-.576 11.79-1.853 23.62-2.638 35.41-.883 13.23-.327 30.11-12.469 38.43-9.16 6.28-23.342 5.52-33.895 5.82-12.584.35-29.795-.25-36.943-12.39-7.367-12.5-1.203-29.14.434-43.7-5.27 13.04-9.149 27.5-11.059 40.7-2.715 18.78 4.539 23.44 13.572 23.91 6.473.35 12.918.5 19.401 1.18 8.853.92 38.742.76 54.763.24 10.324-.34 13.051-6.29 13.809-12.33.328-2.63 2.037-68.64 1.91-93.69-.043-8.92-1.994-11.86-13.551-11.66" fill="#EBD5B6"/><path d="M244.369 199.78c10.43 8.24 30.481 12.88 39.086-.38 2.109-3.25 2.109-8.23 0-11.48-8.605-13.26-28.656-8.62-39.086-.38-3.412 2.69-3.412 9.55 0 12.24" fill="#FCECD5"/><path d="M283.455 199.4c1.906-2.94 1.996-7.23.457-10.44-1.66 6.68-6.84 10.16-18.053 9.93-6.863-.14-13.548-2.25-19.574-5.47-1.435-.77-2.736-1.71-3.976-2.71-1.038 3.13-.373 7.15 2.06 9.07 10.43 8.24 30.481 12.88 39.086-.38" fill="#EBD5B6"/><path d="M543.684 210.61c-.938-1.67-3.17-5.84-5.946-9.72-10.133-14.16-20.06-9.82-15.412 8.1 2.061 7.94 7.422 16.73 12.727 22.64 12.174 13.57 19.002 10.34 13.718-8.08-1.611-5.6-4.042-11.06-5.087-12.94M65.27 197.65c-4.495 5.67-7.467 13.82-9.022 18.71-5.268 16.62 1.713 14.85 12.522 7.18 4.507-3.2 9.111-8.11 12.345-13.14 14.106-21.97-3.353-28.51-15.845-12.75" fill="#F8CA54"/><path d="M78.893 189.03c3.795 5.64.681 16.61-3.608 22.15-3.894 5.02-8.572 10.31-14.912 12.03-3.033.82-4.652-.03-5.484-1.7-2.184 10.95 4.355 8.79 13.881 2.03 4.507-3.2 9.111-8.11 12.345-13.14 9.059-14.11 5.08-21.81-2.222-21.37M550.186 229.68c-2.547 5.94-10.672-2.5-12.272-4.2-3.549-3.76-6.088-8.48-8.346-13.1-2.254-4.61-3.509-14.33.205-19.01-6.498-3.2-10.824 2.61-7.447 15.62 2.061 7.94 7.422 16.73 12.727 22.64 10.67 11.9 17.23 10.88 15.133-1.95" fill="#EAB034"/><path d="M70.91 198.08c-2.986.75-5.031 3.92-6.73 6.31-1.725 2.42-1.869 5.79.015 8.07 1.489 1.8 5.319-1.16 6.188-2.24 1.926-2.38 4.623-5.88 4.578-9.06-.029-2.11-2.016-3.59-4.051-3.08M532.508 204.78c-.75 3.02.611 5.26 1.851 8.02 1.338 2.98 3.08 5.65 6.164 6.9.536.21.983-.32 1.03-.79.336-3.35-1.362-5.78-2.879-8.64-1.36-2.56-2.824-4.81-5.551-5.84-.25-.1-.555.1-.615.35" fill="#F9D37C"/></g></svg>
