<svg width="569" height="813" xmlns="http://www.w3.org/2000/svg"><title>Group</title><g fill="none" fill-rule="evenodd"><path d="M8.559 524.813c3.484 66.515 25.718 134.914 61 187.656 43.066 64.379 102.562 99.836 167.531 99.836h.004c8.101 0 16.386-.551 24.633-1.633 88.945-11.684 152.921-81.219 183.14-121.625 32.606-43.586 71.086-113.984 69.262-201.832-.899-43.035-12.285-82.461-32.656-114.488 19.718-13.067 37.597-28 52.488-43.922 15.238-16.274 33.625-41.836 34.652-71.168.313-8.77.832-23.449-10.332-35.016-6.582-6.824-15.508-10.582-25.129-10.582-9.066 0-16.558 3.266-23.332 6.809-7.394 3.879-14.73 7.886-22.062 11.894-8.543 4.668-16.778 9.168-24.988 13.399a301.205 301.205 0 0 0 10.496-33.887c8.07-32.82 8.793-59.441 2.218-81.379-3.168-10.598-10.593-35.414-36.695-35.414-22.519 0-31.754 18.992-37.863 31.555-3.293 6.773-10.653 20.203-25.168 39.828-.168-12.758-.246-25.555-.141-38.188.168-20.496 1.949-37.961 5.629-67.086 2.176-17.211-.844-30.203-9.23-39.715-6.641-7.531-16.168-11.851-26.141-11.851-23.316 0-35.676 21.773-39.734 28.934-14.567 25.667-24.286 52.843-33.77 80.75-5.203 15.3-9.719 31.027-13.605 47.406a475.943 475.943 0 0 1-4.012-6.848c-9.395-16.355-15.527-34.16-21.988-52.91-.387-1.234-1.145-5.012-1.594-7.266-2.356-11.777-7.875-39.351-36.067-39.351-30.066 0-35.714 30.312-40.703 57.066-3.91 21.004-4.726 43.762-2.464 68.07-7.692-6.57-16.071-13.902-25.165-22.019-.355-.316-.738-.695-1.144-1.086-5.266-5.055-15.066-14.461-30.16-14.461a34.042 34.042 0 0 0-25.899 11.934c-10.57 12.355-9.847 27.965-7.492 43.011 3.961 25.188 15.809 48.383 26.875 67.75 5.578 9.758 11.887 19.293 19.016 28.719a151.697 151.697 0 0 0-12.071 8.379c-63 48.484-92.386 122.074-87.339 218.731" fill-opacity=".2" fill="#000"/><path d="M550.277 214.617c-6.582-6.824-15.507-10.582-25.129-10.582-9.066 0-16.558 3.266-23.332 6.809-7.394 3.879-14.73 7.886-22.062 11.894-8.543 4.668-16.777 9.168-24.988 13.399a301.205 301.205 0 0 0 10.496-33.887c8.07-32.82 8.793-59.441 2.218-81.379-3.167-10.598-10.593-35.414-36.695-35.414-22.519 0-31.754 18.992-37.863 31.555-3.293 6.773-10.652 20.203-25.168 39.828-.168-12.758-.246-25.555-.141-38.188.168-20.496 1.95-37.961 5.629-67.086 2.176-17.211-.844-30.203-9.23-39.714C357.371 4.32 347.844 0 337.871 0c-23.316 0-35.676 21.773-39.734 28.934-14.567 25.668-24.285 52.843-33.77 80.75-5.203 15.3-9.719 31.027-13.605 47.406a475.943 475.943 0 0 1-4.012-6.848c-9.395-16.355-15.527-34.16-21.988-52.91-.387-1.234-1.145-5.012-1.594-7.266-2.355-11.777-7.875-39.351-36.066-39.351-30.067 0-35.715 30.312-40.704 57.066-3.91 21.004-4.726 43.762-2.464 68.071-7.692-6.571-16.071-13.903-25.164-22.02-.356-.316-.739-.695-1.145-1.086-5.266-5.055-15.066-14.461-30.16-14.461a34.042 34.042 0 0 0-25.899 11.934c-10.57 12.355-9.847 27.965-7.492 43.011 3.961 25.188 15.809 48.383 26.875 67.75 5.578 9.758 11.887 19.293 19.016 28.719a151.679 151.679 0 0 0-12.07 8.379c-63 48.485-92.387 122.074-87.34 218.731 3.484 66.515 25.718 134.914 61 187.656 43.066 64.379 102.562 99.836 167.531 99.836h.004c8.101 0 16.387-.551 24.633-1.633 88.945-11.684 152.922-81.219 183.14-121.625 32.606-43.586 71.086-113.984 69.262-201.832-.898-43.035-12.285-82.461-32.656-114.488 19.719-13.067 37.597-28 52.488-43.922 15.238-16.274 33.625-41.836 34.652-71.168.313-8.77.832-23.449-10.332-35.016" fill="#FFFFFE"/><path d="M516.68 239.184c-20.371 10.683-40.266 22.375-61.024 32.234-15.996 7.594-32.898 12.801-49.828 17.922-16.183 4.883-14.312-1.027-6.433-13.473 15.828-25.012 27.718-52.527 34.793-81.258 4.8-19.527 8.73-44.23 2.636-64.566-4.879-16.309-6.109-17.574-15.125.969-5.402 11.105-16.25 29.984-37.23 56.668-9.754 12.398-20.77 23.582-31.348 35.187-12.883 14.133-16.023 11.496-16.289-4.961-.531-33.176-1.496-66.312-1.219-99.519.192-23.086 2.356-42.918 5.883-70.828 2.246-17.786-4.43-22.395-15.527-2.836-13.391 23.601-22.617 49.699-31.305 75.257-10.586 31.149-17.73 63.266-22.461 95.79-2.613 17.984-8.23 22.925-16.09 10.074-12.226-19.973-25.441-39.344-37.109-59.66-10.883-18.942-17.641-38.528-24.531-58.536-4.485-13.031-5.801-52.019-16.614 5.989-6.937 37.269-1.832 77.07 8.028 114.054 3.984 14.922 2.691 21.321-14.043 10.387-13.637-8.91-35.16-25.363-74.375-60.363-5.551-4.949-16.305-18.324-11.781 10.543 3.152 20.047 13.421 40 23.046 56.844 14.422 25.234 33.817 47.445 55.043 67.132 21.657 20.094 46.399 36.586 72.328 50.598 55.477 29.953 114.254 24.152 157.032 7.691 15.199-5.847 29.89-13.168 43.906-21.027 23.867-13.387 46.832-30.551 65.555-50.566 11.961-12.774 25.375-31.715 26.031-50.434.465-13.066-.531-15.285-11.949-9.312" fill="#7EBC94"/><path d="M474.902 275.16c-15.683 5.598-57.129 23.274-86.164 27.559-23.633 3.484-18.562-8.102-10.519-21.93 4.242-7.301 8.207-14.691 12.058-21.902 8.301-15.532 19.618-34.946 23.239-53.91 2.863-15.028 9.57-37.668-13.328-9.094-13.813 17.222-28.704 33.344-44.434 49.18a280.258 280.258 0 0 1-9.852 9.425c-10.808 9.891-17.652 6.891-19.953-9.312-1.609-11.332-2.847-22.77-3.281-34.508-.777-21.203.531-44.75-1.473-66.902-1.035-11.45-3.625-32.172-14.746-2.157-9.679 26.121-16.281 54.36-23.32 80.375-3.004 11.102-12.164 44.633-28.891 24.735-6.82-8.11-30.859-46.317-45.672-68.68-8.433-12.73-16.902-22.367-15.062 6.691.898 14.079 4.84 39.985 11.398 65.227 7.129 27.453-5.839 21.563-23.554 12.277-15.43-8.097-29.489-18.218-43.368-28.515-3.906-2.895-32.226-26.301-12.804 13.015 7.918 16.032 33.785 49.696 78.562 86.485 76.789 63.082 211.93 16.758 253.469-15.192 9.434-7.257 20.199-16.847 27.035-27.871 11.531-18.601 6.293-20.578-9.34-14.996" fill="#66A57D"/><path d="M474.133 479.879c-1.293-62.004-28.035-120.164-81.188-147.711-93.617-48.516-220.98-58.395-285.535-8.73-66.531 51.203-78.277 126.984-74.898 191.695 6.336 120.937 84.945 273.148 217.043 255.808 65.332-8.582 121.906-55.875 161.683-109.066 38.692-51.723 64.282-115.242 62.895-181.996" fill="#E05849"/><path d="M468.48 435.223c5.602 50.23-2.843 94.73-19.515 133.207-44.719 103.23-129.184 169.781-195.875 179.113-65.961 9.23-117.008-29.242-151.371-80.621-22.715-33.969-38.137-73.574-45.758-108.774-11.559-53.371-8.988-107.511 6.234-159.796 6.664-22.899 17.133-44.86 31.875-63.625-54.754 50.644-64.699 120.293-61.558 180.406 6.336 120.937 84.945 273.148 217.043 255.808 65.332-8.582 121.906-55.875 161.683-109.066 38.692-51.723 64.282-115.242 62.895-181.996-.317-15.262-2.227-30.27-5.653-44.656" fill="#D9372A"/><path d="M308.227 587.852c-.934.484-1.957.902-2.704 1.675.805-.539.551-.324-.761.637-.297.387-.598.774-.899 1.164.653-.808.41-.488-.726.961-1.93 3.52-2.203 8.352 1.004 11.27 2.761 2.519 6.605 2.519 9.367 0 3.73-3.399 2.797-9.039-.024-12.602.098.125.2.246.301.371a5.795 5.795 0 0 0-2.062-2.062c1.16.742-.453-.407-.828-.672-.68-.477-1.821-1.188-2.668-.742M338.629 520.391c-.969.89-2.149 1.316-2.781 2.566-.227.449-1.805 3.051-.539 1.566-2.985 3.497-3.164 8.032 0 11.508.132.145.265.289.398.438 1.324 1.457 3.457 2.234 5.395 2.234 2.918 0 4.929-1.551 6.582-3.777l.402-.543c2.039-2.738 1.258-7.684-1.27-9.86.094.188.184.375.278.563a11.152 11.152 0 0 0-1.551-1.898c-.715-.747-1.574-1.606-2.461-2.125-.894-.524-3.535-1.524-4.453-.672M191.508 505.117c.746-.32.746-.379.004-.183a4.921 4.921 0 0 0-2.16 1.261c-.676.746-1.426 1.426-2.051 2.211-1.281 1.617-2.293 2.985-2.84 5.02-.715 2.644-.293 4.484.769 6.933.665 1.528 2.54 2.711 4.071 3.133 2.566.703 4.652-.203 6.629-1.754 3.097-2.425 3.355-6.797 2.656-10.351-.203-1.055-.629-2.039-1.043-3.028a4.887 4.887 0 0 0-1.258-2.164c-.582-.578-1.094-.597-1.594-1.078-.957-.922-2.211-.777-3.183 0M268.09 388.699c-1.508.953-2.649 2.117-3.492 3.715-1.504 2.832-1.25 5.738-.532 8.758.879 3.68 4.993 5.824 8.543 4.848 4.008-1.102 5.364-4.793 4.852-8.543.246 1.789-.707-3.883-.25-2.219-.246-.891-.805-1.996-1.277-2.844-.879-1.586-2.254-2.816-3.782-3.715-1.207-.711-2.859-.758-4.062 0M381.793 437.641c-1.586 1.922-2.316 3.652-3.039 6.015-1.188 3.891-.547 7.883 2.062 10.946 3.079 3.609 8.532 2.011 10.864-1.399 2.82-4.129.824-9.676-2.313-13.027-1.047-1.121-2.422-2.281-3.929-2.696-.829-.23-2.977-.644-3.645.161M224.332 606.012c-3.258 3.281-6.848 10.386-3.574 14.629 1.972 2.558 5.406 4.265 8.5 2.226 5.926-3.902 4.101-12.375-.199-16.855-1.258-1.313-3.465-1.274-4.727 0M168.438 563.793c-.27.25-.547.492-.833.727.657-.379 1.309-.762 1.965-1.145-2.031.594-3.57 2.18-4.804 3.82-.489.645-.52.692-.094.145a46.474 46.474 0 0 0-1.442 1.84c-.554.945-.875 2.156-1.277 3.191-2.84 7.34 9.379 12.453 12.695 5.356 1.071-2.293 1.641-4.258 1.625-6.789-.007-1.172-.234-2.274-.593-3.375-.43-1.329-1.27-2.485-1.606-3.043-1.23-2.059-3.918-2.282-5.636-.727M128.918 480.246c-.078.051-.16.106-.242.156l1.242-.164c-.867-.23-1.734-.23-2.582.075-.336.14-.668.281-1 .421.492-.199.508-.23.051-.089-1.196.32-1.899.812-2.86 1.558-2.648 2.059-4.398 4.313-4.586 7.836-.257 4.965 5.856 8.356 9.981 5.731 3.324-2.118 4.266-5.329 4.375-9.051.035-1.262-.277-2.223-.785-3.36-.121-.269-.282-1.089-.024-.121-.324-1.211-1.086-2.242-2.187-2.836.246.321.496.641.742.961l-.105-.297c-.278-.8-1.231-1.328-2.02-.82M144.957 356.543c-1.254.137-2.23.312-3.281 1.039.875-.234 1.754-.473 2.633-.711-1.09-.113-2.336.199-3.27.774-.723.386-.629.414.277.078a7.157 7.157 0 0 0-3.175 1.851c-2.664 2.356-3.215 5.571-2.594 8.946.449 2.421 2.793 4.441 5.07 5.066 2.613.719 5.086-.121 7.059-1.867 2.535-2.246 3.012-5.227 2.57-8.414l-.078-.559c-.879-1.926-1-2.273-.359-1.043-.297-1.285-.817-2.398-1.813-3.305.512 1.231 1.02 2.461 1.531 3.692-.078-1.277-.261-2.305-.894-3.438-.664-1.191-2.254-2.265-3.676-2.109M351.176 370.77c-2.18 3.507-2.403 9.253.429 12.363 2.321 2.551 6.735 1.808 8.387-1.082 2.348-4.094-.312-10.278-4.281-12.473-1.613-.894-3.566-.371-4.535 1.192M218.074 342.195c-2.789 2.059-5.722 3.793-6.554 7.524-.778 3.496 1.011 7.105 4.593 8.094 3.676 1.007 6.856-1.235 8.094-4.594 1.207-3.289-.238-6.102-1.289-9.051-.648-1.816-3.008-3.324-4.844-1.973M159.402 636.195c-5.019-1.574-10.871 3.547-11.847 8.137-.75 3.543.445 7.145 3.679 9.039 3.586 2.102 8.989 1.024 10.954-2.871 1.464-2.906 2.058-6.273.867-9.414-.754-1.977-1.407-4.184-3.653-4.891M398.969 523.559c-.539 1.683-1.18 3.019-1.391 4.832-.277 2.336-.125 4.386.192 6.714.398 2.903 4.066 4.442 6.597 3.747 2.992-.821 4.289-3.727 3.746-6.598-.465-2.484-1.617-4.25-3.16-6.203-1.211-1.535-2.715-2.137-4.242-3.199-.656-.461-1.523.027-1.742.707M105.613 427.512c-2.316-.129-4.648 1.758-5.941 3.527-2.227 3.035-3.024 5.922-2.516 9.68.336 2.469 3.223 4.191 5.504 4.191 2.586 0 4.766-1.754 5.504-4.191.797-2.641.668-5.836.215-8.543-.301-1.801-.316-4.531-2.766-4.664M260.203 531.902c-1.793.301-2.996 2.325-3.976 3.664-.422.563-.477.645-.168.247a21.152 21.152 0 0 0-1.243 1.652c-.628.902-1.019 1.871-1.429 2.89-1.293 3.204 1.383 6.946 4.418 7.782 3.519.968 6.613-1.176 7.781-4.418 1.32-3.66.027-12.727-5.383-11.817M103.832 556.852c-.785.136-1.445.48-2.055.996.68-.231.481-.137-.593.285-.754.441-1.352 1.164-1.954 1.781-2.761 2.824-5.582 6.539-3.871 10.688 1.86 4.507 6.508 5.914 10.375 2.738 3.793-3.117 2.727-7.953 1.532-12.035-.528-1.809-.93-2.344-1.711-3.485-.399-.582-.985-1.097-1.723-.968M405.969 387.059c-.692.675-1.203 1.425-1.766 2.203l1.531-1.532c-2.488 1.5-3.328 4.426-3.671 7.145-.446 3.523-.266 6.547 2.121 9.371 1.972 2.336 6.566 2.402 8.523 0 1.785-2.18 2.336-3.984 2.223-6.762-.098-2.339-.555-4.375-1.645-6.449-.922-1.75-5.117-6.14-7.316-3.976M248.008 450.434c-1.68 1.41-2.887 2.519-4.09 4.394-1.352 2.106-1.809 4.867-1.734 7.313.254 8.078 12.277 8.078 12.531 0a14.245 14.245 0 0 0-1.735-7.313c-1.039-1.926-2.472-3.035-4.089-4.394-.278-.235-.606-.235-.883 0M294.172 659.16c-2.524 2.391-3.348 5.86-4.371 9.063-1.52 4.746-.766 9.297 3.469 12.195 1.726 1.184 4.632 1.184 6.359 0 4.449-3.047 4.68-7.309 3.469-12.195-.785-3.168-1.953-6.77-4.371-9.063a3.265 3.265 0 0 0-4.555 0M225.137 681.855c-4.039.786-5.641 6.383-6.512 9.801-1.121 4.383.637 13.207 7.094 11.305 4.902-1.441 6.136-6.793 5.851-11.32-.211-3.356-1.484-10.743-6.433-9.786M363.281 600.879c-6.664 4.953-8.121 18.769-.722 23.543 1.937 1.25 4.929.875 6.484-.84 5.23-5.758 2.637-18.203-3.426-22.703-.594-.441-1.742-.441-2.336 0M183.445 419.793c-4.386 3.355-6.789 9.437-5.199 14.852 1.82 6.199 10.539 6.082 12.41 0 1.352-4.391-.082-9.497-2.058-13.5-.832-1.68-3.598-2.54-5.153-1.352M429.758 469.234c-1.535 1.965-2.445 3.805-3.309 6.149-1.117 3.008-.644 6 .348 8.937 2.746 8.129 15.039 4.879 12.914-3.562-.652-2.594-1.402-4.559-3.02-6.715-1.3-1.738-2.687-3.25-4.179-4.809-.668-.699-2.11-.828-2.754 0M294.613 332.469c-1.129 1.605-2.851 3.086-3.613 5.594-1.078 3.55-1.27 6.851-.41 10.484 1.933 8.141 12.91 7.031 15.359 0 1.375-3.945.656-7.754-1.226-11.363a11.73 11.73 0 0 0-3.493-4.079c-1.347-1.003-2.753-1.058-4.214-1.613-.934-.351-1.887.25-2.403.977M318.715 445.43c-1.875.445-2.375 2.293-3.063 3.828-1.234 2.773-1.5 5.664-1.449 8.668.125 7.613 11.781 7.625 11.817 0 .015-3.168-.497-5.813-1.879-8.668-.914-1.887-3.098-4.387-5.426-3.828" fill="#0F1F25"/></g></svg>
